  0
SECTION
  2
HEADER
  9
$ACADVER
  1
AC1027
  9
$ACADMAINTVER
 70
   125
  9
$DWGCODEPAGE
  3
ANSI_1252
  9
$REQUIREDVERSIONS
160
                 0
  9
$INSBASE
 10
0.0
 20
0.0
 30
0.0
  9
$EXTMIN
 10
1.000000000000000E+20
 20
1.000000000000000E+20
 30
1.000000000000000E+20
  9
$EXTMAX
 10
-1.000000000000000E+20
 20
-1.000000000000000E+20
 30
-1.000000000000000E+20
  9
$LIMMIN
 10
0.0
 20
0.0
  9
$LIMMAX
 10
12.0
 20
9.0
  9
$ORTHOMODE
 70
     0
  9
$REGENMODE
 70
     1
  9
$FILLMODE
 70
     1
  9
$QTEXTMODE
 70
     0
  9
$MIRRTEXT
 70
     0
  9
$LTSCALE
 40
1.0
  9
$ATTMODE
 70
     1
  9
$TEXTSIZE
 40
0.2
  9
$TRACEWID
 40
0.05
  9
$TEXTSTYLE
  7
Standard
  9
$CLAYER
  8
0
  9
$CELTYPE
  6
ByLayer
  9
$CECOLOR
 62
   256
  9
$CELTSCALE
 40
1.0
  9
$DISPSILH
 70
     0
  9
$DIMSCALE
 40
1.0
  9
$DIMASZ
 40
0.18
  9
$DIMEXO
 40
0.0625
  9
$DIMDLI
 40
0.38
  9
$DIMRND
 40
0.0
  9
$DIMDLE
 40
0.0
  9
$DIMEXE
 40
0.18
  9
$DIMTP
 40
0.0
  9
$DIMTM
 40
0.0
  9
$DIMTXT
 40
0.18
  9
$DIMCEN
 40
0.09
  9
$DIMTSZ
 40
0.0
  9
$DIMTOL
 70
     0
  9
$DIMLIM
 70
     0
  9
$DIMTIH
 70
     1
  9
$DIMTOH
 70
     1
  9
$DIMSE1
 70
     0
  9
$DIMSE2
 70
     0
  9
$DIMTAD
 70
     0
  9
$DIMZIN
 70
     0
  9
$DIMBLK
  1

  9
$DIMASO
 70
     1
  9
$DIMSHO
 70
     1
  9
$DIMPOST
  1

  9
$DIMAPOST
  1

  9
$DIMALT
 70
     0
  9
$DIMALTD
 70
     2
  9
$DIMALTF
 40
25.4
  9
$DIMLFAC
 40
1.0
  9
$DIMTOFL
 70
     0
  9
$DIMTVP
 40
0.0
  9
$DIMTIX
 70
     0
  9
$DIMSOXD
 70
     0
  9
$DIMSAH
 70
     0
  9
$DIMBLK1
  1

  9
$DIMBLK2
  1

  9
$DIMSTYLE
  2
Standard
  9
$DIMCLRD
 70
     0
  9
$DIMCLRE
 70
     0
  9
$DIMCLRT
 70
     0
  9
$DIMTFAC
 40
1.0
  9
$DIMGAP
 40
0.09
  9
$DIMJUST
 70
     0
  9
$DIMSD1
 70
     0
  9
$DIMSD2
 70
     0
  9
$DIMTOLJ
 70
     1
  9
$DIMTZIN
 70
     0
  9
$DIMALTZ
 70
     0
  9
$DIMALTTZ
 70
     0
  9
$DIMUPT
 70
     0
  9
$DIMDEC
 70
     4
  9
$DIMTDEC
 70
     4
  9
$DIMALTU
 70
     2
  9
$DIMALTTD
 70
     2
  9
$DIMTXSTY
  7
Standard
  9
$DIMAUNIT
 70
     0
  9
$DIMADEC
 70
     0
  9
$DIMALTRND
 40
0.0
  9
$DIMAZIN
 70
     0
  9
$DIMDSEP
 70
    46
  9
$DIMATFIT
 70
     3
  9
$DIMFRAC
 70
     0
  9
$DIMLDRBLK
  1

  9
$DIMLUNIT
 70
     2
  9
$DIMLWD
 70
    -2
  9
$DIMLWE
 70
    -2
  9
$DIMTMOVE
 70
     0
  9
$DIMFXL
 40
1.0
  9
$DIMFXLON
 70
     0
  9
$DIMJOGANG
 40
0.7853981633974483
  9
$DIMTFILL
 70
     0
  9
$DIMTFILLCLR
 70
     0
  9
$DIMARCSYM
 70
     0
  9
$DIMLTYPE
  6

  9
$DIMLTEX1
  6

  9
$DIMLTEX2
  6

  9
$DIMTXTDIRECTION
 70
     0
  9
$LUNITS
 70
     2
  9
$LUPREC
 70
     4
  9
$SKETCHINC
 40
0.1
  9
$FILLETRAD
 40
0.0
  9
$AUNITS
 70
     0
  9
$AUPREC
 70
     0
  9
$MENU
  1
.
  9
$ELEVATION
 40
0.0
  9
$PELEVATION
 40
0.0
  9
$THICKNESS
 40
0.0
  9
$LIMCHECK
 70
     0
  9
$CHAMFERA
 40
0.0
  9
$CHAMFERB
 40
0.0
  9
$CHAMFERC
 40
0.0
  9
$CHAMFERD
 40
0.0
  9
$SKPOLY
 70
     0
  9
$TDCREATE
 40
2460165.524803241
  9
$TDUCREATE
 40
2460165.441469908
  9
$TDUPDATE
 40
2460165.524803241
  9
$TDUUPDATE
 40
2460165.441469908
  9
$TDINDWG
 40
0.0000000000
  9
$TDUSRTIMER
 40
0.0000000000
  9
$USRTIMER
 70
     1
  9
$ANGBASE
 50
0.0
  9
$ANGDIR
 70
     0
  9
$PDMODE
 70
     0
  9
$PDSIZE
 40
0.0
  9
$PLINEWID
 40
0.0
  9
$SPLFRAME
 70
     0
  9
$SPLINETYPE
 70
     6
  9
$SPLINESEGS
 70
     8
  9
$HANDSEED
  5
89
  9
$SURFTAB1
 70
     6
  9
$SURFTAB2
 70
     6
  9
$SURFTYPE
 70
     6
  9
$SURFU
 70
     6
  9
$SURFV
 70
     6
  9
$UCSBASE
  2

  9
$UCSNAME
  2

  9
$UCSORG
 10
0.0
 20
0.0
 30
0.0
  9
$UCSXDIR
 10
1.0
 20
0.0
 30
0.0
  9
$UCSYDIR
 10
0.0
 20
1.0
 30
0.0
  9
$UCSORTHOREF
  2

  9
$UCSORTHOVIEW
 70
     0
  9
$UCSORGTOP
 10
0.0
 20
0.0
 30
0.0
  9
$UCSORGBOTTOM
 10
0.0
 20
0.0
 30
0.0
  9
$UCSORGLEFT
 10
0.0
 20
0.0
 30
0.0
  9
$UCSORGRIGHT
 10
0.0
 20
0.0
 30
0.0
  9
$UCSORGFRONT
 10
0.0
 20
0.0
 30
0.0
  9
$UCSORGBACK
 10
0.0
 20
0.0
 30
0.0
  9
$PUCSBASE
  2

  9
$PUCSNAME
  2

  9
$PUCSORG
 10
0.0
 20
0.0
 30
0.0
  9
$PUCSXDIR
 10
1.0
 20
0.0
 30
0.0
  9
$PUCSYDIR
 10
0.0
 20
1.0
 30
0.0
  9
$PUCSORTHOREF
  2

  9
$PUCSORTHOVIEW
 70
     0
  9
$PUCSORGTOP
 10
0.0
 20
0.0
 30
0.0
  9
$PUCSORGBOTTOM
 10
0.0
 20
0.0
 30
0.0
  9
$PUCSORGLEFT
 10
0.0
 20
0.0
 30
0.0
  9
$PUCSORGRIGHT
 10
0.0
 20
0.0
 30
0.0
  9
$PUCSORGFRONT
 10
0.0
 20
0.0
 30
0.0
  9
$PUCSORGBACK
 10
0.0
 20
0.0
 30
0.0
  9
$USERI1
 70
     0
  9
$USERI2
 70
     0
  9
$USERI3
 70
     0
  9
$USERI4
 70
     0
  9
$USERI5
 70
     0
  9
$USERR1
 40
0.0
  9
$USERR2
 40
0.0
  9
$USERR3
 40
0.0
  9
$USERR4
 40
0.0
  9
$USERR5
 40
0.0
  9
$WORLDVIEW
 70
     1
  9
$SHADEDGE
 70
     3
  9
$SHADEDIF
 70
    70
  9
$TILEMODE
 70
     1
  9
$MAXACTVP
 70
    64
  9
$PINSBASE
 10
0.0
 20
0.0
 30
0.0
  9
$PLIMCHECK
 70
     0
  9
$PEXTMIN
 10
1.000000000000000E+20
 20
1.000000000000000E+20
 30
1.000000000000000E+20
  9
$PEXTMAX
 10
-1.000000000000000E+20
 20
-1.000000000000000E+20
 30
-1.000000000000000E+20
  9
$PLIMMIN
 10
0.0
 20
0.0
  9
$PLIMMAX
 10
12.0
 20
9.0
  9
$UNITMODE
 70
     0
  9
$VISRETAIN
 70
     1
  9
$PLINEGEN
 70
     0
  9
$PSLTSCALE
 70
     1
  9
$TREEDEPTH
 70
  3020
  9
$CMLSTYLE
  2
Standard
  9
$CMLJUST
 70
     0
  9
$CMLSCALE
 40
1.0
  9
$PROXYGRAPHICS
 70
     1
  9
$MEASUREMENT
 70
     0
  9
$CELWEIGHT
370
    -1
  9
$ENDCAPS
280
     0
  9
$JOINSTYLE
280
     0
  9
$LWDISPLAY
290
     1
  9
$INSUNITS
 70
     4
  9
$HYPERLINKBASE
  1

  9
$STYLESHEET
  1

  9
$XEDIT
290
     1
  9
$CEPSNTYPE
380
     0
  9
$PSTYLEMODE
290
     1
  9
$FINGERPRINTGUID
  2
{19CD9CA6-FB70-BB4C-919C-D4D211A729DB}
  9
$VERSIONGUID
  2
{F7CD6D67-C18B-994F-A140-B03882BBD6D4}
  9
$EXTNAMES
290
     1
  9
$PSVPSCALE
 40
0.0
  9
$OLESTARTUP
290
     0
  9
$SORTENTS
280
   127
  9
$INDEXCTL
280
     0
  9
$HIDETEXT
280
     1
  9
$XCLIPFRAME
280
     2
  9
$HALOGAP
280
     0
  9
$OBSCOLOR
 70
   257
  9
$OBSLTYPE
280
     0
  9
$INTERSECTIONDISPLAY
280
     0
  9
$INTERSECTIONCOLOR
 70
   257
  9
$DIMASSOC
280
     2
  9
$PROJECTNAME
  1

  9
$CAMERADISPLAY
290
     0
  9
$LENSLENGTH
 40
50.0
  9
$CAMERAHEIGHT
 40
0.0
  9
$STEPSPERSEC
 40
2.0
  9
$STEPSIZE
 40
6.0
  9
$3DDWFPREC
 40
2.0
  9
$PSOLWIDTH
 40
0.25
  9
$PSOLHEIGHT
 40
4.0
  9
$LOFTANG1
 40
1.570796326794896
  9
$LOFTANG2
 40
1.570796326794896
  9
$LOFTMAG1
 40
0.0
  9
$LOFTMAG2
 40
0.0
  9
$LOFTPARAM
 70
     7
  9
$LOFTNORMALS
280
     1
  9
$LATITUDE
 40
37.795
  9
$LONGITUDE
 40
-122.394
  9
$NORTHDIRECTION
 40
0.0
  9
$TIMEZONE
 70
 -8000
  9
$LIGHTGLYPHDISPLAY
280
     1
  9
$TILEMODELIGHTSYNCH
280
     1
  9
$CMATERIAL
347
11
  9
$SOLIDHIST
280
     0
  9
$SHOWHIST
280
     1
  9
$DWFFRAME
280
     2
  9
$DGNFRAME
280
     0
  9
$REALWORLDSCALE
290
     1
  9
$INTERFERECOLOR
 62
     1
  9
$INTERFEREOBJVS
345
33
  9
$INTERFEREVPVS
346
30
  9
$CSHADOW
280
     0
  9
$SHADOWPLANELOCATION
 40
0.0
  0
ENDSEC
  0
SECTION
  2
CLASSES
  0
CLASS
  1
ACDBDICTIONARYWDFLT
  2
AcDbDictionaryWithDefault
  3
ObjectDBX Classes
 90
        0
 91
        1
280
     0
281
     0
  0
CLASS
  1
MATERIAL
  2
AcDbMaterial
  3
ObjectDBX Classes
 90
     1153
 91
        3
280
     0
281
     0
  0
CLASS
  1
VISUALSTYLE
  2
AcDbVisualStyle
  3
ObjectDBX Classes
 90
     4095
 91
       24
280
     0
281
     0
  0
CLASS
  1
SCALE
  2
AcDbScale
  3
ObjectDBX Classes
 90
     1153
 91
       17
280
     0
281
     0
  0
CLASS
  1
TABLESTYLE
  2
AcDbTableStyle
  3
ObjectDBX Classes
 90
     4095
 91
        1
280
     0
281
     0
  0
CLASS
  1
MLEADERSTYLE
  2
AcDbMLeaderStyle
  3
ACDB_MLEADERSTYLE_CLASS
 90
     4095
 91
        1
280
     0
281
     0
  0
CLASS
  1
ACDBSECTIONVIEWSTYLE
  2
AcDbSectionViewStyle
  3
ObjectDBX Classes
 90
     1025
 91
        1
280
     0
281
     0
  0
CLASS
  1
ACDBDETAILVIEWSTYLE
  2
AcDbDetailViewStyle
  3
ObjectDBX Classes
 90
     1025
 91
        1
280
     0
281
     0
  0
CLASS
  1
DICTIONARYVAR
  2
AcDbDictionaryVar
  3
ObjectDBX Classes
 90
        0
 91
        5
280
     0
281
     0
  0
CLASS
  1
CELLSTYLEMAP
  2
AcDbCellStyleMap
  3
ObjectDBX Classes
 90
     1152
 91
        1
280
     0
281
     0
  0
ENDSEC
  0
SECTION
  2
TABLES
  0
TABLE
  2
VPORT
  5
8
330
0
100
AcDbSymbolTable
 70
     1
1001
ACAD
1000
DbSaveVer
1071
      205
  0
VPORT
  5
57
330
8
100
AcDbSymbolTableRecord
100
AcDbViewportTableRecord
  2
*Active
 70
     0
 10
0.0
 20
0.0
 11
1.0
 21
1.0
 12
0.0
 22
0.0
 13
0.0
 23
0.0
 14
1.0
 24
1.0
 15
0.0
 25
0.0
 16
0.0
 26
0.0
 36
1.0
 17
29.99999999249992
 27
-44.99999998875003
 37
0.0
 40
91.79999997705008
 41
0.6666666666666643
 42
50.0
 43
0.0
 44
0.0
 50
0.0
 51
0.0
 71
     0
 72
   100
 73
     1
 74
     0
 75
     1
 76
     0
 77
     0
 78
     0
281
     0
 65
     1
110
0.0
120
0.0
130
0.0
111
1.0
121
0.0
131
0.0
112
0.0
122
1.0
132
0.0
 79
     0
146
0.0
 60
     3
 61
     5
292
     1
282
     1
141
0.0
142
0.0
 63
   250
421
  3355443
  0
ENDTAB
  0
TABLE
  2
LTYPE
  5
5
330
0
100
AcDbSymbolTable
 70
     1
  0
LTYPE
  5
5B
330
5
100
AcDbSymbolTableRecord
100
AcDbLinetypeTableRecord
  2
ByBlock
 70
     0
  3

 72
    65
 73
     0
 40
0.0
  0
LTYPE
  5
5C
330
5
100
AcDbSymbolTableRecord
100
AcDbLinetypeTableRecord
  2
ByLayer
 70
     0
  3

 72
    65
 73
     0
 40
0.0
  0
LTYPE
  5
5D
330
5
100
AcDbSymbolTableRecord
100
AcDbLinetypeTableRecord
  2
Continuous
 70
     0
  3
Solid line
 72
    65
 73
     0
 40
0.0
  0
ENDTAB
  0
TABLE
  2
LAYER
  5
2
330
0
100
AcDbSymbolTable
 70
     4
  0
LAYER
  5
54
330
2
100
AcDbSymbolTableRecord
100
AcDbLayerTableRecord
  2
0
 70
     0
 62
     7
  6
Continuous
370
    -3
390
F
347
21
348
0
  0
LAYER
  5
78
330
2
100
AcDbSymbolTableRecord
100
AcDbLayerTableRecord
  2
EDGECUT
 70
     0
 62
     7
  6
Continuous
370
     0
390
F
347
21
348
0
  0
LAYER
  5
7A
330
2
100
AcDbSymbolTableRecord
100
AcDbLayerTableRecord
  2
COPPER
 70
     1
 62
     7
  6
Continuous
370
     0
390
F
347
21
348
0
  0
LAYER
  5
7B
330
2
100
AcDbSymbolTableRecord
100
AcDbLayerTableRecord
  2
SILK
 70
     1
 62
     7
  6
Continuous
370
     0
390
F
347
21
348
0
  0
ENDTAB
  0
TABLE
  2
STYLE
  5
3
330
0
100
AcDbSymbolTable
 70
     2
  0
STYLE
  5
55
330
3
100
AcDbSymbolTableRecord
100
AcDbTextStyleTableRecord
  2
Standard
 70
     0
 40
0.0
 41
1.0
 50
0.0
 71
     0
 42
0.2
  3
txt
  4

  0
STYLE
  5
5A
330
3
100
AcDbSymbolTableRecord
100
AcDbTextStyleTableRecord
  2
Annotative
 70
     0
 40
0.0
 41
1.0
 50
0.0
 71
     0
 42
0.2
  3
txt
  4

1001
AcadAnnotative
1000
AnnotativeData
1002
{
1070
     1
1070
     1
1002
}
  0
ENDTAB
  0
TABLE
  2
VIEW
  5
6
330
0
100
AcDbSymbolTable
 70
     0
  0
ENDTAB
  0
TABLE
  2
UCS
  5
7
330
0
100
AcDbSymbolTable
 70
     0
  0
ENDTAB
  0
TABLE
  2
APPID
  5
9
330
0
100
AcDbSymbolTable
 70
     2
  0
APPID
  5
56
330
9
100
AcDbSymbolTableRecord
100
AcDbRegAppTableRecord
  2
ACAD
 70
     0
  0
APPID
  5
5E
330
9
100
AcDbSymbolTableRecord
100
AcDbRegAppTableRecord
  2
AcadAnnotative
 70
     0
  0
ENDTAB
  0
TABLE
  2
DIMSTYLE
  5
A
330
0
100
AcDbSymbolTable
 70
     2
100
AcDbDimStyleTable
 71
     0
  0
DIMSTYLE
105
58
330
A
100
AcDbSymbolTableRecord
100
AcDbDimStyleTableRecord
  2
Standard
 70
     0
340
55
  0
DIMSTYLE
105
59
330
A
100
AcDbSymbolTableRecord
100
AcDbDimStyleTableRecord
  2
Annotative
 70
     0
340
55
1001
AcadAnnotative
1000
AnnotativeData
1002
{
1070
     1
1070
     1
1002
}
  0
ENDTAB
  0
TABLE
  2
BLOCK_RECORD
  5
1
330
0
100
AcDbSymbolTable
 70
     1
  0
BLOCK_RECORD
  5
70
330
1
100
AcDbSymbolTableRecord
100
AcDbBlockTableRecord
  2
*Model_Space
340
73
 70
     0
280
     1
281
     0
  0
BLOCK_RECORD
  5
6C
330
1
100
AcDbSymbolTableRecord
100
AcDbBlockTableRecord
  2
*Paper_Space
340
6F
 70
     0
280
     1
281
     0
  0
BLOCK_RECORD
  5
74
330
1
100
AcDbSymbolTableRecord
100
AcDbBlockTableRecord
  2
*Paper_Space0
340
77
 70
     0
280
     1
281
     0
  0
ENDTAB
  0
ENDSEC
  0
SECTION
  2
BLOCKS
  0
BLOCK
  5
71
330
70
100
AcDbEntity
  8
0
100
AcDbBlockBegin
  2
*Model_Space
 70
     0
 10
0.0
 20
0.0
 30
0.0
  3
*Model_Space
  1

  0
ENDBLK
  5
72
330
70
100
AcDbEntity
  8
0
100
AcDbBlockEnd
  0
BLOCK
  5
6D
330
6C
100
AcDbEntity
 67
     1
  8
0
100
AcDbBlockBegin
  2
*Paper_Space
 70
     0
 10
0.0
 20
0.0
 30
0.0
  3
*Paper_Space
  1

  0
ENDBLK
  5
6E
330
6C
100
AcDbEntity
 67
     1
  8
0
100
AcDbBlockEnd
  0
BLOCK
  5
75
330
74
100
AcDbEntity
 67
     1
  8
0
100
AcDbBlockBegin
  2
*Paper_Space0
 70
     0
 10
0.0
 20
0.0
 30
0.0
  3
*Paper_Space0
  1

  0
ENDBLK
  5
76
330
74
100
AcDbEntity
 67
     1
  8
0
100
AcDbBlockEnd
  0
ENDSEC
  0
SECTION
  2
ENTITIES
  0
SPLINE
  5
79
330
70
100
AcDbEntity
  8
EDGECUT
 62
    12
420
 14878227
370
    35
100
AcDbSpline
210
0.0
220
0.0
230
1.0
 70
     9
 71
     3
 72
   767
 73
   763
 74
     0
 42
0.0000000001
 43
0.0000000001
 40
0.0
 40
0.0
 40
0.0
 40
0.0
 40
1.0
 40
1.0
 40
1.0
 40
2.0
 40
2.0
 40
2.0
 40
3.0
 40
3.0
 40
3.0
 40
4.0
 40
4.0
 40
4.0
 40
5.0
 40
5.0
 40
5.0
 40
6.0
 40
6.0
 40
6.0
 40
7.0
 40
7.0
 40
7.0
 40
8.0
 40
8.0
 40
8.0
 40
9.0
 40
9.0
 40
9.0
 40
10.0
 40
10.0
 40
10.0
 40
11.0
 40
11.0
 40
11.0
 40
12.0
 40
12.0
 40
12.0
 40
13.0
 40
13.0
 40
13.0
 40
14.0
 40
14.0
 40
14.0
 40
15.0
 40
15.0
 40
15.0
 40
16.0
 40
16.0
 40
16.0
 40
17.0
 40
17.0
 40
17.0
 40
18.0
 40
18.0
 40
18.0
 40
19.0
 40
19.0
 40
19.0
 40
20.0
 40
20.0
 40
20.0
 40
21.0
 40
21.0
 40
21.0
 40
22.0
 40
22.0
 40
22.0
 40
23.0
 40
23.0
 40
23.0
 40
24.0
 40
24.0
 40
24.0
 40
25.0
 40
25.0
 40
25.0
 40
26.0
 40
26.0
 40
26.0
 40
27.0
 40
27.0
 40
27.0
 40
28.0
 40
28.0
 40
28.0
 40
29.0
 40
29.0
 40
29.0
 40
30.0
 40
30.0
 40
30.0
 40
31.0
 40
31.0
 40
31.0
 40
32.0
 40
32.0
 40
32.0
 40
33.0
 40
33.0
 40
33.0
 40
34.0
 40
34.0
 40
34.0
 40
35.0
 40
35.0
 40
35.0
 40
36.0
 40
36.0
 40
36.0
 40
37.0
 40
37.0
 40
37.0
 40
38.0
 40
38.0
 40
38.0
 40
39.0
 40
39.0
 40
39.0
 40
40.0
 40
40.0
 40
40.0
 40
41.0
 40
41.0
 40
41.0
 40
42.0
 40
42.0
 40
42.0
 40
43.0
 40
43.0
 40
43.0
 40
44.0
 40
44.0
 40
44.0
 40
45.0
 40
45.0
 40
45.0
 40
46.0
 40
46.0
 40
46.0
 40
47.0
 40
47.0
 40
47.0
 40
48.0
 40
48.0
 40
48.0
 40
49.0
 40
49.0
 40
49.0
 40
50.0
 40
50.0
 40
50.0
 40
51.0
 40
51.0
 40
51.0
 40
52.0
 40
52.0
 40
52.0
 40
53.0
 40
53.0
 40
53.0
 40
54.0
 40
54.0
 40
54.0
 40
55.0
 40
55.0
 40
55.0
 40
56.0
 40
56.0
 40
56.0
 40
57.0
 40
57.0
 40
57.0
 40
58.0
 40
58.0
 40
58.0
 40
59.0
 40
59.0
 40
59.0
 40
60.0
 40
60.0
 40
60.0
 40
61.0
 40
61.0
 40
61.0
 40
62.0
 40
62.0
 40
62.0
 40
63.0
 40
63.0
 40
63.0
 40
64.0
 40
64.0
 40
64.0
 40
65.0
 40
65.0
 40
65.0
 40
66.0
 40
66.0
 40
66.0
 40
67.0
 40
67.0
 40
67.0
 40
68.0
 40
68.0
 40
68.0
 40
69.0
 40
69.0
 40
69.0
 40
70.0
 40
70.0
 40
70.0
 40
71.0
 40
71.0
 40
71.0
 40
72.0
 40
72.0
 40
72.0
 40
73.0
 40
73.0
 40
73.0
 40
74.0
 40
74.0
 40
74.0
 40
75.0
 40
75.0
 40
75.0
 40
76.0
 40
76.0
 40
76.0
 40
77.0
 40
77.0
 40
77.0
 40
78.0
 40
78.0
 40
78.0
 40
79.0
 40
79.0
 40
79.0
 40
80.0
 40
80.0
 40
80.0
 40
81.0
 40
81.0
 40
81.0
 40
82.0
 40
82.0
 40
82.0
 40
83.0
 40
83.0
 40
83.0
 40
84.0
 40
84.0
 40
84.0
 40
85.0
 40
85.0
 40
85.0
 40
86.0
 40
86.0
 40
86.0
 40
87.0
 40
87.0
 40
87.0
 40
88.0
 40
88.0
 40
88.0
 40
89.0
 40
89.0
 40
89.0
 40
90.0
 40
90.0
 40
90.0
 40
91.0
 40
91.0
 40
91.0
 40
92.0
 40
92.0
 40
92.0
 40
93.0
 40
93.0
 40
93.0
 40
94.0
 40
94.0
 40
94.0
 40
95.0
 40
95.0
 40
95.0
 40
96.0
 40
96.0
 40
96.0
 40
97.0
 40
97.0
 40
97.0
 40
98.0
 40
98.0
 40
98.0
 40
99.0
 40
99.0
 40
99.0
 40
100.0
 40
100.0
 40
100.0
 40
101.0
 40
101.0
 40
101.0
 40
102.0
 40
102.0
 40
102.0
 40
103.0
 40
103.0
 40
103.0
 40
104.0
 40
104.0
 40
104.0
 40
105.0
 40
105.0
 40
105.0
 40
106.0
 40
106.0
 40
106.0
 40
107.0
 40
107.0
 40
107.0
 40
108.0
 40
108.0
 40
108.0
 40
109.0
 40
109.0
 40
109.0
 40
110.0
 40
110.0
 40
110.0
 40
111.0
 40
111.0
 40
111.0
 40
112.0
 40
112.0
 40
112.0
 40
113.0
 40
113.0
 40
113.0
 40
114.0
 40
114.0
 40
114.0
 40
115.0
 40
115.0
 40
115.0
 40
116.0
 40
116.0
 40
116.0
 40
117.0
 40
117.0
 40
117.0
 40
118.0
 40
118.0
 40
118.0
 40
119.0
 40
119.0
 40
119.0
 40
120.0
 40
120.0
 40
120.0
 40
121.0
 40
121.0
 40
121.0
 40
122.0
 40
122.0
 40
122.0
 40
123.0
 40
123.0
 40
123.0
 40
124.0
 40
124.0
 40
124.0
 40
125.0
 40
125.0
 40
125.0
 40
126.0
 40
126.0
 40
126.0
 40
127.0
 40
127.0
 40
127.0
 40
128.0
 40
128.0
 40
128.0
 40
129.0
 40
129.0
 40
129.0
 40
130.0
 40
130.0
 40
130.0
 40
131.0
 40
131.0
 40
131.0
 40
132.0
 40
132.0
 40
132.0
 40
133.0
 40
133.0
 40
133.0
 40
134.0
 40
134.0
 40
134.0
 40
135.0
 40
135.0
 40
135.0
 40
136.0
 40
136.0
 40
136.0
 40
137.0
 40
137.0
 40
137.0
 40
138.0
 40
138.0
 40
138.0
 40
139.0
 40
139.0
 40
139.0
 40
140.0
 40
140.0
 40
140.0
 40
141.0
 40
141.0
 40
141.0
 40
142.0
 40
142.0
 40
142.0
 40
143.0
 40
143.0
 40
143.0
 40
144.0
 40
144.0
 40
144.0
 40
145.0
 40
145.0
 40
145.0
 40
146.0
 40
146.0
 40
146.0
 40
147.0
 40
147.0
 40
147.0
 40
148.0
 40
148.0
 40
148.0
 40
149.0
 40
149.0
 40
149.0
 40
150.0
 40
150.0
 40
150.0
 40
151.0
 40
151.0
 40
151.0
 40
152.0
 40
152.0
 40
152.0
 40
153.0
 40
153.0
 40
153.0
 40
154.0
 40
154.0
 40
154.0
 40
155.0
 40
155.0
 40
155.0
 40
156.0
 40
156.0
 40
156.0
 40
157.0
 40
157.0
 40
157.0
 40
158.0
 40
158.0
 40
158.0
 40
159.0
 40
159.0
 40
159.0
 40
160.0
 40
160.0
 40
160.0
 40
161.0
 40
161.0
 40
161.0
 40
162.0
 40
162.0
 40
162.0
 40
163.0
 40
163.0
 40
163.0
 40
164.0
 40
164.0
 40
164.0
 40
165.0
 40
165.0
 40
165.0
 40
166.0
 40
166.0
 40
166.0
 40
167.0
 40
167.0
 40
167.0
 40
168.0
 40
168.0
 40
168.0
 40
169.0
 40
169.0
 40
169.0
 40
170.0
 40
170.0
 40
170.0
 40
171.0
 40
171.0
 40
171.0
 40
172.0
 40
172.0
 40
172.0
 40
173.0
 40
173.0
 40
173.0
 40
174.0
 40
174.0
 40
174.0
 40
175.0
 40
175.0
 40
175.0
 40
176.0
 40
176.0
 40
176.0
 40
177.0
 40
177.0
 40
177.0
 40
178.0
 40
178.0
 40
178.0
 40
179.0
 40
179.0
 40
179.0
 40
180.0
 40
180.0
 40
180.0
 40
181.0
 40
181.0
 40
181.0
 40
182.0
 40
182.0
 40
182.0
 40
183.0
 40
183.0
 40
183.0
 40
184.0
 40
184.0
 40
184.0
 40
185.0
 40
185.0
 40
185.0
 40
186.0
 40
186.0
 40
186.0
 40
187.0
 40
187.0
 40
187.0
 40
188.0
 40
188.0
 40
188.0
 40
189.0
 40
189.0
 40
189.0
 40
190.0
 40
190.0
 40
190.0
 40
191.0
 40
191.0
 40
191.0
 40
192.0
 40
192.0
 40
192.0
 40
193.0
 40
193.0
 40
193.0
 40
194.0
 40
194.0
 40
194.0
 40
195.0
 40
195.0
 40
195.0
 40
196.0
 40
196.0
 40
196.0
 40
197.0
 40
197.0
 40
197.0
 40
198.0
 40
198.0
 40
198.0
 40
199.0
 40
199.0
 40
199.0
 40
200.0
 40
200.0
 40
200.0
 40
201.0
 40
201.0
 40
201.0
 40
202.0
 40
202.0
 40
202.0
 40
203.0
 40
203.0
 40
203.0
 40
204.0
 40
204.0
 40
204.0
 40
205.0
 40
205.0
 40
205.0
 40
206.0
 40
206.0
 40
206.0
 40
207.0
 40
207.0
 40
207.0
 40
208.0
 40
208.0
 40
208.0
 40
209.0
 40
209.0
 40
209.0
 40
210.0
 40
210.0
 40
210.0
 40
211.0
 40
211.0
 40
211.0
 40
212.0
 40
212.0
 40
212.0
 40
213.0
 40
213.0
 40
213.0
 40
214.0
 40
214.0
 40
214.0
 40
215.0
 40
215.0
 40
215.0
 40
216.0
 40
216.0
 40
216.0
 40
217.0
 40
217.0
 40
217.0
 40
218.0
 40
218.0
 40
218.0
 40
219.0
 40
219.0
 40
219.0
 40
220.0
 40
220.0
 40
220.0
 40
221.0
 40
221.0
 40
221.0
 40
222.0
 40
222.0
 40
222.0
 40
223.0
 40
223.0
 40
223.0
 40
224.0
 40
224.0
 40
224.0
 40
225.0
 40
225.0
 40
225.0
 40
226.0
 40
226.0
 40
226.0
 40
227.0
 40
227.0
 40
227.0
 40
228.0
 40
228.0
 40
228.0
 40
229.0
 40
229.0
 40
229.0
 40
230.0
 40
230.0
 40
230.0
 40
231.0
 40
231.0
 40
231.0
 40
232.0
 40
232.0
 40
232.0
 40
233.0
 40
233.0
 40
233.0
 40
234.0
 40
234.0
 40
234.0
 40
235.0
 40
235.0
 40
235.0
 40
236.0
 40
236.0
 40
236.0
 40
237.0
 40
237.0
 40
237.0
 40
238.0
 40
238.0
 40
238.0
 40
239.0
 40
239.0
 40
239.0
 40
240.0
 40
240.0
 40
240.0
 40
241.0
 40
241.0
 40
241.0
 40
242.0
 40
242.0
 40
242.0
 40
243.0
 40
243.0
 40
243.0
 40
244.0
 40
244.0
 40
244.0
 40
245.0
 40
245.0
 40
245.0
 40
246.0
 40
246.0
 40
246.0
 40
247.0
 40
247.0
 40
247.0
 40
248.0
 40
248.0
 40
248.0
 40
249.0
 40
249.0
 40
249.0
 40
250.0
 40
250.0
 40
250.0
 40
251.0
 40
251.0
 40
251.0
 40
252.0
 40
252.0
 40
252.0
 40
253.0
 40
253.0
 40
253.0
 40
254.0
 40
254.0
 40
254.0
 40
254.0
 10
58.19963305942405
 20
-31.14481530571432
 30
0.0
 10
58.19701390545865
 20
-31.19103911440417
 30
0.0
 10
58.16736210142817
 20
-31.24075512838035
 30
0.0
 10
58.17782807032003
 20
-31.2817512761085
 30
0.0
 10
58.22056499720712
 20
-31.44485216873136
 30
0.0
 10
58.18131495212182
 20
-31.59748709246268
 30
0.0
 10
58.14468406100257
 20
-31.75448194931803
 30
0.0
 10
58.13073121030827
 20
-31.81379088086417
 30
0.0
 10
58.14991704544818
 20
-31.88095195082099
 30
0.0
 10
58.14381100968034
 20
-31.94374776416957
 30
0.0
 10
58.13421809211071
 20
-32.04230674080037
 30
0.0
 10
58.1211329692541
 20
-32.14173876875274
 30
0.0
 10
58.10107408279261
 20
-32.23855164274068
 30
0.0
 10
58.07229000659917
 20
-32.37287378265369
 30
0.0
 10
58.00426120880498
 20
-32.49759768151316
 30
0.0
 10
58.04699813569271
 20
-32.64674039995879
 30
0.0
 10
58.06531624299494
 20
-32.71041458811253
 30
0.0
 10
58.03827826944402
 20
-32.79152850876301
 30
0.0
 10
58.01821405949864
 20
-32.86130340920069
 30
0.0
 10
57.97896401441463
 20
-32.99649327695138
 30
0.0
 10
57.93012105175907
 20
-33.12819626289995
 30
0.0
 10
57.88738412487262
 20
-33.26164002800779
 30
0.0
 10
57.87517737682084
 20
-33.30001702177117
 30
0.0
 10
57.85773232084086
 20
-33.341013169499
 30
0.0
 10
57.86209225396552
 20
-33.3785171119408
 30
0.0
 10
57.90046924772794
 20
-33.68030007760101
 30
0.0
 10
57.76004639553228
 20
-33.93846774156833
 30
0.0
 10
57.66759345466804
 20
-34.20797974923266
 30
0.0
 10
57.59258024630118
 20
-34.42777574292081
 30
0.0
 10
57.50710639252701
 20
-34.64059264951985
 30
0.0
 10
57.49053438786731
 20
-34.88131525750686
 30
0.0
 10
57.47919536765451
 20
-35.04878140673764
 30
0.0
 10
57.39720839568213
 20
-35.21449612984136
 30
0.0
 10
57.33005264921017
 20
-35.37411014066146
 30
0.0
 10
56.42470907571279
 20
-37.55198989714425
 30
0.0
 10
55.51587329692972
 20
-39.72812887446744
 30
0.0
 10
54.60878894427373
 20
-41.90600863095118
 30
0.0
 10
53.62756443457245
 20
-44.26269355687754
 30
0.0
 10
52.6472129761921
 20
-46.62112458544772
 30
0.0
 10
51.66511541516861
 20
-48.97780418789019
 30
0.0
 10
51.14092262534164
 20
-50.2372605715045
 30
0.0
 10
50.61411600502997
 20
-51.49584390379658
 30
0.0
 10
50.08905016388013
 20
-52.75442723608865
 30
0.0
 10
50.06375296948914
 20
-52.81460921895702
 30
0.0
 10
50.04369408302829
 20
-52.87653730446727
 30
0.0
 10
50.01752916079897
 20
-52.94805830754843
 30
0.0
 10
50.20592192432925
 20
-53.01434632618399
 30
0.0
 10
50.38036183716523
 20
-52.97596933242028
 30
0.0
 10
50.54870103771663
 20
-52.9637572608859
 30
0.0
 10
50.99003380425219
 20
-52.93323240553255
 30
0.0
 10
51.43049351946618
 20
-52.88438944287827
 30
0.0
 10
51.87008018335793
 20
-52.83467342890176
 30
0.0
 10
51.98869804645021
 20
-52.82158830604515
 30
0.0
 10
52.08987617704575
 20
-52.83554648022271
 30
0.0
 10
52.19977417388999
 20
-52.8852571707166
 30
0.0
 10
52.35153604630037
 20
-52.95416434331627
 30
0.0
 10
52.51638304156544
 20
-52.99428211623797
 30
0.0
 10
52.67425094974302
 20
-53.04923111465944
 30
0.0
 10
52.72396164023499
 20
-53.06580311931913
 30
0.0
 10
52.78240284394344
 20
-53.07801519085352
 30
0.0
 10
52.81641990458313
 20
-53.1129053028135
 30
0.0
 10
53.01702473964715
 20
-53.31089098391469
 30
0.0
 10
53.18710471935847
 20
-53.52196711135319
 30
0.0
 10
53.25077358402863
 20
-53.81502488728146
 30
0.0
 10
53.31182861821858
 20
-54.10197662744317
 30
0.0
 10
53.41998051241965
 20
-54.37846239871174
 30
0.0
 10
53.51068735063943
 20
-54.65844037526729
 30
0.0
 10
53.64064423394516
 20
-55.05965536887988
 30
0.0
 10
53.71478439099043
 20
-55.47307711054295
 30
0.0
 10
53.77758020433901
 20
-55.88998573400974
 30
0.0
 10
53.82031713122611
 20
-56.17432364368997
 30
0.0
 10
53.86741931472176
 20
-56.45866155336889
 30
0.0
 10
53.92410909230314
 20
-56.7412533604053
 30
0.0
 10
54.04709221200335
 20
-57.35179305533059
 30
0.0
 10
54.06191811401795
 20
-57.9640788528997
 30
0.0
 10
53.99039711093871
 20
-58.58159231143052
 30
0.0
 10
53.89358423695108
 20
-59.41803403581084
 30
0.0
 10
53.61273320907331
 20
-60.1951615051624
 30
0.0
 10
53.26123955291985
 20
-60.95397619069435
 30
0.0
 10
52.98388073032905
 20
-61.55230381408399
 30
0.0
 10
52.62627571492642
 20
-62.10266684962546
 30
0.0
 10
52.30007392968006
 20
-62.67221039682357
 30
0.0
 10
52.22419299347551
 20
-62.80565948541435
 30
0.0
 10
52.16052412880534
 20
-62.94695538893416
 30
0.0
 10
52.10644818170481
 20
-63.08999207161131
 30
0.0
 10
51.86397414759074
 20
-63.73629492981818
 30
0.0
 10
51.56481033589528
 20
-64.35642754231375
 30
0.0
 10
51.25779438579011
 20
-64.97481937565069
 30
0.0
 10
50.99352068605464
 20
-65.50773203172635
 30
0.0
 10
50.74494593965727
 20
-66.04849682621365
 30
0.0
 10
50.47543393199294
 20
-66.57966337964935
 30
0.0
 10
50.32715894138564
 20
-66.87185342773863
 30
0.0
 10
50.14923214674722
 20
-67.15008530165102
 30
0.0
 10
49.98700430544626
 20
-67.43616399049115
 30
0.0
 10
49.67039543777017
 20
-67.99524689228066
 30
0.0
 10
49.28051946437167
 20
-68.50199462612891
 30
0.0
 10
48.86884382535177
 20
-68.99391113447868
 30
0.0
 10
48.74847985961568
 20
-69.13695314064037
 30
0.0
 10
48.65253471346574
 20
-69.30005403326354
 30
0.0
 10
48.53304379905123
 20
-69.44396909074683
 30
0.0
 10
48.25568497646044
 20
-69.77889074223933
 30
0.0
 10
47.9486690263559
 20
-70.09026662546981
 30
0.0
 10
47.6939882441907
 20
-70.4408925537843
 30
0.0
 10
47.33115556782443
 20
-70.941534251866
 30
0.0
 10
46.83225464890201
 20
-71.27907505732515
 30
0.0
 10
46.3534179399256
 20
-71.64278078501173
 30
0.0
 10
46.12402902866814
 20
-71.81809374916993
 30
0.0
 10
45.91208517339068
 20
-72.01172482062972
 30
0.0
 10
45.71060728700379
 20
-72.2184356914603
 30
0.0
 10
45.61379441301617
 20
-72.31699466809236
 30
0.0
 10
45.48907051415668
 20
-72.39025645033152
 30
0.0
 10
45.37044732758115
 20
-72.46526965869903
 30
0.0
 10
45.15588964182219
 20
-72.6013325777713
 30
0.0
 10
44.93696669945594
 20
-72.73216251239796
 30
0.0
 10
44.71804375708971
 20
-72.86211939570368
 30
0.0
 10
44.5802347353749
 20
-72.94323331635322
 30
0.0
 10
44.44155798582113
 20
-73.00864828366719
 30
0.0
 10
44.27758404187573
 20
-73.04353307214455
 30
0.0
 10
44.00022521928493
 20
-73.10197427585237
 30
0.0
 10
43.72635327849657
 20
-73.19006728359195
 30
0.0
 10
43.46207957876173
 20
-73.29472697250603
 30
0.0
 10
43.09313554314503
 20
-73.44126118395533
 30
0.0
 10
42.71460391344322
 20
-73.54243399106635
 30
0.0
 10
42.32385488872186
 20
-73.60872200970063
 30
0.0
 10
42.02033114390238
 20
-73.66105185415799
 30
0.0
 10
41.71854817824089
 20
-73.72821292411576
 30
0.0
 10
41.41327833077824
 20
-73.77269595364538
 30
0.0
 10
41.23971146926576
 20
-73.79798782455377
 30
0.0
 10
41.1402794413121
 20
-73.89305991938083
 30
0.0
 10
41.07137759219633
 20
-74.03871575602273
 30
0.0
 10
40.98241153313517
 20
-74.22624079171534
 30
0.0
 10
40.89432384887885
 20
-74.41463355524497
 30
0.0
 10
40.80361168717516
 20
-74.60128553961599
 30
0.0
 10
40.77134072917993
 20
-74.66670050692932
 30
0.0
 10
40.74430275562902
 20
-74.74519527361536
 30
0.0
 10
40.69109985985007
 20
-74.78793220050309
 30
0.0
 10
40.48874892214288
 20
-74.95103841660825
 30
0.0
 10
40.40240201704712
 20
-75.18478726099101
 30
0.0
 10
40.28988486623749
 20
-75.40371020335661
 30
0.0
 10
40.25674618040393
 20
-75.46737906802807
 30
0.0
 10
40.21575003267611
 20
-75.54238695291167
 30
0.0
 10
40.15818720377313
 20
-75.57727706487165
 30
0.0
 10
40.02735726914647
 20
-75.65577183155706
 30
0.0
 10
39.97502210120521
 20
-75.78486098702446
 30
0.0
 10
39.90437414944499
 20
-75.90435190143832
 30
0.0
 10
39.86774325832573
 20
-75.96802076610784
 30
0.0
 10
39.83634535165144
 20
-76.04652085627778
 30
0.0
 10
39.77965025058551
 20
-76.08402479871926
 30
0.0
 10
39.63922739838986
 20
-76.17647773958286
 30
0.0
 10
39.56247341086309
 20
-76.31079455601197
 30
0.0
 10
39.48048643889134
 20
-76.44947662904964
 30
0.0
 10
39.44472327560913
 20
-76.50878556059706
 30
0.0
 10
39.3766944778143
 20
-76.5489033335194
 30
0.0
 10
39.32436463335694
 20
-76.59774629617304
 30
0.0
 10
39.29034757271853
 20
-76.63002257765282
 30
0.0
 10
39.24673759450922
 20
-76.65706055120437
 30
0.0
 10
39.22580565672614
 20
-76.69543754496679
 30
0.0
 10
39.15428465364562
 20
-76.82713520743179
 30
0.0
 10
39.0688054763869
 20
-76.93965235823949
 30
0.0
 10
38.93623476260096
 20
-77.02251238153474
 30
0.0
 10
38.87430667708942
 20
-77.06088937529653
 30
0.0
 10
38.85424779062794
 20
-77.16816821817601
 30
0.0
 10
38.79231970511833
 20
-77.20915904241993
 30
0.0
 10
38.60392694158676
 20
-77.33301521344171
 30
0.0
 10
38.51321477988308
 20
-77.56065802205664
 30
0.0
 10
38.30039787328466
 20
-77.65572479340239
 30
0.0
 10
38.28382586862626
 20
-77.66270388049052
 30
0.0
 10
38.27510600237757
 20
-77.68538192091611
 30
0.0
 10
38.26115315168328
 20
-77.69933477161043
 30
0.0
 10
38.11811114552222
 20
-77.84673671089549
 30
0.0
 10
37.98117517512773
 20
-78.00111773727063
 30
0.0
 10
37.82941330271862
 20
-78.13805370766448
 30
0.0
 10
37.74655327942465
 20
-78.21306159254809
 30
0.0
 10
37.65497338988264
 20
-78.27673045721954
 30
0.0
 10
37.57036726394551
 20
-78.35087061426289
 30
0.0
 10
37.35580957818655
 20
-78.53752259863454
 30
0.0
 10
37.11682774935945
 20
-78.6962635581337
 30
0.0
 10
36.89005266858221
 20
-78.87070347096905
 30
0.0
 10
36.75922273395554
 20
-78.97100322675846
 30
0.0
 10
36.63537188641765
 20
-79.08177427492429
 30
0.0
 10
36.50279584914782
 20
-79.18207403071562
 30
0.0
 10
36.3981308367492
 20
-79.26144717220715
 30
0.0
 10
36.28736511206727
 20
-79.3312220726445
 30
0.0
 10
36.17746711522368
 20
-79.40361612704662
 30
0.0
 10
35.93848528639595
 20
-79.55973793257975
 30
0.0
 10
35.70473644201383
 20
-79.72458492784674
 30
0.0
 10
35.45790247477509
 20
-79.86675388268619
 30
0.0
 10
35.13693367397626
 20
-80.05340586705592
 30
0.0
 10
34.80811273476579
 20
-80.22871350773089
 30
0.0
 10
34.47667796507445
 20
-80.39617965696006
 30
0.0
 10
34.15744994343425
 20
-80.55840749826165
 30
0.0
 10
33.8329942608317
 20
-80.71191547331457
 30
0.0
 10
33.50504637294281
 20
-80.85669825863616
 30
0.0
 10
33.1526796654684
 20
-81.01195233633097
 30
0.0
 10
32.79943990667305
 20
-81.16807414186601
 30
0.0
 10
32.43660190682354
 20
-81.29629024601182
 30
0.0
 10
31.96910421805994
 20
-81.4628780204368
 30
0.0
 10
31.49724127268776
 20
-81.62074592861438
 30
0.0
 10
31.01840456371136
 20
-81.74808898143796
 30
0.0
 10
30.44536881122754
 20
-81.90072390516929
 30
0.0
 10
29.86623234645979
 20
-82.02980773715278
 30
0.0
 10
29.28447672772761
 20
-82.14581176976421
 30
0.0
 10
28.89460075432815
 20
-82.22430653645025
 30
0.0
 10
28.49600491468031
 20
-82.26617573549965
 30
0.0
 10
28.10090128031882
 20
-82.32112473392177
 30
0.0
 10
27.83226232397607
 20
-82.35775562504104
 30
0.0
 10
27.56362336763364
 20
-82.40049255192941
 30
0.0
 10
27.29324363213129
 20
-82.4205514383909
 30
0.0
 10
26.99756670223892
 20
-82.44235642749492
 30
0.0
 10
26.70101672102432
 20
-82.43886954569312
 30
0.0
 10
26.40447206329394
 20
-82.45195466854843
 30
0.0
 10
26.22915909913637
 20
-82.4598014834749
 30
0.0
 10
26.05384613497912
 20
-82.47811959077713
 30
0.0
 10
25.87853317082188
 20
-82.49294549279237
 30
0.0
 10
25.86545337144948
 20
-82.49381854411458
 30
0.0
 10
25.85149519727129
 20
-82.50079763120274
 30
0.0
 10
25.83928844922048
 20
-82.49992457988307
 30
0.0
 10
25.6351914088698
 20
-82.48509335438264
 30
0.0
 10
25.43109436851848
 20
-82.46939440104517
 30
0.0
 10
25.22700265165234
 20
-82.45631460167311
 30
0.0
 10
25.17466748371076
 20
-82.45282239638678
 30
0.0
 10
25.12146458793213
 20
-82.4598014834749
 30
0.0
 10
25.06913474347508
 20
-82.46328836527863
 30
0.0
 10
25.02901164706821
 20
-82.46678057056497
 30
0.0
 10
24.9871477715027
 20
-82.48509335438264
 30
0.0
 10
24.95138460822049
 20
-82.4763734881346
 30
0.0
 10
24.82055467359318
 20
-82.44584863278126
 30
0.0
 10
24.69147084161001
 20
-82.41444540262305
 30
0.0
 10
24.55889480433953
 20
-82.46416141659892
 30
0.0
 10
24.31206616058533
 20
-82.37170847573533
 30
0.0
 10
24.04866018868851
 20
-82.42665747415937
 30
0.0
 10
23.79397940652363
 20
-82.38304749594941
 30
0.0
 10
23.58900931485169
 20
-82.3472896561511
 30
0.0
 10
23.37445162909305
 20
-82.32199246175946
 30
0.0
 10
23.16512160429644
 20
-82.31501869815522
 30
0.0
 10
22.99591467590671
 20
-82.30891266238741
 30
0.0
 10
22.83455988592669
 20
-82.29670059085364
 30
0.0
 10
22.67581892642786
 20
-82.23739165930622
 30
0.0
 10
22.64442101975388
 20
-82.22605263909342
 30
0.0
 10
22.60865785647135
 20
-82.21645972152378
 30
0.0
 10
22.57725994979706
 20
-82.22081965464781
 30
0.0
 10
22.31124014741939
 20
-82.25134450999988
 30
0.0
 10
22.07051221594849
 20
-82.10394257071417
 30
0.0
 10
21.81583143378361
 20
-82.10481562203639
 30
0.0
 10
21.49137042769748
 20
-82.10481562203639
 30
0.0
 10
21.21488465642794
 20
-81.91118987406115
 30
0.0
 10
20.8982757887525
 20
-81.91467675586357
 30
0.0
 10
20.59213288996826
 20
-81.91816363766539
 30
0.0
 10
20.34093898960583
 20
-81.73936379170667
 30
0.0
 10
20.05398724944507
 20
-81.6818009628024
 30
0.0
 10
19.84465722464846
 20
-81.63993708723625
 30
0.0
 10
19.63620025117344
 20
-81.59196185242095
 30
0.0
 10
19.42774860118263
 20
-81.54573804373141
 30
0.0
 10
19.38239252033079
 20
-81.5361451261605
 30
0.0
 10
19.33529566031871
 20
-81.52654688510697
 30
0.0
 10
19.29255873343162
 20
-81.5099748804492
 30
0.0
 10
18.49798088461681
 20
-81.20296425382599
 30
0.0
 10
17.70253530796399
 20
-80.89769440636334
 30
0.0
 10
16.90970888527625
 20
-80.58631852313352
 30
0.0
 10
16.62275182163192
 20
-80.47380137232517
 30
0.0
 10
16.33841391195203
 20
-80.3534427300736
 30
0.0
 10
16.05931431020164
 20
-80.22261279544695
 30
0.0
 10
15.92761132425307
 20
-80.16068470993541
 30
0.0
 10
15.8159672247663
 20
-80.05863885150153
 30
0.0
 10
15.68688339278249
 20
-79.98885862758029
 30
0.0
 10
15.48191862459412
 20
-79.87809290289836
 30
0.0
 10
15.26910171799475
 20
-79.78040697758851
 30
0.0
 10
15.06151779584131
 20
-79.67312281122706
 30
0.0
 10
14.97342478810205
 20
-79.62689900253753
 30
0.0
 10
14.89143781612967
 20
-79.56933085015002
 30
0.0
 10
14.80596396235485
 20
-79.51787405701423
 30
0.0
 10
14.64024391576788
 20
-79.4184420290625
 30
0.0
 10
14.47278309002035
 20
-79.32075610375266
 30
0.0
 10
14.30793609475464
 20
-79.219583296641
 30
0.0
 10
14.21809698437222
 20
-79.16463429821954
 30
0.0
 10
14.13175007927581
 20
-79.10357926402958
 30
0.0
 10
14.04365707153623
 20
-79.04601111164208
 30
0.0
 10
13.93289134685463
 20
-78.97274932940227
 30
0.0
 10
13.82037419604597
 20
-78.90035527500081
 30
0.0
 10
13.71048152268531
 20
-78.82622044143878
 30
0.0
 10
13.61715553050045
 20
-78.76341930460502
 30
0.0
 10
13.52557031747422
 20
-78.69887738861392
 30
0.0
 10
13.43311737661062
 20
-78.63433547262217
 30
0.0
 10
13.35636338908448
 20
-78.58113257684386
 30
0.0
 10
13.28135550420119
 20
-78.52618357842239
 30
0.0
 10
13.20372846535316
 20
-78.47384841048048
 30
0.0
 10
13.09470351983051
 20
-78.40058662824069
 30
0.0
 10
12.9595136520795
 20
-78.36308268579919
 30
0.0
 10
12.88886570032056
 20
-78.23573963297369
 30
0.0
 10
12.87752668010776
 20
-78.2148076951919
 30
0.0
 10
12.8487479273979
 20
-78.20172257233529
 30
0.0
 10
12.82694293829324
 20
-78.18602361899782
 30
0.0
 10
12.67081580927558
 20
-78.07699867347581
 30
0.0
 10
12.51469400374181
 20
-77.96710067663095
 30
0.0
 10
12.3489739571542
 20
-77.85110196750341
 30
0.0
 10
11.97828914237822
 20
-78.21218854122587
 30
0.0
 10
11.60324439447757
 20
-78.57676732023595
 30
0.0
 10
11.22907269789915
 20
-78.94135142272798
 30
0.0
 10
10.6394649407566
 20
-79.51612795437171
 30
0.0
 10
10.05073023493596
 20
-80.09090980949741
 30
0.0
 10
9.461122477793102
 20
-80.66568634114114
 30
0.0
 10
9.202081762504521
 20
-80.91862634414578
 30
0.0
 10
8.938675790607701
 20
-81.16720109054442
 30
0.0
 10
8.684862736280834
 20
-81.42450102667309
 30
0.0
 10
8.588049862292889
 20
-81.52218695198294
 30
0.0
 10
8.487750106502504
 20
-81.57452211992421
 30
0.0
 10
8.348194982143894
 20
-81.5657969301929
 30
0.0
 10
8.272314045938703
 20
-81.56056394574665
 30
0.0
 10
8.194687007090344
 20
-81.58149588352909
 30
0.0
 10
8.117933019564532
 20
-81.59458100638442
 30
0.0
 10
7.907735266929913
 20
-81.62946579486243
 30
0.0
 10
7.623397357250018
 20
-81.459391138635
 30
0.0
 10
7.535304349510443
 20
-81.26750616981839
 30
0.0
 10
7.495186576588103
 20
-81.18028621340039
 30
0.0
 10
7.516118514370857
 20
-81.11312514344325
 30
0.0
 10
7.548389472366732
 20
-81.04247719168496
 30
0.0
 10
7.722829385202715
 20
-80.66830549510653
 30
0.0
 10
7.899015400681544
 20
-80.29500152636451
 30
0.0
 10
8.075196092676799
 20
-79.92170288110831
 30
0.0
 10
8.285399168794992
 20
-79.47513713012586
 30
0.0
 10
8.494723870107385
 20
-79.02769832782374
 30
0.0
 10
8.705799997547162
 20
-78.58113257684386
 30
0.0
 10
9.059912807664735
 20
-77.83365691152342
 30
0.0
 10
9.415766396941259
 20
-77.08705429752649
 30
0.0
 10
9.769879207058512
 20
-76.34045168352827
 30
0.0
 10
9.850125399871302
 20
-76.17124475513854
 30
0.0
 10
9.928620166557349
 20
-76.00029172410565
 30
0.0
 10
10.00712025672697
 20
-75.8302117443924
 30
0.0
 10
10.04637030181162
 20
-75.74561094194044
 30
0.0
 10
10.04985718361438
 20
-75.67844987198331
 30
0.0
 10
9.970489365607072
 20
-75.59908205397568
 30
0.0
 10
9.836167225693751
 20
-75.46388686274173
 30
0.0
 10
9.733248315938293
 20
-75.29729908831481
 30
0.0
 10
9.59718539686634
 20
-75.1629822718857
 30
0.0
 10
9.435830606886325
 20
-75.00424131238784
 30
0.0
 10
9.301508466973002
 20
-74.8254414664272
 30
0.0
 10
9.166318599221991
 20
-74.64489551782401
 30
0.0
 10
9.022408865222931
 20
-74.45388360033027
 30
0.0
 10
8.863667905724415
 20
-74.27421070304932
 30
0.0
 10
8.725858884008331
 20
-74.07883885243027
 30
0.0
 10
8.490363936983682
 20
-73.74565798009576
 30
0.0
 10
8.263594179690334
 20
-73.40724412331501
 30
0.0
 10
8.039438252878163
 20
-73.06708416389238
 30
0.0
 10
7.587639517451703
 20
-72.37891743011807
 30
0.0
 10
7.199509646694767
 20
-71.65499285654675
 30
0.0
 10
6.863714943879732
 20
-70.9031572581023
 30
0.0
 10
6.756430777516997
 20
-70.6624293266314
 30
0.0
 10
6.631706878657202
 20
-70.42780743092833
 30
0.0
 10
6.539253937793281
 20
-70.18010573585191
 30
0.0
 10
6.402317967399423
 20
-69.8102939723975
 30
0.0
 10
6.242703956579323
 20
-69.44745597254928
 30
0.0
 10
6.142404200788617
 20
-69.062818307079
 30
0.0
 10
6.061290280138139
 20
-68.75144242384786
 30
0.0
 10
5.94092631440301
 20
-68.45053250950924
 30
0.0
 10
5.855447137144292
 20
-68.14002967760034
 30
0.0
 10
5.793524375117294
 20
-67.91151381766511
 30
0.0
 10
5.760380365799836
 20
-67.67601887064046
 30
0.0
 10
5.712410454466494
 20
-67.4440161289015
 30
0.0
 10
5.68013949647062
 20
-67.29050815384795
 30
0.0
 10
5.642635554028816
 20
-67.13874628143885
 30
0.0
 10
5.610359272549367
 20
-66.98523830638531
 30
0.0
 10
5.585067401642269
 20
-66.86225518668639
 30
0.0
 10
5.558902479413586
 20
-66.73840433914657
 30
0.0
 10
5.544076577398346
 20
-66.61368044028709
 30
0.0
 10
5.525758470096128
 20
-66.45755863475462
 30
0.0
 10
5.525758470096128
 20
-66.29794462393516
 30
0.0
 10
5.504826532313375
 20
-66.14182281840012
 30
0.0
 10
5.482148491886811
 20
-65.96738290556413
 30
0.0
 10
5.443771498123745
 20
-65.79555682320901
 30
0.0
 10
5.414987421930311
 20
-65.62198996169525
 30
0.0
 10
5.409754437485023
 20
-65.59059205501966
 30
0.0
 10
5.414987421930311
 20
-65.55744804570413
 30
0.0
 10
5.419347355054656
 20
-65.52517708770762
 30
0.0
 10
5.423712611662575
 20
-65.49203307839016
 30
0.0
 10
5.439411564999721
 20
-65.45888906907207
 30
0.0
 10
5.436792411034969
 20
-65.42749116239907
 30
0.0
 10
5.419347355054656
 20
-65.24258528067122
 30
0.0
 10
5.397542365950318
 20
-65.05854712678234
 30
0.0
 10
5.379229582131996
 20
-64.87364124505322
 30
0.0
 10
5.374869649007972
 20
-64.82829048768528
 30
0.0
 10
5.375737376845981
 20
-64.78118830419027
 30
0.0
 10
5.373996597686388
 20
-64.73496449550009
 30
0.0
 10
5.372250495043219
 20
-64.65646440533079
 30
0.0
 10
5.369636664562042
 20
-64.57796431516086
 30
0.0
 10
5.367017510597611
 20
-64.4994695484748
 30
0.0
 10
5.364403680116434
 20
-64.43928756560707
 30
0.0
 10
5.34433947017169
 20
-64.37212649565186
 30
0.0
 10
5.365271407954444
 20
-64.32153743035377
 30
0.0
 10
5.401034571236333
 20
-64.23257669477585
 30
0.0
 10
5.361784526151683
 20
-64.15058972280476
 30
0.0
 10
5.368763613240458
 20
-64.06860275083109
 30
0.0
 10
5.390568602344796
 20
-63.82089573227142
 30
0.0
 10
5.365271407954444
 20
-63.57057488323153
 30
0.0
 10
5.410627488806286
 20
-63.32461396731374
 30
0.0
 10
5.417606575895383
 20
-63.28449619439204
 30
0.0
 10
5.440284616321305
 20
-63.24175926750495
 30
0.0
 10
5.429818647429767
 20
-63.20686915554496
 30
0.0
 10
5.376610428167565
 20
-63.01585723804993
 30
0.0
 10
5.467322589871571
 20
-62.83705739208929
 30
0.0
 10
5.469936420352428
 20
-62.65738449480769
 30
0.0
 10
5.472555574317179
 20
-62.41927039381764
 30
0.0
 10
5.516165552526495
 20
-62.19860667229213
 30
0.0
 10
5.575474484072316
 20
-61.97270464283712
 30
0.0
 10
5.612105375192214
 20
-61.83490094460493
 30
0.0
 10
5.570241499626708
 20
-61.67528693378547
 30
0.0
 10
5.614724529156966
 20
-61.54183784519341
 30
0.0
 10
5.694965398486181
 20
-61.30024218588483
 30
0.0
 10
5.734215443570832
 20
-61.05689510044918
 30
0.0
 10
5.766486401567028
 20
-60.80570120008769
 30
0.0
 10
5.785672236706613
 20
-60.65045244587359
 30
0.0
 10
5.853706357984698
 20
-60.49869057346449
 30
0.0
 10
5.909528407728399
 20
-60.34866948021402
 30
0.0
 10
5.988023174414446
 20
-60.13672562493592
 30
0.0
 10
6.049951259925018
 20
-59.92216793917888
 30
0.0
 10
6.094434289455918
 20
-59.69887974020473
 30
0.0
 10
6.144150303432106
 20
-59.45205109644923
 30
0.0
 10
6.234857141652216
 20
-59.21045011365804
 30
0.0
 10
6.330796964318898
 20
-58.97582821795369
 30
0.0
 10
7.278877464702398
 20
-56.6714784599673
 30
0.0
 10
8.229577119051292
 20
-54.36799642981988
 30
0.0
 10
9.183763655202303
 20
-52.06626582579954
 30
0.0
 10
10.15452219601269
 20
-49.72615290453157
 30
0.0
 10
11.13138677258994
 20
-47.38865913722836
 30
0.0
 10
12.10563219520244
 20
-45.05029231860357
 30
0.0
 10
13.12348759602394
 20
-42.60638743625889
 30
0.0
 10
14.14134299684544
 20
-40.16248255391422
 30
0.0
 10
15.16007677247242
 20
-37.71858299505344
 30
0.0
 10
16.46052398033065
 20
-34.5995965017914
 30
0.0
 10
17.76271729083172
 20
-31.47973695720841
 30
0.0
 10
19.06316982217352
 20
-28.36075578743026
 30
0.0
 10
19.9545552214927
 20
-26.22037464990538
 30
0.0
 10
20.8433267903307
 20
-24.07912578454217
 30
0.0
 10
21.73907744625716
 20
-21.94136380098205
 30
0.0
 10
21.88822016470215
 20
-21.58376410906203
 30
0.0
 10
22.06353312885971
 20
-21.23575733471197
 30
0.0
 10
22.2362322625361
 20
-20.88861828819928
 30
0.0
 10
22.30338800900871
 20
-20.75342842044859
 30
0.0
 10
22.40717997008575
 20
-20.63742438783749
 30
0.0
 10
22.47957402448786
 20
-20.50398062272964
 30
0.0
 10
22.56592092958426
 20
-20.34611271455271
 30
0.0
 10
22.62872206641674
 20
-20.17428663219758
 30
0.0
 10
22.71768280199401
 20
-20.01816482666382
 30
0.0
 10
22.80664886105484
 20
-19.86204302113005
 30
0.0
 10
22.91480075525591
 20
-19.71725491232519
 30
0.0
 10
23.01597356236756
 20
-19.56810687039663
 30
0.0
 10
23.06743567898723
 20
-19.49222593419144
 30
0.0
 10
23.13372369762183
 20
-19.42419713639693
 30
0.0
 10
23.17384679402806
 20
-19.34221016442487
 30
0.0
 10
23.27153271933791
 20
-19.1433461085198
 30
0.0
 10
23.36049345491486
 20
-18.94186822213419
 30
0.0
 10
23.55237842373115
 20
-18.81017055966919
 30
0.0
 10
23.57331036151423
 20
-18.79621238549132
 30
0.0
 10
23.58639548437019
 20
-18.77004746326296
 30
0.0
 10
23.59947528374291
 20
-18.74736942283703
 30
0.0
 10
23.64221753411389
 20
-18.67148848663185
 30
0.0
 10
23.66925550766416
 20
-18.5816493762491
 30
0.0
 10
23.72769138788872
 20
-18.5214673933817
 30
0.0
 10
23.92829622295338
 20
-18.3112696407474
 30
0.0
 10
24.0730843317576
 20
-18.05309665329619
 30
0.0
 10
24.29113422280226
 20
-17.85859785399871
 30
0.0
 10
24.33037894440366
 20
-17.82370774203809
 30
0.0
 10
24.38096800970143
 20
-17.78794990223977
 30
0.0
 10
24.39841306568174
 20
-17.74259382138761
 30
0.0
 10
24.44986985881752
 20
-17.60827700495818
 30
0.0
 10
24.55192104073465
 20
-17.52890918695087
 30
0.0
 10
24.66268676541689
 20
-17.45215519942442
 30
0.0
 10
24.69932298002036
 20
-17.42773105635533
 30
0.0
 10
24.72461485092746
 20
-17.38412107814601
 30
0.0
 10
24.75165282447741
 20
-17.34661713570485
 30
0.0
 10
24.77084398310121
 20
-17.31957916215426
 30
0.0
 10
24.77694469538483
 20
-17.28120216839087
 30
0.0
 10
24.79962273581075
 20
-17.25939717928654
 30
0.0
 10
24.95574986482841
 20
-17.10938140951996
 30
0.0
 10
25.11449082432724
 20
-16.96197947023457
 30
0.0
 10
25.27322646034219
 20
-16.81457753094853
 30
0.0
 10
25.41365463602238
 20
-16.68287454500028
 30
0.0
 10
25.55669131870018
 20
-16.55378538953289
 30
0.0
 10
25.69886027353997
 20
-16.42382850622781
 30
0.0
 10
25.75119544148058
 20
-16.37585859489447
 30
0.0
 10
25.80177918329511
 20
-16.32526952959669
 30
0.0
 10
25.85586045387921
 20
-16.27991877222842
 30
0.0
 10
25.98755811634389
 20
-16.1708938267061
 30
0.0
 10
26.12100720493562
 20
-16.06274193250503
 30
0.0
 10
26.25445097004347
 20
-15.95545776614198
 30
0.0
 10
26.40359901197203
 20
-15.83422074908494
 30
0.0
 10
26.55187400257933
 20
-15.71298905551213
 30
0.0
 10
26.70276282366781
 20
-15.59349814109794
 30
0.0
 10
26.7864958982824
 20
-15.52721012246302
 30
0.0
 10
26.87284280337945
 20
-15.46440898563054
 30
0.0
 10
26.95831665715395
 20
-15.39986706963912
 30
0.0
 10
27.09525262754813
 20
-15.2960751085624
 30
0.0
 10
27.22695561349638
 20
-15.18443633255889
 30
0.0
 10
27.36999761965807
 20
-15.08849118640863
 30
0.0
 10
27.56711557291998
 20
-14.95766125178197
 30
0.0
 10
27.77120728978708
 20
-14.83642423472493
 30
0.0
 10
27.97443127881618
 20
-14.71431948982989
 30
0.0
 10
28.17154923207808
 20
-14.59570162673793
 30
0.0
 10
28.36866718533966
 20
-14.47795149148334
 30
0.0
 10
28.57014507172559
 20
-14.36543966415857
 30
0.0
 10
28.78208892700337
 20
-14.2476895289043
 30
0.0
 10
28.9966466127617
 20
-14.13343159893604
 30
0.0
 10
29.21295572464708
 20
-14.02353892557538
 30
0.0
 10
29.46153047104477
 20
-13.89794197539464
 30
0.0
 10
29.71010521744245
 20
-13.76972587124851
 30
0.0
 10
29.9656590509286
 20
-13.65895482308302
 30
0.0
 10
30.3503020398818
 20
-13.49149399733645
 30
0.0
 10
30.73843191063906
 20
-13.33101225867834
 30
0.0
 10
31.13092171451906
 20
-13.18361031939294
 30
0.0
 10
31.46235648421103
 20
-13.05975414837084
 30
0.0
 10
31.80338417147135
 20
-12.96206822306163
 30
0.0
 10
32.13831114644967
 20
-12.84781029309337
 30
0.0
 10
32.57441092853898
 20
-12.69866757464839
 30
0.0
 10
33.02272278216332
 20
-12.5931295109285
 30
0.0
 10
33.47102931230376
 20
-12.49021060117336
 30
0.0
 10
33.68559232154598
 20
-12.44049458719717
 30
0.0
 10
33.89928227946597
 20
-12.38729169141854
 30
0.0
 10
34.1155860678681
 20
-12.34716859501199
 30
0.0
 10
34.37549983447891
 20
-12.29919868367865
 30
0.0
 10
34.63803275505383
 20
-12.26343552039708
 30
0.0
 10
34.89881957298557
 20
-12.22069859350902
 30
0.0
 10
34.93719656674929
 20
-12.21372482990414
 30
0.0
 10
34.97295973003149
 20
-12.19104678947822
 30
0.0
 10
35.01220977511679
 20
-12.18581380503229
 30
0.0
 10
35.24769939865818
 20
-12.15702972883886
 30
0.0
 10
35.48319434568283
 20
-12.1308648066105
 30
0.0
 10
35.71868929270812
 20
-12.10469988438181
 30
0.0
 10
35.88964232374102
 20
-12.08550872575801
 30
0.0
 10
36.06146308261226
 20
-12.04538562935178
 30
0.0
 10
36.23154306232357
 20
-12.05411081908404
 30
0.0
 10
36.41121595960452
 20
-12.06370373665368
 30
0.0
 10
36.58216899063806
 20
-12.00439480510754
 30
0.0
 10
36.76532876972274
 20
-12.02968667601495
 30
0.0
 10
36.93191654414836
 20
-12.05323776776214
 30
0.0
 10
37.10810255962751
 20
-12.00962778955346
 30
0.0
 10
37.27992864198199
 20
-11.99567493885949
 30
0.0
 10
37.33836452220655
 20
-11.99130968225157
 30
0.0
 10
37.39680040243047
 20
-11.98694974912722
 30
0.0
 10
37.49274554858104
 20
-11.97997066203845
 30
0.0
 10
37.58432543812306
 20
-11.83954780984183
 30
0.0
 10
37.69422343496729
 20
-11.6747008145758
 30
0.0
 10
37.80062922652455
 20
-11.50811304015017
 30
0.0
 10
37.98292127777089
 20
-11.22290207914902
 30
0.0
 10
38.16433495421239
 20
-10.93682339030985
 30
0.0
 10
38.34400785149398
 20
-10.64986632666552
 30
0.0
 10
38.50187575967092
 20
-10.39605859582191
 30
0.0
 10
38.65451068340224
 20
-10.1387586596926
 30
0.0
 10
38.81499774554393
 20
-9.886691708008582
 30
0.0
 10
39.032174585267
 20
-9.545664020747619
 30
0.0
 10
39.25545746075727
 20
-9.209869317932263
 30
0.0
 10
39.47176657264265
 20
-8.868836307187082
 30
0.0
 10
39.62526922421231
 20
-8.628108375715862
 30
0.0
 10
39.76743817905177
 20
-8.380406680640403
 30
0.0
 10
39.92181920542626
 20
-8.140551800491087
 30
0.0
 10
40.03345798142976
 20
-7.967852666814699
 30
0.0
 10
40.15469499848616
 20
-7.802137943710659
 30
0.0
 10
40.27680506686542
 20
-7.637290948444951
 30
0.0
 10
40.30209693777251
 20
-7.603273887805909
 30
0.0
 10
40.34745301862436
 20
-7.56926215065044
 30
0.0
 10
40.38844384286892
 20
-7.561410012240401
 30
0.0
 10
40.55067700765313
 20
-7.528266002922622
 30
0.0
 10
40.71290484895473
 20
-7.470703174019649
 30
0.0
 10
40.8821117773451
 20
-7.517800034031085
 30
0.0
 10
40.90827669957315
 20
-7.525652172441766
 30
0.0
 10
40.93531467312341
 20
-7.528266002922622
 30
0.0
 10
40.96147959535274
 20
-7.532625936046968
 30
0.0
 10
41.39147334167486
 20
-7.59455402155786
 30
0.0
 10
41.8223401393192
 20
-7.652116850460513
 30
0.0
 10
42.251466157803
 20
-7.719277920417334
 30
0.0
 10
42.39537589180174
 20
-7.741955960843255
 30
0.0
 10
42.53405796484005
 20
-7.797778010586956
 30
0.0
 10
42.67884075016101
 20
-7.82219683017215
 30
0.0
 10
42.8567728682827
 20
-7.851853957686847
 30
0.0
 10
43.04254647784758
 20
-7.843128767955224
 30
0.0
 10
43.21611866284587
 20
-7.888484848807387
 30
0.0
 10
43.46992639368949
 20
-7.9538998161204
 30
0.0
 10
43.72112029405032
 20
-8.016700952953518
 30
0.0
 10
43.98626704510737
 20
-8.006229660577766
 30
0.0
 10
43.99935216796334
 20
-8.005361932739756
 30
0.0
 10
44.01330501865699
 20
-8.008848814542837
 30
0.0
 10
44.02551709019202
 20
-8.014081798988446
 30
0.0
 10
44.29415604653478
 20
-8.137932646526335
 30
0.0
 10
44.58721382246304
 20
-8.127466677634799
 30
0.0
 10
44.87155173214325
 20
-8.169335876684842
 30
0.0
 10
44.96923765745182
 20
-8.184161778700083
 30
0.0
 10
45.06343670095795
 20
-8.229512536068352
 30
0.0
 10
45.16112262626779
 20
-8.246084540727402
 30
0.0
 10
45.29369866353827
 20
-8.268762581153323
 30
0.0
 10
45.42801547996737
 20
-8.276614719563362
 30
0.0
 10
45.56145924507618
 20
-8.292313672900828
 30
0.0
 10
45.65391218593979
 20
-8.303652693113949
 30
0.0
 10
45.75596336785627
 20
-8.298419708668021
 30
0.0
 10
45.83707728850643
 20
-8.336796702431408
 30
0.0
 10
46.01936401627016
 20
-8.423143607527494
 30
0.0
 10
46.2129950877293
 20
-8.414423741279446
 30
0.0
 10
46.40400700522305
 20
-8.437969509543377
 30
0.0
 10
46.52262486831597
 20
-8.451927683720608
 30
0.0
 10
46.63950195224834
 20
-8.482452539073955
 30
0.0
 10
46.75724676401904
 20
-8.507744409981054
 30
0.0
 10
46.83487380286676
 20
-8.524316414639462
 30
0.0
 10
46.91162779039418
 20
-8.559206526600089
 30
0.0
 10
46.989249505758
 20
-8.560079577921994
 30
0.0
 10
47.28754558961512
 20
-8.564439511045698
 30
0.0
 10
47.57275122713302
 20
-8.639447395929625
 30
0.0
 10
47.85883523945641
 20
-8.709222296366982
 30
0.0
 10
47.93646227830349
 20
-8.728413454990464
 30
0.0
 10
48.01932230159682
 20
-8.723180470544534
 30
0.0
 10
48.09869011960444
 20
-8.732773388114488
 30
0.0
 10
48.20509591116298
 20
-8.744985459648871
 30
0.0
 10
48.31848611329355
 20
-8.740625526525169
 30
0.0
 10
48.41442593595895
 20
-8.77812946896633
 30
0.0
 10
48.61328999186434
 20
-8.855756507814689
 30
0.0
 10
48.81825476005367
 20
-8.862730271419891
 30
0.0
 10
49.02409257956331
 20
-8.877561496919026
 30
0.0
 10
49.11043948465971
 20
-8.883662209202965
 30
0.0
 10
49.19504561059556
 20
-8.908959403593318
 30
0.0
 10
49.27964641304945
 20
-8.929018290054807
 30
0.0
 10
49.37123162607536
 20
-8.950823279159466
 30
0.0
 10
49.46019236165263
 20
-8.991819426887284
 30
0.0
 10
49.55264530251621
 20
-8.997052411332893
 30
0.0
 10
49.82826334594711
 20
-9.012751364670359
 30
0.0
 10
50.09777003012818
 20
-9.059848224681795
 30
0.0
 10
50.36466288382777
 20
-9.130496176440736
 30
0.0
 10
50.47979386511697
 20
-9.161026355277337
 30
0.0
 10
50.6036447126555
 20
-9.15579337083173
 30
0.0
 10
50.72314095055325
 20
-9.169746221525386
 30
0.0
 10
50.80250876856089
 20
-9.179339139095661
 30
0.0
 10
50.88972872497824
 20
-9.174979205971315
 30
0.0
 10
50.95775752277243
 20
-9.208123215288773
 30
0.0
 10
51.14004957401942
 20
-9.298830053509526
 30
0.0
 10
51.33368064547855
 20
-9.290983238582741
 30
0.0
 10
51.52643334213157
 20
-9.308428294563054
 30
0.0
 10
51.62586537008523
 20
-9.317148160811745
 30
0.0
 10
51.73227116164249
 20
-9.319761991292601
 30
0.0
 10
51.82211027202523
 20
-9.356398205895754
 30
0.0
 10
52.01312218951962
 20
-9.435766023903385
 30
0.0
 10
52.21198092194113
 20
-9.447105044116185
 30
0.0
 10
52.41171802916746
 20
-9.461930946132389
 30
0.0
 10
52.41782406493401
 20
-9.462803997453651
 30
0.0
 10
52.42567087986175
 20
-9.460190166972795
 30
0.0
 10
52.43177691562895
 20
-9.461930946132389
 30
0.0
 10
52.8216528890281
 20
-9.587527896313124
 30
0.0
 10
53.23768846117266
 20
-9.572701994297885
 30
0.0
 10
53.63017826505394
 20
-9.686959924265821
 30
0.0
 10
53.76973338941255
 20
-9.727083020672056
 30
0.0
 10
53.92149526182166
 20
-9.727083020672056
 30
0.0
 10
54.0671510984642
 20
-9.747141907133546
 30
0.0
 10
54.1787951979516
 20
-9.762840860470371
 30
0.0
 10
54.29218007659827
 20
-9.777666762486575
 30
0.0
 10
54.40294580128084
 20
-9.79947175159091
 30
0.0
 10
54.54773391008377
 20
-9.828255827784346
 30
0.0
 10
54.68902981360358
 20
-9.88495092884931
 30
0.0
 10
54.8338125989239
 20
-9.891056964616501
 30
0.0
 10
55.03180360350771
 20
-9.898030728221703
 30
0.0
 10
55.21845558787743
 20
-9.937280773306675
 30
0.0
 10
55.40684835140837
 20
-9.987869838604446
 30
0.0
 10
55.50366654887859
 20
-10.01403476083313
 30
0.0
 10
55.60571240731247
 20
-10.03758585258063
 30
0.0
 10
55.70427138394326
 20
-10.03496669861556
 30
0.0
 10
55.92668120811194
 20
-10.02886066284837
 30
0.0
 10
56.12553994053279
 20
-10.08904264571609
 30
0.0
 10
56.32004406331481
 20
-10.18934772499037
 30
0.0
 10
56.42470907571279
 20
-10.24342367209058
 30
0.0
 10
56.46221301815492
 20
-10.31494467517143
 30
0.0
 10
56.465699899958
 20
-10.42745650249652
 30
0.0
 10
56.47180593572454
 20
-10.63678652729313
 30
0.0
 10
56.37063312861226
 20
-10.79814131727218
 30
0.0
 10
56.24852306023428
 20
-10.95077624100351
 30
0.0
 10
55.91359608525661
 20
-11.36856323927514
 30
0.0
 10
55.57256839799565
 20
-11.78285803226044
 30
0.0
 10
55.2376414230167
 20
-12.20063970704818
 30
0.0
 10
54.45440791789923
 20
-13.17575818098226
 30
0.0
 10
53.67378824326197
 20
-14.15262275755952
 30
0.0
 10
52.89142778946544
 20
-15.12774123149361
 30
0.0
 10
52.45183580208916
 20
-15.67635284090801
 30
0.0
 10
52.00963530771719
 20
-16.22322367116314
 30
0.0
 10
51.56917026901931
 20
-16.77096755273986
 30
0.0
 10
51.55696352096946
 20
-16.78579345475542
 30
0.0
 10
51.54998443388005
 20
-16.80585234121659
 30
0.0
 10
51.53777236234566
 20
-16.82940343296441
 30
0.0
 10
51.56655643853845
 20
-16.9227294251496
 30
0.0
 10
51.64156432342206
 20
-16.97418621828538
 30
0.0
 10
51.72093214142905
 20
-17.026521386226
 30
0.0
 10
51.79245314451086
 20
-17.07274519491617
 30
0.0
 10
51.85612733266363
 20
-17.13118639862462
 30
0.0
 10
51.92154229997825
 20
-17.18613007356285
 30
0.0
 10
51.97735902623741
 20
-17.23235920573627
 30
0.0
 10
52.0314402968212
 20
-17.28207521971246
 30
0.0
 10
52.08725702308164
 20
-17.32829902840295
 30
0.0
 10
52.10732123302704
 20
-17.34487103306104
 30
0.0
 10
52.13522693441499
 20
-17.35446927411489
 30
0.0
 10
52.1535450417172
 20
-17.37278205793289
 30
0.0
 10
52.29310016607453
 20
-17.51233718229182
 30
0.0
 10
52.43003081298578
 20
-17.65537386496962
 30
0.0
 10
52.57132671650366
 20
-17.79405593800728
 30
0.0
 10
52.68471691863488
 20
-17.90482698617278
 30
0.0
 10
52.8042078330481
 20
-18.00948667508719
 30
0.0
 10
52.91671966037383
 20
-18.12200382589585
 30
0.0
 10
53.07371451722854
 20
-18.28074478539437
 30
0.0
 10
53.22634944095987
 20
-18.44471872933882
 30
0.0
 10
53.38160351865593
 20
-18.60432741667502
 30
0.0
 10
53.49237456682111
 20
-18.7185853466436
 30
0.0
 10
53.60663249679001
 20
-18.83022944613036
 30
0.0
 10
53.71652517014971
 20
-18.9453604274202
 30
0.0
 10
53.80723733185339
 20
-19.04042719876466
 30
0.0
 10
53.89794417007511
 20
-19.13637234491492
 30
0.0
 10
53.98080419336843
 20
-19.23754515202656
 30
0.0
 10
54.08110927264239
 20
-19.36052827172676
 30
0.0
 10
54.16832922905975
 20
-19.49397203683493
 30
0.0
 10
54.27037508749298
 20
-19.61520905389164
 30
0.0
 10
54.51284379812379
 20
-19.90390689669556
 30
0.0
 10
54.75269867827311
 20
-20.19435084214265
 30
0.0
 10
54.95854182126727
 20
-20.5135735402996
 30
0.0
 10
55.18182469675753
 20
-20.85896648416848
 30
0.0
 10
55.44958527829481
 20
-21.17731613100384
 30
0.0
 10
55.66066140573522
 20
-21.5296881619615
 30
0.0
 10
55.94412626409258
 20
-22.00154578384945
 30
0.0
 10
56.19706094361461
 20
-22.49259456436121
 30
0.0
 10
56.45436087974392
 20
-22.97928341174893
 30
0.0
 10
56.60961495743999
 20
-23.27234118767623
 30
0.0
 10
56.75352469143938
 20
-23.57237805069328
 30
0.0
 10
56.89395286711956
 20
-23.87328796503222
 30
0.0
 10
56.96634159803842
 20
-24.0285367192444
 30
0.0
 10
57.01954449381737
 20
-24.19338371451011
 30
0.0
 10
57.08409173329237
 20
-24.35387077665212
 30
0.0
 10
57.17654467415662
 20
-24.58761962103392
 30
0.0
 10
57.27946358391207
 20
-24.81787626012939
 30
0.0
 10
57.36319133504373
 20
-25.05511730979816
 30
0.0
 10
57.4320985076434
 20
-25.24700227861414
 30
0.0
 10
57.47744926501134
 20
-25.44760711367848
 30
0.0
 10
57.53676352004074
 20
-25.64385201561881
 30
0.0
 10
57.60741147180096
 20
-25.87585475735776
 30
0.0
 10
57.69113922293198
 20
-26.10437061729363
 30
0.0
 10
57.75132120579971
 20
-26.33899251299734
 30
0.0
 10
57.80976240950751
 20
-26.56838142425512
 30
0.0
 10
57.84552024930647
 20
-26.80387637128009
 30
0.0
 10
57.891744057996
 20
-27.03588443650262
 30
0.0
 10
57.91442209842288
 20
-27.15014236647088
 30
0.0
 10
57.94320617461632
 20
-27.26352724511755
 30
0.0
 10
57.96501116372033
 20
-27.37778517508581
 30
0.0
 10
58.02519314658869
 20
-27.69700787324211
 30
0.0
 10
58.07839604236701
 20
-28.01536284356105
 30
0.0
 10
58.09932798015072
 20
-28.33981852616393
 30
0.0
 10
58.10892622120297
 20
-28.49071267073566
 30
0.0
 10
58.15950996301781
 20
-28.63898233785907
 30
0.0
 10
58.17172203455219
 20
-28.7898764824308
 30
0.0
 10
58.18916709053219
 20
-28.9869944356927
 30
0.0
 10
58.18568020872974
 20
-29.18498011679261
 30
0.0
 10
58.19352702365557
 20
-29.38297112137578
 30
0.0
 10
58.20050611074627
 20
-29.553924152409
 30
0.0
 10
58.21184513095778
 20
-29.72399880863738
 30
0.0
 10
58.21881889456395
 20
-29.89495183967028
 30
0.0
 10
58.22318415117187
 20
-29.99874380074701
 30
0.0
 10
58.22231109984964
 20
-30.10253576182373
 30
0.0
 10
58.22579798165208
 20
-30.20632772290045
 30
0.0
 10
58.22754408429589
 20
-30.26302282396541
 30
0.0
 10
58.2327770687415
 20
-30.31971260154712
 30
0.0
 10
58.23801005318775
 20
-30.37553465129018
 30
0.0
 10
58.23888310450869
 20
-30.38861977414647
 30
0.0
 10
58.24934907339926
 20
-30.40169957351918
 30
0.0
 10
58.24847602207896
 20
-30.41391164505357
 30
0.0
 10
58.2327770687415
 20
-30.65812645832691
 30
0.0
 10
58.21795116672626
 20
-30.90146822027898
 30
0.0
 10
58.19963305942405
 20
-31.14481530571432
 30
0.0
  0
ENDSEC
  0
SECTION
  2
OBJECTS
  0
DICTIONARY
  5
C
330
0
100
AcDbDictionary
281
     1
  3
ACAD_COLOR
350
63
  3
ACAD_DETAILVIEWSTYLE
350
6A
  3
ACAD_GROUP
350
D
  3
ACAD_LAYOUT
350
62
  3
ACAD_MATERIAL
350
10
  3
ACAD_MLEADERSTYLE
350
66
  3
ACAD_MLINESTYLE
350
5F
  3
ACAD_PLOTSETTINGS
350
61
  3
ACAD_PLOTSTYLENAME
350
E
  3
ACAD_SCALELIST
350
42
  3
ACAD_SECTIONVIEWSTYLE
350
68
  3
ACAD_TABLESTYLE
350
64
  3
ACAD_VISUALSTYLE
350
29
  3
ACDB_RECOMPOSE_DATA
350
84
  3
AcDbVariableDictionary
350
7C
  0
DICTIONARY
  5
63
102
{ACAD_REACTORS
330
C
102
}
330
C
100
AcDbDictionary
281
     1
  0
DICTIONARY
  5
6A
102
{ACAD_REACTORS
330
C
102
}
330
C
100
AcDbDictionary
281
     1
  3
Imperial24
350
6B
  0
DICTIONARY
  5
D
102
{ACAD_REACTORS
330
C
102
}
330
C
100
AcDbDictionary
281
     1
  0
DICTIONARY
  5
62
102
{ACAD_REACTORS
330
C
102
}
330
C
100
AcDbDictionary
281
     1
  3
Layout1
350
6F
  3
Layout2
350
77
  3
Model
350
73
  0
DICTIONARY
  5
10
102
{ACAD_REACTORS
330
C
102
}
330
C
100
AcDbDictionary
281
     1
  3
ByBlock
350
19
  3
ByLayer
350
11
  3
Global
350
21
  0
DICTIONARY
  5
66
102
{ACAD_REACTORS
330
C
102
}
330
C
100
AcDbDictionary
281
     1
  3
Standard
350
67
  0
DICTIONARY
  5
5F
102
{ACAD_REACTORS
330
C
102
}
330
C
100
AcDbDictionary
281
     1
  3
Standard
350
60
  0
DICTIONARY
  5
61
102
{ACAD_REACTORS
330
C
102
}
330
C
100
AcDbDictionary
281
     1
  0
ACDBDICTIONARYWDFLT
  5
E
102
{ACAD_REACTORS
330
C
102
}
330
C
100
AcDbDictionary
281
     1
  3
Normal
350
F
100
AcDbDictionaryWithDefault
340
F
  0
DICTIONARY
  5
42
102
{ACAD_REACTORS
330
C
102
}
330
C
100
AcDbDictionary
281
     1
  3
A0
350
43
  3
A1
350
44
  3
A2
350
45
  3
A3
350
46
  3
A4
350
47
  3
A5
350
48
  3
A6
350
49
  3
A7
350
4A
  3
A8
350
4B
  3
A9
350
4C
  3
B0
350
4D
  3
B1
350
4E
  3
B2
350
4F
  3
B3
350
50
  3
B4
350
51
  3
B5
350
52
  3
B6
350
53
  0
DICTIONARY
  5
68
102
{ACAD_REACTORS
330
C
102
}
330
C
100
AcDbDictionary
281
     1
  3
Imperial24
350
69
  0
DICTIONARY
  5
64
102
{ACAD_REACTORS
330
C
102
}
330
C
100
AcDbDictionary
281
     1
  3
Standard
350
65
  0
DICTIONARY
  5
29
102
{ACAD_REACTORS
330
C
102
}
330
C
100
AcDbDictionary
281
     1
  3
2dWireframe
350
2F
  3
Basic
350
2E
  3
Brighten
350
35
  3
ColorChange
350
39
  3
Conceptual
350
32
  3
Dim
350
34
  3
EdgeColorOff
350
41
  3
Facepattern
350
38
  3
Flat
350
2A
  3
FlatWithEdges
350
2B
  3
Gouraud
350
2C
  3
GouraudWithEdges
350
2D
  3
Hidden
350
31
  3
JitterOff
350
3F
  3
Linepattern
350
37
  3
OverhangOff
350
40
  3
Realistic
350
33
  3
Shaded
350
3E
  3
Shaded with edges
350
3D
  3
Shades of Gray
350
3A
  3
Sketchy
350
3B
  3
Thicken
350
36
  3
Wireframe
350
30
  3
X-Ray
350
3C
  0
XRECORD
  5
84
102
{ACAD_REACTORS
330
C
102
}
330
C
100
AcDbXrecord
280
     1
 90
        1
330
65
  0
DICTIONARY
  5
7C
102
{ACAD_REACTORS
330
C
102
}
330
C
100
AcDbDictionary
281
     1
  3
CANNOSCALE
350
81
  3
CMLEADERSTYLE
350
7E
  3
CTABLESTYLE
350
7D
  3
CVIEWDETAILSTYLE
350
7F
  3
CVIEWSECTIONSTYLE
350
80
  0
ACDBDETAILVIEWSTYLE
  5
6B
102
{ACAD_XDICTIONARY
360
87
102
}
102
{ACAD_REACTORS
330
6A
102
}
330
6A
100
AcDbModelDocViewStyle
 70
     0
  3
Imperial24
290
     0
100
AcDbDetailViewStyle
 70
     0
 71
     0
 90
        3
 71
     1
340
55
 62
   256
 40
0.24
340
0
 62
   256
 40
0.24
300

 40
0.36
280
     3
 71
     2
340
5D
 90
       25
 62
   256
 71
     3
340
55
 62
   256
 40
0.24
 90
        1
 40
0.75
 90
        1
300
%<\AcVar ViewType \f "%tc1">% %<\AcVar ViewDetailId>%\PSCALE %<\AcVar ViewScale \f "%sn">%
 71
     4
340
5D
 90
       25
 62
   256
340
5D
 90
       25
 62
   256
280
     0
  0
LAYOUT
  5
6F
102
{ACAD_REACTORS
330
62
102
}
330
62
100
AcDbPlotSettings
  1

  2

  4

  6

 40
0.0
 41
0.0
 42
0.0
 43
0.0
 44
0.0
 45
0.0
 46
0.0
 47
0.0
 48
0.0
 49
0.0
140
0.0
141
0.0
142
1.0
143
1.0
 70
   688
 72
     0
 73
     0
 74
     5
  7

 75
    16
147
1.0
 76
     0
 77
     2
 78
   300
148
0.0
149
0.0
100
AcDbLayout
  1
Layout1
 70
     1
 71
     1
 10
0.0
 20
0.0
 11
12.0
 21
9.0
 12
0.0
 22
0.0
 32
0.0
 14
0.0
 24
0.0
 34
0.0
 15
0.0
 25
0.0
 35
0.0
146
0.0
 13
0.0
 23
0.0
 33
0.0
 16
1.0
 26
0.0
 36
0.0
 17
0.0
 27
1.0
 37
0.0
 76
     0
330
6C
  0
LAYOUT
  5
77
102
{ACAD_REACTORS
330
62
102
}
330
62
100
AcDbPlotSettings
  1

  2

  4

  6

 40
0.0
 41
0.0
 42
0.0
 43
0.0
 44
0.0
 45
0.0
 46
0.0
 47
0.0
 48
0.0
 49
0.0
140
0.0
141
0.0
142
1.0
143
1.0
 70
   688
 72
     0
 73
     0
 74
     5
  7

 75
    16
147
1.0
 76
     0
 77
     2
 78
   300
148
0.0
149
0.0
100
AcDbLayout
  1
Layout2
 70
     1
 71
     2
 10
0.0
 20
0.0
 11
12.0
 21
9.0
 12
0.0
 22
0.0
 32
0.0
 14
0.0
 24
0.0
 34
0.0
 15
0.0
 25
0.0
 35
0.0
146
0.0
 13
0.0
 23
0.0
 33
0.0
 16
1.0
 26
0.0
 36
0.0
 17
0.0
 27
1.0
 37
0.0
 76
     0
330
74
  0
LAYOUT
  5
73
102
{ACAD_REACTORS
330
62
102
}
330
62
100
AcDbPlotSettings
  1

  2

  4

  6

 40
0.0
 41
0.0
 42
0.0
 43
0.0
 44
0.0
 45
0.0
 46
0.0
 47
0.0
 48
0.0
 49
0.0
140
0.0
141
0.0
142
1.0
143
1.0
 70
  1712
 72
     0
 73
     0
 74
     0
  7

 75
     0
147
1.0
 76
     0
 77
     2
 78
   300
148
0.0
149
0.0
100
AcDbLayout
  1
Model
 70
     1
 71
     0
 10
0.0
 20
0.0
 11
12.0
 21
9.0
 12
0.0
 22
0.0
 32
0.0
 14
0.0
 24
0.0
 34
0.0
 15
0.0
 25
0.0
 35
0.0
146
0.0
 13
0.0
 23
0.0
 33
0.0
 16
1.0
 26
0.0
 36
0.0
 17
0.0
 27
1.0
 37
0.0
 76
     0
330
70
  0
MATERIAL
  5
19
102
{ACAD_XDICTIONARY
360
1A
102
}
102
{ACAD_REACTORS
330
10
102
}
330
10
100
AcDbMaterial
  1
ByBlock
 72
     0
 43
0.0208333333333333
 43
0.0
 43
0.0
 43
0.0
 43
0.0
 43
0.0208333333333333
 43
0.0
 43
0.0
 43
0.0
 43
0.0
 43
1.0
 43
0.0
 43
0.0
 43
0.0
 43
0.0
 43
1.0
 77
     0
 47
0.0208333333333333
 47
0.0
 47
0.0
 47
0.0
 47
0.0
 47
0.0208333333333333
 47
0.0
 47
0.0
 47
0.0
 47
0.0
 47
1.0
 47
0.0
 47
0.0
 47
0.0
 47
0.0
 47
1.0
171
     0
 49
0.0208333333333333
 49
0.0
 49
0.0
 49
0.0
 49
0.0
 49
0.0208333333333333
 49
0.0
 49
0.0
 49
0.0
 49
0.0
 49
1.0
 49
0.0
 49
0.0
 49
0.0
 49
0.0
 49
1.0
175
     0
142
0.0208333333333333
142
0.0
142
0.0
142
0.0
142
0.0
142
0.0208333333333333
142
0.0
142
0.0
142
0.0
142
0.0
142
1.0
142
0.0
142
0.0
142
0.0
142
0.0
142
1.0
179
     0
144
0.0208333333333333
144
0.0
144
0.0
144
0.0
144
0.0
144
0.0208333333333333
144
0.0
144
0.0
144
0.0
144
0.0
144
1.0
144
0.0
144
0.0
144
0.0
144
0.0
144
1.0
147
0.0208333333333333
147
0.0
147
0.0
147
0.0
147
0.0
147
0.0208333333333333
147
0.0
147
0.0
147
0.0
147
0.0
147
1.0
147
0.0
147
0.0
147
0.0
147
0.0
147
1.0
  0
MATERIAL
  5
11
102
{ACAD_XDICTIONARY
360
12
102
}
102
{ACAD_REACTORS
330
10
102
}
330
10
100
AcDbMaterial
  1
ByLayer
 72
     0
 43
0.0208333333333333
 43
0.0
 43
0.0
 43
0.0
 43
0.0
 43
0.0208333333333333
 43
0.0
 43
0.0
 43
0.0
 43
0.0
 43
1.0
 43
0.0
 43
0.0
 43
0.0
 43
0.0
 43
1.0
 77
     0
 47
0.0208333333333333
 47
0.0
 47
0.0
 47
0.0
 47
0.0
 47
0.0208333333333333
 47
0.0
 47
0.0
 47
0.0
 47
0.0
 47
1.0
 47
0.0
 47
0.0
 47
0.0
 47
0.0
 47
1.0
171
     0
 49
0.0208333333333333
 49
0.0
 49
0.0
 49
0.0
 49
0.0
 49
0.0208333333333333
 49
0.0
 49
0.0
 49
0.0
 49
0.0
 49
1.0
 49
0.0
 49
0.0
 49
0.0
 49
0.0
 49
1.0
175
     0
142
0.0208333333333333
142
0.0
142
0.0
142
0.0
142
0.0
142
0.0208333333333333
142
0.0
142
0.0
142
0.0
142
0.0
142
1.0
142
0.0
142
0.0
142
0.0
142
0.0
142
1.0
179
     0
144
0.0208333333333333
144
0.0
144
0.0
144
0.0
144
0.0
144
0.0208333333333333
144
0.0
144
0.0
144
0.0
144
0.0
144
1.0
144
0.0
144
0.0
144
0.0
144
0.0
144
1.0
147
0.0208333333333333
147
0.0
147
0.0
147
0.0
147
0.0
147
0.0208333333333333
147
0.0
147
0.0
147
0.0
147
0.0
147
1.0
147
0.0
147
0.0
147
0.0
147
0.0
147
1.0
  0
MATERIAL
  5
21
102
{ACAD_XDICTIONARY
360
22
102
}
102
{ACAD_REACTORS
330
10
102
}
330
10
100
AcDbMaterial
  1
Global
 72
     0
 43
0.0208333333333333
 43
0.0
 43
0.0
 43
0.0
 43
0.0
 43
0.0208333333333333
 43
0.0
 43
0.0
 43
0.0
 43
0.0
 43
1.0
 43
0.0
 43
0.0
 43
0.0
 43
0.0
 43
1.0
 77
     0
 47
0.0208333333333333
 47
0.0
 47
0.0
 47
0.0
 47
0.0
 47
0.0208333333333333
 47
0.0
 47
0.0
 47
0.0
 47
0.0
 47
1.0
 47
0.0
 47
0.0
 47
0.0
 47
0.0
 47
1.0
171
     0
 49
0.0208333333333333
 49
0.0
 49
0.0
 49
0.0
 49
0.0
 49
0.0208333333333333
 49
0.0
 49
0.0
 49
0.0
 49
0.0
 49
1.0
 49
0.0
 49
0.0
 49
0.0
 49
0.0
 49
1.0
175
     0
142
0.0208333333333333
142
0.0
142
0.0
142
0.0
142
0.0
142
0.0208333333333333
142
0.0
142
0.0
142
0.0
142
0.0
142
1.0
142
0.0
142
0.0
142
0.0
142
0.0
142
1.0
179
     0
144
0.0208333333333333
144
0.0
144
0.0
144
0.0
144
0.0
144
0.0208333333333333
144
0.0
144
0.0
144
0.0
144
0.0
144
1.0
144
0.0
144
0.0
144
0.0
144
0.0
144
1.0
147
0.0208333333333333
147
0.0
147
0.0
147
0.0
147
0.0
147
0.0208333333333333
147
0.0
147
0.0
147
0.0
147
0.0
147
1.0
147
0.0
147
0.0
147
0.0
147
0.0
147
1.0
  0
MLEADERSTYLE
  5
67
102
{ACAD_REACTORS
330
66
102
}
330
66
100
AcDbMLeaderStyle
179
     2
170
     2
171
     1
172
     0
 90
        2
 40
0.0
 41
0.0
173
     1
 91
-1056964608
340
5B
 92
       -2
290
     1
 42
0.09
291
     1
 43
0.36
  3
Standard
 44
0.18
300

342
55
174
     1
178
     6
175
     1
176
     0
 93
-1056964608
 45
0.18
292
     0
297
     0
 46
0.18
 94
-1056964608
 47
1.0
 49
1.0
140
1.0
293
     1
141
0.0
294
     1
177
     0
142
1.0
295
     0
296
     0
143
0.125
271
     0
272
     9
273
     9
298
     1
  0
MLINESTYLE
  5
60
102
{ACAD_REACTORS
330
5F
102
}
330
5F
100
AcDbMlineStyle
  2
STANDARD
 70
     0
  3

 62
   256
 51
90.0
 52
90.0
 71
     2
 49
0.5
 62
   256
  6
BYLAYER
 49
-0.5
 62
   256
  6
BYLAYER
  0
ACDBPLACEHOLDER
  5
F
102
{ACAD_REACTORS
330
E
102
}
330
E
  0
SCALE
  5
43
102
{ACAD_REACTORS
330
42
102
}
330
42
100
AcDbScale
 70
     0
300
1:1
140
1.0
141
1.0
290
     1
  0
SCALE
  5
44
102
{ACAD_REACTORS
330
42
102
}
330
42
100
AcDbScale
 70
     0
300
1/128" = 1'-0"
140
0.0078125
141
12.0
290
     0
  0
SCALE
  5
45
102
{ACAD_REACTORS
330
42
102
}
330
42
100
AcDbScale
 70
     0
300
1/64" = 1'-0"
140
0.015625
141
12.0
290
     0
  0
SCALE
  5
46
102
{ACAD_REACTORS
330
42
102
}
330
42
100
AcDbScale
 70
     0
300
1/32" = 1'-0"
140
0.03125
141
12.0
290
     0
  0
SCALE
  5
47
102
{ACAD_REACTORS
330
42
102
}
330
42
100
AcDbScale
 70
     0
300
1/16" = 1'-0"
140
0.0625
141
12.0
290
     0
  0
SCALE
  5
48
102
{ACAD_REACTORS
330
42
102
}
330
42
100
AcDbScale
 70
     0
300
3/32" = 1'-0"
140
0.09375
141
12.0
290
     0
  0
SCALE
  5
49
102
{ACAD_REACTORS
330
42
102
}
330
42
100
AcDbScale
 70
     0
300
1/8" = 1'-0"
140
0.125
141
12.0
290
     0
  0
SCALE
  5
4A
102
{ACAD_REACTORS
330
42
102
}
330
42
100
AcDbScale
 70
     0
300
3/16" = 1'-0"
140
0.1875
141
12.0
290
     0
  0
SCALE
  5
4B
102
{ACAD_REACTORS
330
42
102
}
330
42
100
AcDbScale
 70
     0
300
1/4" = 1'-0"
140
0.25
141
12.0
290
     0
  0
SCALE
  5
4C
102
{ACAD_REACTORS
330
42
102
}
330
42
100
AcDbScale
 70
     0
300
3/8" = 1'-0"
140
0.375
141
12.0
290
     0
  0
SCALE
  5
4D
102
{ACAD_REACTORS
330
42
102
}
330
42
100
AcDbScale
 70
     0
300
1/2" = 1'-0"
140
0.5
141
12.0
290
     0
  0
SCALE
  5
4E
102
{ACAD_REACTORS
330
42
102
}
330
42
100
AcDbScale
 70
     0
300
3/4" = 1'-0"
140
0.75
141
12.0
290
     0
  0
SCALE
  5
4F
102
{ACAD_REACTORS
330
42
102
}
330
42
100
AcDbScale
 70
     0
300
1" = 1'-0"
140
1.0
141
12.0
290
     0
  0
SCALE
  5
50
102
{ACAD_REACTORS
330
42
102
}
330
42
100
AcDbScale
 70
     0
300
1-1/2" = 1'-0"
140
1.5
141
12.0
290
     0
  0
SCALE
  5
51
102
{ACAD_REACTORS
330
42
102
}
330
42
100
AcDbScale
 70
     0
300
3" = 1'-0"
140
3.0
141
12.0
290
     0
  0
SCALE
  5
52
102
{ACAD_REACTORS
330
42
102
}
330
42
100
AcDbScale
 70
     0
300
6" = 1'-0"
140
6.0
141
12.0
290
     0
  0
SCALE
  5
53
102
{ACAD_REACTORS
330
42
102
}
330
42
100
AcDbScale
 70
     0
300
1'-0" = 1'-0"
140
12.0
141
12.0
290
     0
  0
ACDBSECTIONVIEWSTYLE
  5
69
102
{ACAD_XDICTIONARY
360
85
102
}
102
{ACAD_REACTORS
330
68
102
}
330
68
100
AcDbModelDocViewStyle
 70
     0
  3
Imperial24
290
     0
100
AcDbSectionViewStyle
 70
     0
 71
     0
 90
       78
 71
     1
340
55
 62
   256
 40
0.24
340
0
340
0
 62
   256
 40
0.24
300
I, O, Q, S, X, Z
 40
0.48
 90
        3
 40
0.18
 90
        1
 71
     2
340
5D
 90
       25
 62
   256
340
5D
 90
       50
 62
   256
 40
0.24
 40
0.0
 40
0.24
 71
     3
340
55
 62
   256
 40
0.24
 90
        1
 40
0.75
 90
        1
300
%<\AcVar ViewType \f "%tc1">% %<\AcVar ViewSectionStartId>%-%<\AcVar ViewSectionEndId>%\PSCALE %<\AcVar ViewScale \f "%sn">%
 71
     4
 62
   256
 62
   257
300
ANSI31
 40
1.0
 90
        0
290
     0
290
     0
 90
        6
 40
0.0
 40
1.570796326794896
 40
0.2617993877991494
 40
1.308996938995747
 40
-0.2617993877991494
 40
1.832595714594046
  0
TABLESTYLE
  5
65
102
{ACAD_XDICTIONARY
360
82
102
}
102
{ACAD_REACTORS
330
64
102
}
330
64
100
AcDbTableStyle
280
     0
  3
Standard
 70
     0
 71
     0
 40
0.06
 41
0.06
280
     0
281
     0
  7
Standard
140
0.18
170
     2
 62
     0
 63
     7
283
     0
 90
      512
 91
        0
  1

274
    -2
284
     1
 64
     0
275
    -2
285
     1
 65
     0
276
    -2
286
     1
 66
     0
277
    -2
287
     1
 67
     0
278
    -2
288
     1
 68
     0
279
    -2
289
     1
 69
     0
  7
Standard
140
0.25
170
     5
 62
     0
 63
     7
283
     0
 90
      512
 91
        0
  1

274
    -2
284
     1
 64
     0
275
    -2
285
     1
 65
     0
276
    -2
286
     1
 66
     0
277
    -2
287
     1
 67
     0
278
    -2
288
     1
 68
     0
279
    -2
289
     1
 69
     0
  7
Standard
140
0.18
170
     5
 62
     0
 63
     7
283
     0
 90
      512
 91
        0
  1

274
    -2
284
     1
 64
     0
275
    -2
285
     1
 65
     0
276
    -2
286
     1
 66
     0
277
    -2
287
     1
 67
     0
278
    -2
288
     1
 68
     0
279
    -2
289
     1
 69
     0
  0
VISUALSTYLE
  5
2F
102
{ACAD_REACTORS
330
29
102
}
330
29
100
AcDbVisualStyle
  2
2dWireframe
 70
     4
177
     3
291
     0
 70
    58
 90
        0
176
     1
 90
        2
176
     1
 90
        0
176
     1
 90
        0
176
     1
 40
0.6
176
     1
 40
30.0
176
     1
 62
     7
420
 16777215
176
     1
 90
        1
176
     1
 90
        4
176
     1
 62
     7
176
     1
 62
   257
176
     1
 90
        1
176
     1
 90
        1
176
     1
 40
1.0
176
     1
 90
        0
176
     1
 62
   257
176
     1
 40
1.0
176
     1
 90
        1
176
     1
 90
        6
176
     1
 90
        2
176
     1
 62
     7
176
     1
 90
        5
176
     1
 90
        0
176
     1
 90
        0
176
     1
290
     0
176
     1
 90
        1
176
     1
 40
0.0
176
     1
 90
        0
176
     1
290
     1
176
     1
290
     1
176
     1
290
     0
176
     1
290
     0
176
     1
290
     0
176
     1
290
     0
176
     1
290
     0
176
     1
290
     0
176
     1
290
     0
176
     1
 90
       50
176
     1
 40
0.0
176
     1
 40
1.0
176
     1
 90
        0
176
     1
 62
    18
420
        0
176
     1
 90
       50
176
     1
 90
        3
176
     1
 62
     5
420
      255
176
     1
290
     0
176
     1
 90
       50
176
     1
 90
       50
176
     1
 90
       50
176
     1
290
     0
176
     1
 90
       50
176
     1
 62
   256
176
     0
 40
1.0
176
     0
 90
        2
176
     1
  1
strokes_ogs.tif
176
     1
290
     0
176
     1
 40
1.0
176
     1
 40
1.0
176
     1
1001
ACAD
1000
AcDbSavedByObjectVersion
1070
     0
  0
VISUALSTYLE
  5
2E
102
{ACAD_REACTORS
330
29
102
}
330
29
100
AcDbVisualStyle
  2
Basic
 70
     7
177
     3
291
     1
 70
    58
 90
        1
176
     1
 90
        0
176
     1
 90
        1
176
     1
 90
        0
176
     1
 40
0.6
176
     1
 40
30.0
176
     1
 62
     7
420
 16777215
176
     1
 90
        0
176
     1
 90
        4
176
     1
 62
     7
176
     1
 62
   257
176
     1
 90
        1
176
     1
 90
        1
176
     1
 40
1.0
176
     1
 90
        8
176
     1
 62
     7
176
     1
 40
1.0
176
     1
 90
        1
176
     1
 90
        6
176
     1
 90
        2
176
     1
 62
     7
176
     1
 90
        5
176
     1
 90
        0
176
     1
 90
        0
176
     1
290
     0
176
     1
 90
        1
176
     1
 40
0.0
176
     1
 90
        0
176
     1
290
     0
176
     1
290
     1
176
     1
290
     1
176
     1
290
     0
176
     1
290
     0
176
     1
290
     0
176
     1
290
     0
176
     1
290
     0
176
     1
290
     0
176
     1
 90
       50
176
     1
 40
0.0
176
     1
 40
1.0
176
     1
 90
        0
176
     1
 62
    18
420
        0
176
     1
 90
       50
176
     1
 90
        3
176
     1
 62
     5
420
      255
176
     1
290
     0
176
     1
 90
       50
176
     1
 90
       50
176
     1
 90
       50
176
     1
290
     0
176
     1
 90
       50
176
     1
 62
   256
176
     0
 40
1.0
176
     0
 90
        2
176
     1
  1
strokes_ogs.tif
176
     1
290
     0
176
     1
 40
1.0
176
     1
 40
1.0
176
     1
1001
ACAD
1000
AcDbSavedByObjectVersion
1070
     0
  0
VISUALSTYLE
  5
35
102
{ACAD_REACTORS
330
29
102
}
330
29
100
AcDbVisualStyle
  2
Brighten
 70
    12
177
     3
291
     1
 70
    58
 90
        2
176
     1
 90
        2
176
     1
 90
        0
176
     1
 90
        0
176
     1
 40
0.6
176
     1
 40
30.0
176
     1
 62
     7
420
 16777215
176
     1
 90
        1
176
     1
 90
        4
176
     1
 62
     7
176
     1
 62
   257
176
     1
 90
        1
176
     1
 90
        1
176
     1
 40
1.0
176
     1
 90
        8
176
     1
 62
     7
176
     1
 40
1.0
176
     1
 90
        1
176
     1
 90
        6
176
     1
 90
        2
176
     1
 62
     7
176
     1
 90
        5
176
     1
 90
        0
176
     1
 90
        0
176
     1
290
     0
176
     1
 90
        1
176
     1
 40
50.0
176
     1
 90
        0
176
     1
290
     0
176
     1
290
     1
176
     1
290
     1
176
     1
290
     0
176
     1
290
     0
176
     1
290
     0
176
     1
290
     0
176
     1
290
     0
176
     1
290
     0
176
     1
 90
       50
176
     1
 40
0.0
176
     1
 40
1.0
176
     1
 90
        0
176
     1
 62
    18
420
        0
176
     1
 90
       50
176
     1
 90
        3
176
     1
 62
     5
420
      255
176
     1
290
     0
176
     1
 90
       50
176
     1
 90
       50
176
     1
 90
       50
176
     1
290
     0
176
     1
 90
       50
176
     1
 62
   256
176
     0
 40
1.0
176
     0
 90
        2
176
     1
  1
strokes_ogs.tif
176
     1
290
     0
176
     1
 40
1.0
176
     1
 40
1.0
176
     1
1001
ACAD
1000
AcDbSavedByObjectVersion
1070
     0
  0
VISUALSTYLE
  5
39
102
{ACAD_REACTORS
330
29
102
}
330
29
100
AcDbVisualStyle
  2
ColorChange
 70
    16
177
     3
291
     1
 70
    58
 90
        2
176
     1
 90
        2
176
     1
 90
        3
176
     1
 90
        0
176
     1
 40
0.6
176
     1
 40
30.0
176
     1
 62
     8
420
  8421504
176
     1
 90
        1
176
     1
 90
        4
176
     1
 62
     7
176
     1
 62
   257
176
     1
 90
        1
176
     1
 90
        1
176
     1
 40
1.0
176
     1
 90
        8
176
     1
 62
     8
420
  8421504
176
     1
 40
1.0
176
     1
 90
        1
176
     1
 90
        6
176
     1
 90
        2
176
     1
 62
     7
176
     1
 90
        5
176
     1
 90
        0
176
     1
 90
        0
176
     1
290
     0
176
     1
 90
        1
176
     1
 40
0.0
176
     1
 90
        0
176
     1
290
     0
176
     1
290
     1
176
     1
290
     1
176
     1
290
     0
176
     1
290
     0
176
     1
290
     0
176
     1
290
     0
176
     1
290
     0
176
     1
290
     0
176
     1
 90
       50
176
     1
 40
0.0
176
     1
 40
1.0
176
     1
 90
        0
176
     1
 62
    18
420
        0
176
     1
 90
       50
176
     1
 90
        3
176
     1
 62
     5
420
      255
176
     1
290
     0
176
     1
 90
       50
176
     1
 90
       50
176
     1
 90
       50
176
     1
290
     0
176
     1
 90
       50
176
     1
 62
   256
176
     0
 40
1.0
176
     0
 90
        2
176
     1
  1
strokes_ogs.tif
176
     1
290
     0
176
     1
 40
1.0
176
     1
 40
1.0
176
     1
1001
ACAD
1000
AcDbSavedByObjectVersion
1070
     0
  0
VISUALSTYLE
  5
32
102
{ACAD_REACTORS
330
29
102
}
330
29
100
AcDbVisualStyle
  2
Conceptual
 70
     9
177
     3
291
     0
 70
    58
 90
        3
176
     1
 90
        2
176
     1
 90
        0
176
     1
 90
        0
176
     1
 40
0.6
176
     1
 40
30.0
176
     1
 62
     7
420
 16777215
176
     1
 90
        2
176
     1
 90
        2
176
     1
 62
     7
176
     1
 62
   257
176
     1
 90
        1
176
     1
 90
        1
176
     1
 40
179.0
176
     1
 90
        8
176
     1
 62
     7
176
     1
 40
1.0
176
     1
 90
        1
176
     1
 90
        6
176
     1
 90
        2
176
     1
 62
     7
176
     1
 90
        3
176
     1
 90
        0
176
     1
 90
        0
176
     1
290
     0
176
     1
 90
        1
176
     1
 40
0.0
176
     1
 90
        0
176
     1
290
     0
176
     1
290
     1
176
     1
290
     1
176
     1
290
     0
176
     1
290
     0
176
     1
290
     0
176
     1
290
     0
176
     1
290
     0
176
     1
290
     0
176
     1
 90
       50
176
     1
 40
0.0
176
     1
 40
1.0
176
     1
 90
        0
176
     1
 62
    18
420
        0
176
     1
 90
       50
176
     1
 90
        3
176
     1
 62
     5
420
      255
176
     1
290
     0
176
     1
 90
       50
176
     1
 90
       50
176
     1
 90
       50
176
     1
290
     0
176
     1
 90
       50
176
     1
 62
   256
176
     0
 40
1.0
176
     0
 90
        2
176
     1
  1
strokes_ogs.tif
176
     1
290
     0
176
     1
 40
1.0
176
     1
 40
1.0
176
     1
1001
ACAD
1000
AcDbSavedByObjectVersion
1070
     0
  0
VISUALSTYLE
  5
34
102
{ACAD_REACTORS
330
29
102
}
330
29
100
AcDbVisualStyle
  2
Dim
 70
    11
177
     3
291
     1
 70
    58
 90
        2
176
     1
 90
        2
176
     1
 90
        0
176
     1
 90
        0
176
     1
 40
0.6
176
     1
 40
30.0
176
     1
 62
     7
420
 16777215
176
     1
 90
        1
176
     1
 90
        4
176
     1
 62
     7
176
     1
 62
   257
176
     1
 90
        1
176
     1
 90
        1
176
     1
 40
1.0
176
     1
 90
        8
176
     1
 62
     7
176
     1
 40
1.0
176
     1
 90
        1
176
     1
 90
        6
176
     1
 90
        2
176
     1
 62
     7
176
     1
 90
        5
176
     1
 90
        0
176
     1
 90
        0
176
     1
290
     0
176
     1
 90
        1
176
     1
 40
-50.0
176
     1
 90
        0
176
     1
290
     0
176
     1
290
     1
176
     1
290
     1
176
     1
290
     0
176
     1
290
     0
176
     1
290
     0
176
     1
290
     0
176
     1
290
     0
176
     1
290
     0
176
     1
 90
       50
176
     1
 40
0.0
176
     1
 40
1.0
176
     1
 90
        0
176
     1
 62
    18
420
        0
176
     1
 90
       50
176
     1
 90
        3
176
     1
 62
     5
420
      255
176
     1
290
     0
176
     1
 90
       50
176
     1
 90
       50
176
     1
 90
       50
176
     1
290
     0
176
     1
 90
       50
176
     1
 62
   256
176
     0
 40
1.0
176
     0
 90
        2
176
     1
  1
strokes_ogs.tif
176
     1
290
     0
176
     1
 40
1.0
176
     1
 40
1.0
176
     1
1001
ACAD
1000
AcDbSavedByObjectVersion
1070
     0
  0
VISUALSTYLE
  5
41
102
{ACAD_REACTORS
330
29
102
}
330
29
100
AcDbVisualStyle
  2
EdgeColorOff
 70
    22
177
     3
291
     1
 70
    58
 90
        2
176
     0
 90
        2
176
     0
 90
        0
176
     0
 90
        0
176
     0
 40
0.6
176
     0
 40
30.0
176
     0
 62
     7
420
 16777215
176
     0
 90
        1
176
     0
 90
        4
176
     0
 62
     7
176
     0
 62
   257
176
     0
 90
        1
176
     0
 90
        1
176
     0
 40
1.0
176
     0
 90
        8
176
     2
 62
     7
176
     0
 40
1.0
176
     0
 90
        1
176
     0
 90
        6
176
     0
 90
        2
176
     0
 62
     7
176
     0
 90
        5
176
     0
 90
        0
176
     0
 90
        0
176
     0
290
     0
176
     0
 90
        1
176
     0
 40
0.0
176
     0
 90
        0
176
     0
290
     0
176
     0
290
     1
176
     0
290
     1
176
     0
290
     0
176
     0
290
     0
176
     0
290
     0
176
     0
290
     0
176
     0
290
     0
176
     0
290
     0
176
     0
 90
       50
176
     0
 40
0.0
176
     0
 40
1.0
176
     0
 90
        0
176
     0
 62
    18
420
        0
176
     0
 90
       50
176
     0
 90
        3
176
     0
 62
     5
420
      255
176
     0
290
     0
176
     0
 90
       50
176
     0
 90
       50
176
     0
 90
       50
176
     0
290
     0
176
     0
 90
       50
176
     0
 62
   256
176
     0
 40
1.0
176
     0
 90
        2
176
     0
  1
strokes_ogs.tif
176
     0
290
     0
176
     0
 40
1.0
176
     0
 40
1.0
176
     0
1001
ACAD
1000
AcDbSavedByObjectVersion
1070
     0
  0
VISUALSTYLE
  5
38
102
{ACAD_REACTORS
330
29
102
}
330
29
100
AcDbVisualStyle
  2
Facepattern
 70
    15
177
     3
291
     1
 70
    58
 90
        2
176
     1
 90
        2
176
     1
 90
        0
176
     1
 90
        0
176
     1
 40
0.6
176
     1
 40
30.0
176
     1
 62
     7
420
 16777215
176
     1
 90
        1
176
     1
 90
        4
176
     1
 62
     7
176
     1
 62
   257
176
     1
 90
        1
176
     1
 90
        1
176
     1
 40
1.0
176
     1
 90
        8
176
     1
 62
     7
176
     1
 40
1.0
176
     1
 90
        1
176
     1
 90
        6
176
     1
 90
        2
176
     1
 62
     7
176
     1
 90
        5
176
     1
 90
        0
176
     1
 90
        0
176
     1
290
     0
176
     1
 90
        1
176
     1
 40
0.0
176
     1
 90
        0
176
     1
290
     0
176
     1
290
     1
176
     1
290
     1
176
     1
290
     0
176
     1
290
     0
176
     1
290
     0
176
     1
290
     0
176
     1
290
     0
176
     1
290
     0
176
     1
 90
       50
176
     1
 40
0.0
176
     1
 40
1.0
176
     1
 90
        0
176
     1
 62
    18
420
        0
176
     1
 90
       50
176
     1
 90
        3
176
     1
 62
     5
420
      255
176
     1
290
     0
176
     1
 90
       50
176
     1
 90
       50
176
     1
 90
       50
176
     1
290
     0
176
     1
 90
       50
176
     1
 62
   256
176
     0
 40
1.0
176
     0
 90
        2
176
     1
  1
strokes_ogs.tif
176
     1
290
     0
176
     1
 40
1.0
176
     1
 40
1.0
176
     1
1001
ACAD
1000
AcDbSavedByObjectVersion
1070
     0
  0
VISUALSTYLE
  5
2A
102
{ACAD_REACTORS
330
29
102
}
330
29
100
AcDbVisualStyle
  2
Flat
 70
     0
177
     3
291
     1
 70
    58
 90
        2
176
     1
 90
        1
176
     1
 90
        1
176
     1
 90
        2
176
     1
 40
0.6
176
     1
 40
30.0
176
     1
 62
     7
420
 16777215
176
     1
 90
        0
176
     1
 90
        0
176
     1
 62
     7
176
     1
 62
   257
176
     1
 90
        1
176
     1
 90
        1
176
     1
 40
1.0
176
     1
 90
        8
176
     1
 62
     7
176
     1
 40
1.0
176
     1
 90
        1
176
     1
 90
        6
176
     1
 90
        2
176
     1
 62
     7
176
     1
 90
        5
176
     1
 90
        0
176
     1
 90
        0
176
     1
290
     0
176
     1
 90
       13
176
     1
 40
0.0
176
     1
 90
        0
176
     1
290
     0
176
     1
290
     1
176
     1
290
     1
176
     1
290
     0
176
     1
290
     0
176
     1
290
     0
176
     1
290
     0
176
     1
290
     0
176
     1
290
     0
176
     1
 90
       50
176
     1
 40
0.0
176
     1
 40
1.0
176
     1
 90
        0
176
     1
 62
    18
420
        0
176
     1
 90
       50
176
     1
 90
        3
176
     1
 62
     5
420
      255
176
     1
290
     0
176
     1
 90
       50
176
     1
 90
       50
176
     1
 90
       50
176
     1
290
     0
176
     1
 90
       50
176
     1
 62
   256
176
     0
 40
1.0
176
     0
 90
        2
176
     1
  1
strokes_ogs.tif
176
     1
290
     0
176
     1
 40
1.0
176
     1
 40
1.0
176
     1
1001
ACAD
1000
AcDbSavedByObjectVersion
1070
     0
  0
VISUALSTYLE
  5
2B
102
{ACAD_REACTORS
330
29
102
}
330
29
100
AcDbVisualStyle
  2
FlatWithEdges
 70
     1
177
     3
291
     1
 70
    58
 90
        2
176
     1
 90
        1
176
     1
 90
        1
176
     1
 90
        2
176
     1
 40
0.6
176
     1
 40
30.0
176
     1
 62
     7
420
 16777215
176
     1
 90
        1
176
     1
 90
        0
176
     1
 62
     7
176
     1
 62
   257
176
     1
 90
        1
176
     1
 90
        1
176
     1
 40
1.0
176
     1
 90
        0
176
     1
 62
   257
176
     1
 40
1.0
176
     1
 90
        1
176
     1
 90
        6
176
     1
 90
        2
176
     1
 62
     7
176
     1
 90
        5
176
     1
 90
        0
176
     1
 90
        0
176
     1
290
     0
176
     1
 90
       13
176
     1
 40
0.0
176
     1
 90
        0
176
     1
290
     0
176
     1
290
     1
176
     1
290
     1
176
     1
290
     0
176
     1
290
     0
176
     1
290
     0
176
     1
290
     0
176
     1
290
     0
176
     1
290
     0
176
     1
 90
       50
176
     1
 40
0.0
176
     1
 40
1.0
176
     1
 90
        0
176
     1
 62
    18
420
        0
176
     1
 90
       50
176
     1
 90
        3
176
     1
 62
     5
420
      255
176
     1
290
     0
176
     1
 90
       50
176
     1
 90
       50
176
     1
 90
       50
176
     1
290
     0
176
     1
 90
       50
176
     1
 62
   256
176
     0
 40
1.0
176
     0
 90
        2
176
     1
  1
strokes_ogs.tif
176
     1
290
     0
176
     1
 40
1.0
176
     1
 40
1.0
176
     1
1001
ACAD
1000
AcDbSavedByObjectVersion
1070
     0
  0
VISUALSTYLE
  5
2C
102
{ACAD_REACTORS
330
29
102
}
330
29
100
AcDbVisualStyle
  2
Gouraud
 70
     2
177
     3
291
     1
 70
    58
 90
        2
176
     1
 90
        2
176
     1
 90
        1
176
     1
 90
        2
176
     1
 40
0.6
176
     1
 40
30.0
176
     1
 62
     7
420
 16777215
176
     1
 90
        0
176
     1
 90
        0
176
     1
 62
     7
176
     1
 62
   257
176
     1
 90
        1
176
     1
 90
        1
176
     1
 40
1.0
176
     1
 90
        0
176
     1
 62
     7
176
     1
 40
1.0
176
     1
 90
        1
176
     1
 90
        6
176
     1
 90
        2
176
     1
 62
     7
176
     1
 90
        5
176
     1
 90
        0
176
     1
 90
        0
176
     1
290
     0
176
     1
 90
       13
176
     1
 40
0.0
176
     1
 90
        0
176
     1
290
     0
176
     1
290
     1
176
     1
290
     1
176
     1
290
     0
176
     1
290
     0
176
     1
290
     0
176
     1
290
     0
176
     1
290
     0
176
     1
290
     0
176
     1
 90
       50
176
     1
 40
0.0
176
     1
 40
1.0
176
     1
 90
        0
176
     1
 62
    18
420
        0
176
     1
 90
       50
176
     1
 90
        3
176
     1
 62
     5
420
      255
176
     1
290
     0
176
     1
 90
       50
176
     1
 90
       50
176
     1
 90
       50
176
     1
290
     0
176
     1
 90
       50
176
     1
 62
   256
176
     0
 40
1.0
176
     0
 90
        2
176
     1
  1
strokes_ogs.tif
176
     1
290
     0
176
     1
 40
1.0
176
     1
 40
1.0
176
     1
1001
ACAD
1000
AcDbSavedByObjectVersion
1070
     0
  0
VISUALSTYLE
  5
2D
102
{ACAD_REACTORS
330
29
102
}
330
29
100
AcDbVisualStyle
  2
GouraudWithEdges
 70
     3
177
     3
291
     1
 70
    58
 90
        2
176
     1
 90
        2
176
     1
 90
        1
176
     1
 90
        2
176
     1
 40
0.6
176
     1
 40
30.0
176
     1
 62
     7
420
 16777215
176
     1
 90
        1
176
     1
 90
        0
176
     1
 62
     7
176
     1
 62
   257
176
     1
 90
        1
176
     1
 90
        1
176
     1
 40
1.0
176
     1
 90
        0
176
     1
 62
   257
176
     1
 40
1.0
176
     1
 90
        1
176
     1
 90
        6
176
     1
 90
        2
176
     1
 62
     7
176
     1
 90
        5
176
     1
 90
        0
176
     1
 90
        0
176
     1
290
     0
176
     1
 90
       13
176
     1
 40
0.0
176
     1
 90
        0
176
     1
290
     0
176
     1
290
     1
176
     1
290
     1
176
     1
290
     0
176
     1
290
     0
176
     1
290
     0
176
     1
290
     0
176
     1
290
     0
176
     1
290
     0
176
     1
 90
       50
176
     1
 40
0.0
176
     1
 40
1.0
176
     1
 90
        0
176
     1
 62
    18
420
        0
176
     1
 90
       50
176
     1
 90
        3
176
     1
 62
     5
420
      255
176
     1
290
     0
176
     1
 90
       50
176
     1
 90
       50
176
     1
 90
       50
176
     1
290
     0
176
     1
 90
       50
176
     1
 62
   256
176
     0
 40
1.0
176
     0
 90
        2
176
     1
  1
strokes_ogs.tif
176
     1
290
     0
176
     1
 40
1.0
176
     1
 40
1.0
176
     1
1001
ACAD
1000
AcDbSavedByObjectVersion
1070
     0
  0
VISUALSTYLE
  5
31
102
{ACAD_REACTORS
330
29
102
}
330
29
100
AcDbVisualStyle
  2
Hidden
 70
     6
177
     3
291
     0
 70
    58
 90
        1
176
     1
 90
        2
176
     1
 90
        2
176
     1
 90
        0
176
     1
 40
0.6
176
     1
 40
30.0
176
     1
 62
     7
420
 16777215
176
     1
 90
        2
176
     1
 90
        2
176
     1
 62
     7
176
     1
 62
   257
176
     1
 90
        2
176
     1
 90
        1
176
     1
 40
40.0
176
     1
 90
        0
176
     1
 62
   257
176
     1
 40
1.0
176
     1
 90
        1
176
     1
 90
        6
176
     1
 90
        2
176
     1
 62
     7
176
     1
 90
        3
176
     1
 90
        0
176
     1
 90
        0
176
     1
290
     0
176
     1
 90
        1
176
     1
 40
0.0
176
     1
 90
        0
176
     1
290
     0
176
     1
290
     1
176
     1
290
     1
176
     1
290
     0
176
     1
290
     0
176
     1
290
     0
176
     1
290
     0
176
     1
290
     0
176
     1
290
     0
176
     1
 90
       50
176
     1
 40
0.0
176
     1
 40
1.0
176
     1
 90
        0
176
     1
 62
    18
420
        0
176
     1
 90
       50
176
     1
 90
        3
176
     1
 62
     5
420
      255
176
     1
290
     0
176
     1
 90
       50
176
     1
 90
       50
176
     1
 90
       50
176
     1
290
     0
176
     1
 90
       50
176
     1
 62
   256
176
     0
 40
1.0
176
     0
 90
        2
176
     1
  1
strokes_ogs.tif
176
     1
290
     0
176
     1
 40
1.0
176
     1
 40
1.0
176
     1
1001
ACAD
1000
AcDbSavedByObjectVersion
1070
     0
  0
VISUALSTYLE
  5
3F
102
{ACAD_REACTORS
330
29
102
}
330
29
100
AcDbVisualStyle
  2
JitterOff
 70
    20
177
     3
291
     1
 70
    58
 90
        2
176
     0
 90
        2
176
     0
 90
        0
176
     0
 90
        0
176
     0
 40
0.6
176
     0
 40
30.0
176
     0
 62
     7
420
 16777215
176
     0
 90
        1
176
     0
 90
        4
176
     0
 62
     7
176
     0
 62
   257
176
     0
 90
        1
176
     0
 90
        1
176
     0
 40
1.0
176
     0
 90
       10
176
     2
 62
     7
176
     0
 40
1.0
176
     0
 90
        1
176
     0
 90
        6
176
     0
 90
        2
176
     0
 62
     7
176
     0
 90
        5
176
     0
 90
        0
176
     0
 90
        0
176
     0
290
     0
176
     0
 90
        1
176
     0
 40
0.0
176
     0
 90
        0
176
     0
290
     0
176
     0
290
     1
176
     0
290
     1
176
     0
290
     0
176
     0
290
     0
176
     0
290
     0
176
     0
290
     0
176
     0
290
     0
176
     0
290
     0
176
     0
 90
       50
176
     0
 40
0.0
176
     0
 40
1.0
176
     0
 90
        0
176
     0
 62
    18
420
        0
176
     0
 90
       50
176
     0
 90
        3
176
     0
 62
     5
420
      255
176
     0
290
     0
176
     0
 90
       50
176
     0
 90
       50
176
     0
 90
       50
176
     0
290
     0
176
     0
 90
       50
176
     0
 62
   256
176
     0
 40
1.0
176
     0
 90
        2
176
     0
  1
strokes_ogs.tif
176
     0
290
     0
176
     0
 40
1.0
176
     0
 40
1.0
176
     0
1001
ACAD
1000
AcDbSavedByObjectVersion
1070
     0
  0
VISUALSTYLE
  5
37
102
{ACAD_REACTORS
330
29
102
}
330
29
100
AcDbVisualStyle
  2
Linepattern
 70
    14
177
     3
291
     1
 70
    58
 90
        2
176
     1
 90
        2
176
     1
 90
        0
176
     1
 90
        0
176
     1
 40
0.6
176
     1
 40
30.0
176
     1
 62
     7
420
 16777215
176
     1
 90
        1
176
     1
 90
        4
176
     1
 62
     7
176
     1
 62
   257
176
     1
 90
        7
176
     1
 90
        7
176
     1
 40
1.0
176
     1
 90
        8
176
     1
 62
     7
176
     1
 40
1.0
176
     1
 90
        1
176
     1
 90
        6
176
     1
 90
        2
176
     1
 62
     7
176
     1
 90
        5
176
     1
 90
        0
176
     1
 90
        0
176
     1
290
     0
176
     1
 90
        1
176
     1
 40
0.0
176
     1
 90
        0
176
     1
290
     0
176
     1
290
     1
176
     1
290
     1
176
     1
290
     0
176
     1
290
     0
176
     1
290
     0
176
     1
290
     0
176
     1
290
     0
176
     1
290
     0
176
     1
 90
       50
176
     1
 40
0.0
176
     1
 40
1.0
176
     1
 90
        0
176
     1
 62
    18
420
        0
176
     1
 90
       50
176
     1
 90
        3
176
     1
 62
     5
420
      255
176
     1
290
     0
176
     1
 90
       50
176
     1
 90
       50
176
     1
 90
       50
176
     1
290
     0
176
     1
 90
       50
176
     1
 62
   256
176
     0
 40
1.0
176
     0
 90
        2
176
     1
  1
strokes_ogs.tif
176
     1
290
     0
176
     1
 40
1.0
176
     1
 40
1.0
176
     1
1001
ACAD
1000
AcDbSavedByObjectVersion
1070
     0
  0
VISUALSTYLE
  5
40
102
{ACAD_REACTORS
330
29
102
}
330
29
100
AcDbVisualStyle
  2
OverhangOff
 70
    21
177
     3
291
     1
 70
    58
 90
        2
176
     0
 90
        2
176
     0
 90
        0
176
     0
 90
        0
176
     0
 40
0.6
176
     0
 40
30.0
176
     0
 62
     7
420
 16777215
176
     0
 90
        1
176
     0
 90
        4
176
     0
 62
     7
176
     0
 62
   257
176
     0
 90
        1
176
     0
 90
        1
176
     0
 40
1.0
176
     0
 90
        9
176
     2
 62
     7
176
     0
 40
1.0
176
     0
 90
        1
176
     0
 90
        6
176
     0
 90
        2
176
     0
 62
     7
176
     0
 90
        5
176
     0
 90
        0
176
     0
 90
        0
176
     0
290
     0
176
     0
 90
        1
176
     0
 40
0.0
176
     0
 90
        0
176
     0
290
     0
176
     0
290
     1
176
     0
290
     1
176
     0
290
     0
176
     0
290
     0
176
     0
290
     0
176
     0
290
     0
176
     0
290
     0
176
     0
290
     0
176
     0
 90
       50
176
     0
 40
0.0
176
     0
 40
1.0
176
     0
 90
        0
176
     0
 62
    18
420
        0
176
     0
 90
       50
176
     0
 90
        3
176
     0
 62
     5
420
      255
176
     0
290
     0
176
     0
 90
       50
176
     0
 90
       50
176
     0
 90
       50
176
     0
290
     0
176
     0
 90
       50
176
     0
 62
   256
176
     0
 40
1.0
176
     0
 90
        2
176
     0
  1
strokes_ogs.tif
176
     0
290
     0
176
     0
 40
1.0
176
     0
 40
1.0
176
     0
1001
ACAD
1000
AcDbSavedByObjectVersion
1070
     0
  0
VISUALSTYLE
  5
33
102
{ACAD_REACTORS
330
29
102
}
330
29
100
AcDbVisualStyle
  2
Realistic
 70
     8
177
     3
291
     0
 70
    58
 90
        2
176
     1
 90
        3
176
     1
 90
        0
176
     1
 90
        2
176
     1
 40
0.6
176
     1
 40
30.0
176
     1
 62
     7
420
 16777215
176
     1
 90
        0
176
     1
 90
        0
176
     1
 62
     7
176
     1
 62
   257
176
     1
 90
        1
176
     1
 90
        1
176
     1
 40
1.0
176
     1
 90
        8
176
     1
 62
   257
176
     1
 40
1.0
176
     1
 90
        1
176
     1
 90
        6
176
     1
 90
        2
176
     1
 62
     7
176
     1
 90
        3
176
     1
 90
        0
176
     1
 90
        0
176
     1
290
     0
176
     1
 90
       13
176
     1
 40
0.0
176
     1
 90
        0
176
     1
290
     0
176
     1
290
     1
176
     1
290
     1
176
     1
290
     0
176
     1
290
     0
176
     1
290
     0
176
     1
290
     0
176
     1
290
     0
176
     1
290
     0
176
     1
 90
       50
176
     1
 40
0.0
176
     1
 40
1.0
176
     1
 90
        0
176
     1
 62
    18
420
        0
176
     1
 90
       50
176
     1
 90
        3
176
     1
 62
     5
420
      255
176
     1
290
     0
176
     1
 90
       50
176
     1
 90
       50
176
     1
 90
       50
176
     1
290
     0
176
     1
 90
       50
176
     1
 62
   256
176
     0
 40
1.0
176
     0
 90
        2
176
     1
  1
strokes_ogs.tif
176
     1
290
     0
176
     1
 40
1.0
176
     1
 40
1.0
176
     1
1001
ACAD
1000
AcDbSavedByObjectVersion
1070
     0
  0
VISUALSTYLE
  5
3E
102
{ACAD_REACTORS
330
29
102
}
330
29
100
AcDbVisualStyle
  2
Shaded
 70
    27
177
     3
291
     0
 70
    58
 90
        2
176
     1
 90
        2
176
     1
 90
        1
176
     1
 90
        2
176
     1
 40
0.6
176
     1
 40
30.0
176
     1
 62
     7
420
 16777215
176
     1
 90
        0
176
     1
 90
        4
176
     1
 62
     7
176
     1
 62
   257
176
     1
 90
        1
176
     1
 90
        1
176
     1
 40
1.0
176
     1
 90
        8
176
     1
 62
   257
176
     1
 40
1.0
176
     1
 90
        1
176
     1
 90
        6
176
     1
 90
        2
176
     1
 62
     8
420
  7895160
176
     1
 90
        3
176
     1
 90
        0
176
     1
 90
        0
176
     1
290
     0
176
     1
 90
        5
176
     1
 40
0.0
176
     1
 90
        0
176
     1
290
     0
176
     1
290
     1
176
     1
290
     1
176
     1
290
     0
176
     1
290
     0
176
     1
290
     0
176
     1
290
     0
176
     1
290
     0
176
     1
290
     0
176
     1
 90
       50
176
     1
 40
0.0
176
     1
 40
1.0
176
     1
 90
        0
176
     1
 62
    18
420
        0
176
     1
 90
       50
176
     1
 90
        3
176
     1
 62
     5
420
      255
176
     1
290
     0
176
     1
 90
       50
176
     1
 90
       50
176
     1
 90
       50
176
     1
290
     0
176
     1
 90
       50
176
     1
 62
   256
176
     0
 40
1.0
176
     0
 90
        2
176
     1
  1
strokes_ogs.tif
176
     1
290
     0
176
     1
 40
1.0
176
     1
 40
1.0
176
     1
1001
ACAD
1000
AcDbSavedByObjectVersion
1070
     0
  0
VISUALSTYLE
  5
3D
102
{ACAD_REACTORS
330
29
102
}
330
29
100
AcDbVisualStyle
  2
Shaded with edges
 70
    26
177
     3
291
     0
 70
    58
 90
        2
176
     1
 90
        2
176
     1
 90
        1
176
     1
 90
        2
176
     1
 40
0.6
176
     1
 40
30.0
176
     1
 62
     7
420
 16777215
176
     1
 90
        1
176
     1
 90
        2
176
     1
 62
     7
176
     1
 62
   257
176
     1
 90
        2
176
     1
 90
        1
176
     1
 40
1.0
176
     1
 90
        8
176
     1
 62
   257
176
     1
 40
1.0
176
     1
 90
        1
176
     1
 90
        6
176
     1
 90
        2
176
     1
 62
     7
176
     1
 90
        3
176
     1
 90
        0
176
     1
 90
        0
176
     1
290
     0
176
     1
 90
        5
176
     1
 40
0.0
176
     1
 90
        0
176
     1
290
     0
176
     1
290
     1
176
     1
290
     1
176
     1
290
     0
176
     1
290
     0
176
     1
290
     0
176
     1
290
     0
176
     1
290
     0
176
     1
290
     0
176
     1
 90
       50
176
     1
 40
0.0
176
     1
 40
1.0
176
     1
 90
        0
176
     1
 62
    18
420
        0
176
     1
 90
       50
176
     1
 90
        3
176
     1
 62
     5
420
      255
176
     1
290
     0
176
     1
 90
       50
176
     1
 90
       50
176
     1
 90
       50
176
     1
290
     0
176
     1
 90
       50
176
     1
 62
   256
176
     0
 40
1.0
176
     0
 90
        2
176
     1
  1
strokes_ogs.tif
176
     1
290
     0
176
     1
 40
1.0
176
     1
 40
1.0
176
     1
1001
ACAD
1000
AcDbSavedByObjectVersion
1070
     0
  0
VISUALSTYLE
  5
3A
102
{ACAD_REACTORS
330
29
102
}
330
29
100
AcDbVisualStyle
  2
Shades of Gray
 70
    23
177
     3
291
     0
 70
    58
 90
        2
176
     1
 90
        2
176
     1
 90
        3
176
     1
 90
        0
176
     1
 40
0.6
176
     1
 40
30.0
176
     1
 62
     7
420
 16777215
176
     1
 90
        2
176
     1
 90
        2
176
     1
 62
     7
176
     1
 62
     7
176
     1
 90
        1
176
     1
 90
        1
176
     1
 40
40.0
176
     1
 90
        8
176
     1
 62
     7
176
     1
 40
1.0
176
     1
 90
        1
176
     1
 90
        6
176
     1
 90
        2
176
     1
 62
     7
176
     1
 90
        3
176
     1
 90
        0
176
     1
 90
        0
176
     1
290
     0
176
     1
 90
        1
176
     1
 40
0.0
176
     1
 90
        0
176
     1
290
     0
176
     1
290
     1
176
     1
290
     1
176
     1
290
     0
176
     1
290
     0
176
     1
290
     0
176
     1
290
     0
176
     1
290
     0
176
     1
290
     0
176
     1
 90
       50
176
     1
 40
0.0
176
     1
 40
1.0
176
     1
 90
        0
176
     1
 62
    18
420
        0
176
     1
 90
       50
176
     1
 90
        3
176
     1
 62
     5
420
      255
176
     1
290
     0
176
     1
 90
       50
176
     1
 90
       50
176
     1
 90
       50
176
     1
290
     0
176
     1
 90
       50
176
     1
 62
   256
176
     0
 40
1.0
176
     0
 90
        2
176
     1
  1
strokes_ogs.tif
176
     1
290
     0
176
     1
 40
1.0
176
     1
 40
1.0
176
     1
1001
ACAD
1000
AcDbSavedByObjectVersion
1070
     0
  0
VISUALSTYLE
  5
3B
102
{ACAD_REACTORS
330
29
102
}
330
29
100
AcDbVisualStyle
  2
Sketchy
 70
    24
177
     3
291
     0
 70
    58
 90
        1
176
     1
 90
        2
176
     1
 90
        2
176
     1
 90
        0
176
     1
 40
0.6
176
     1
 40
30.0
176
     1
 62
     7
420
 16777215
176
     1
 90
        2
176
     1
 90
        2
176
     1
 62
     7
176
     1
 62
     7
176
     1
 90
        1
176
     1
 90
        1
176
     1
 40
40.0
176
     1
 90
       11
176
     1
 62
     7
176
     1
 40
1.0
176
     1
 90
        1
176
     1
 90
        6
176
     1
 90
        2
176
     1
 62
     7
176
     1
 90
        6
176
     1
 90
        0
176
     1
 90
        0
176
     1
290
     0
176
     1
 90
        1
176
     1
 40
0.0
176
     1
 90
        0
176
     1
290
     0
176
     1
290
     1
176
     1
290
     1
176
     1
290
     0
176
     1
290
     0
176
     1
290
     0
176
     1
290
     0
176
     1
290
     0
176
     1
290
     0
176
     1
 90
       50
176
     1
 40
0.0
176
     1
 40
1.0
176
     1
 90
        0
176
     1
 62
    18
420
        0
176
     1
 90
       50
176
     1
 90
        3
176
     1
 62
     5
420
      255
176
     1
290
     0
176
     1
 90
       50
176
     1
 90
       50
176
     1
 90
       50
176
     1
290
     0
176
     1
 90
       50
176
     1
 62
   256
176
     0
 40
1.0
176
     0
 90
        2
176
     1
  1
strokes_ogs.tif
176
     1
290
     0
176
     1
 40
1.0
176
     1
 40
1.0
176
     1
1001
ACAD
1000
AcDbSavedByObjectVersion
1070
     0
  0
VISUALSTYLE
  5
36
102
{ACAD_REACTORS
330
29
102
}
330
29
100
AcDbVisualStyle
  2
Thicken
 70
    13
177
     3
291
     1
 70
    58
 90
        2
176
     1
 90
        2
176
     1
 90
        0
176
     1
 90
        0
176
     1
 40
0.6
176
     1
 40
30.0
176
     1
 62
     7
420
 16777215
176
     1
 90
        1
176
     1
 90
        4
176
     1
 62
     7
176
     1
 62
   257
176
     1
 90
        1
176
     1
 90
        1
176
     1
 40
1.0
176
     1
 90
       12
176
     1
 62
     7
176
     1
 40
1.0
176
     1
 90
        1
176
     1
 90
        6
176
     1
 90
        2
176
     1
 62
     7
176
     1
 90
        5
176
     1
 90
        0
176
     1
 90
        0
176
     1
290
     0
176
     1
 90
        1
176
     1
 40
0.0
176
     1
 90
        0
176
     1
290
     0
176
     1
290
     1
176
     1
290
     1
176
     1
290
     0
176
     1
290
     0
176
     1
290
     0
176
     1
290
     0
176
     1
290
     0
176
     1
290
     0
176
     1
 90
       50
176
     1
 40
0.0
176
     1
 40
1.0
176
     1
 90
        0
176
     1
 62
    18
420
        0
176
     1
 90
       50
176
     1
 90
        3
176
     1
 62
     5
420
      255
176
     1
290
     0
176
     1
 90
       50
176
     1
 90
       50
176
     1
 90
       50
176
     1
290
     0
176
     1
 90
       50
176
     1
 62
   256
176
     0
 40
1.0
176
     0
 90
        2
176
     1
  1
strokes_ogs.tif
176
     1
290
     0
176
     1
 40
1.0
176
     1
 40
1.0
176
     1
1001
ACAD
1000
AcDbSavedByObjectVersion
1070
     0
  0
VISUALSTYLE
  5
30
102
{ACAD_REACTORS
330
29
102
}
330
29
100
AcDbVisualStyle
  2
Wireframe
 70
     5
177
     3
291
     0
 70
    58
 90
        0
176
     1
 90
        2
176
     1
 90
        0
176
     1
 90
        0
176
     1
 40
0.6
176
     1
 40
30.0
176
     1
 62
     7
420
 16777215
176
     1
 90
        1
176
     1
 90
        4
176
     1
 62
     7
176
     1
 62
   257
176
     1
 90
        1
176
     1
 90
        1
176
     1
 40
1.0
176
     1
 90
        0
176
     1
 62
   257
176
     1
 40
1.0
176
     1
 90
        1
176
     1
 90
        6
176
     1
 90
        2
176
     1
 62
     7
176
     1
 90
        3
176
     1
 90
        0
176
     1
 90
        0
176
     1
290
     0
176
     1
 90
        1
176
     1
 40
0.0
176
     1
 90
        0
176
     1
290
     0
176
     1
290
     1
176
     1
290
     1
176
     1
290
     0
176
     1
290
     0
176
     1
290
     0
176
     1
290
     0
176
     1
290
     0
176
     1
290
     0
176
     1
 90
       50
176
     1
 40
0.0
176
     1
 40
1.0
176
     1
 90
        0
176
     1
 62
    18
420
        0
176
     1
 90
       50
176
     1
 90
        3
176
     1
 62
     5
420
      255
176
     1
290
     0
176
     1
 90
       50
176
     1
 90
       50
176
     1
 90
       50
176
     1
290
     0
176
     1
 90
       50
176
     1
 62
   256
176
     0
 40
1.0
176
     0
 90
        2
176
     1
  1
strokes_ogs.tif
176
     1
290
     0
176
     1
 40
1.0
176
     1
 40
1.0
176
     1
1001
ACAD
1000
AcDbSavedByObjectVersion
1070
     0
  0
VISUALSTYLE
  5
3C
102
{ACAD_REACTORS
330
29
102
}
330
29
100
AcDbVisualStyle
  2
X-Ray
 70
    25
177
     3
291
     0
 70
    58
 90
        2
176
     1
 90
        2
176
     1
 90
        1
176
     1
 90
        1
176
     1
 40
0.5
176
     1
 40
30.0
176
     1
 62
     7
420
 16777215
176
     1
 90
        1
176
     1
 90
        0
176
     1
 62
     7
176
     1
 62
   257
176
     1
 90
        1
176
     1
 90
        1
176
     1
 40
1.0
176
     1
 90
        8
176
     1
 62
     7
176
     1
 40
1.0
176
     1
 90
        1
176
     1
 90
        6
176
     1
 90
        2
176
     1
 62
     7
176
     1
 90
        3
176
     1
 90
        0
176
     1
 90
        0
176
     1
290
     0
176
     1
 90
       13
176
     1
 40
0.0
176
     1
 90
        0
176
     1
290
     0
176
     1
290
     1
176
     1
290
     1
176
     1
290
     0
176
     1
290
     0
176
     1
290
     0
176
     1
290
     0
176
     1
290
     0
176
     1
290
     0
176
     1
 90
       50
176
     1
 40
0.0
176
     1
 40
1.0
176
     1
 90
        0
176
     1
 62
    18
420
        0
176
     1
 90
       50
176
     1
 90
        3
176
     1
 62
     5
420
      255
176
     1
290
     0
176
     1
 90
       50
176
     1
 90
       50
176
     1
 90
       50
176
     1
290
     0
176
     1
 90
       50
176
     1
 62
   256
176
     0
 40
1.0
176
     0
 90
        2
176
     1
  1
strokes_ogs.tif
176
     1
290
     0
176
     1
 40
1.0
176
     1
 40
1.0
176
     1
1001
ACAD
1000
AcDbSavedByObjectVersion
1070
     0
  0
DICTIONARYVAR
  5
81
102
{ACAD_REACTORS
330
7C
102
}
330
7C
100
DictionaryVariables
280
     0
  1
1:1
  0
DICTIONARYVAR
  5
7E
102
{ACAD_REACTORS
330
7C
102
}
330
7C
100
DictionaryVariables
280
     0
  1
STANDARD
  0
DICTIONARYVAR
  5
7D
102
{ACAD_REACTORS
330
7C
102
}
330
7C
100
DictionaryVariables
280
     0
  1
STANDARD
  0
DICTIONARYVAR
  5
7F
102
{ACAD_REACTORS
330
7C
102
}
330
7C
100
DictionaryVariables
280
     0
  1
Imperial24
  0
DICTIONARYVAR
  5
80
102
{ACAD_REACTORS
330
7C
102
}
330
7C
100
DictionaryVariables
280
     0
  1
Imperial24
  0
DICTIONARY
  5
87
330
6B
100
AcDbDictionary
280
     1
281
     1
  3
ACAD_XREC_ROUNDTRIP
360
88
  0
DICTIONARY
  5
1A
330
19
100
AcDbDictionary
280
     1
281
     1
  3
BUMPTILE
360
1C
  3
DIFFUSETILE
360
1B
  3
OPACITYTILE
360
1F
  3
REFLECTIONTILE
360
1E
  3
REFRACTIONTILE
360
20
  3
SPECULARTILE
360
1D
  0
DICTIONARY
  5
12
330
11
100
AcDbDictionary
280
     1
281
     1
  3
BUMPTILE
360
14
  3
DIFFUSETILE
360
13
  3
OPACITYTILE
360
17
  3
REFLECTIONTILE
360
16
  3
REFRACTIONTILE
360
18
  3
SPECULARTILE
360
15
  0
DICTIONARY
  5
22
330
21
100
AcDbDictionary
280
     1
281
     1
  3
BUMPTILE
360
24
  3
DIFFUSETILE
360
23
  3
OPACITYTILE
360
27
  3
REFLECTIONTILE
360
26
  3
REFRACTIONTILE
360
28
  3
SPECULARTILE
360
25
  0
DICTIONARY
  5
85
330
69
100
AcDbDictionary
280
     1
281
     1
  3
ACAD_XREC_ROUNDTRIP
360
86
  0
DICTIONARY
  5
82
330
65
100
AcDbDictionary
280
     1
281
     1
  3
ACAD_ROUNDTRIP_2008_TABLESTYLE_CELLSTYLEMAP
360
83
  0
XRECORD
  5
88
102
{ACAD_REACTORS
330
87
102
}
330
87
100
AcDbXrecord
280
     1
102
DISPLAYNAME
  1
Imperial24
102
FLAGS
 90
        0
  0
XRECORD
  5
1C
102
{ACAD_REACTORS
330
1A
102
}
330
1A
100
AcDbXrecord
280
     1
270
     1
271
     1
  0
XRECORD
  5
1B
102
{ACAD_REACTORS
330
1A
102
}
330
1A
100
AcDbXrecord
280
     1
270
     1
271
     1
  0
XRECORD
  5
1F
102
{ACAD_REACTORS
330
1A
102
}
330
1A
100
AcDbXrecord
280
     1
270
     1
271
     1
  0
XRECORD
  5
1E
102
{ACAD_REACTORS
330
1A
102
}
330
1A
100
AcDbXrecord
280
     1
270
     1
271
     1
  0
XRECORD
  5
20
102
{ACAD_REACTORS
330
1A
102
}
330
1A
100
AcDbXrecord
280
     1
270
     1
271
     1
  0
XRECORD
  5
1D
102
{ACAD_REACTORS
330
1A
102
}
330
1A
100
AcDbXrecord
280
     1
270
     1
271
     1
  0
XRECORD
  5
14
102
{ACAD_REACTORS
330
12
102
}
330
12
100
AcDbXrecord
280
     1
270
     1
271
     1
  0
XRECORD
  5
13
102
{ACAD_REACTORS
330
12
102
}
330
12
100
AcDbXrecord
280
     1
270
     1
271
     1
  0
XRECORD
  5
17
102
{ACAD_REACTORS
330
12
102
}
330
12
100
AcDbXrecord
280
     1
270
     1
271
     1
  0
XRECORD
  5
16
102
{ACAD_REACTORS
330
12
102
}
330
12
100
AcDbXrecord
280
     1
270
     1
271
     1
  0
XRECORD
  5
18
102
{ACAD_REACTORS
330
12
102
}
330
12
100
AcDbXrecord
280
     1
270
     1
271
     1
  0
XRECORD
  5
15
102
{ACAD_REACTORS
330
12
102
}
330
12
100
AcDbXrecord
280
     1
270
     1
271
     1
  0
XRECORD
  5
24
102
{ACAD_REACTORS
330
22
102
}
330
22
100
AcDbXrecord
280
     1
270
     1
271
     1
  0
XRECORD
  5
23
102
{ACAD_REACTORS
330
22
102
}
330
22
100
AcDbXrecord
280
     1
270
     1
271
     1
  0
XRECORD
  5
27
102
{ACAD_REACTORS
330
22
102
}
330
22
100
AcDbXrecord
280
     1
270
     1
271
     1
  0
XRECORD
  5
26
102
{ACAD_REACTORS
330
22
102
}
330
22
100
AcDbXrecord
280
     1
270
     1
271
     1
  0
XRECORD
  5
28
102
{ACAD_REACTORS
330
22
102
}
330
22
100
AcDbXrecord
280
     1
270
     1
271
     1
  0
XRECORD
  5
25
102
{ACAD_REACTORS
330
22
102
}
330
22
100
AcDbXrecord
280
     1
270
     1
271
     1
  0
XRECORD
  5
86
102
{ACAD_REACTORS
330
85
102
}
330
85
100
AcDbXrecord
280
     1
102
DISPLAYNAME
  1
Imperial24
102
FLAGS
 90
        0
  0
CELLSTYLEMAP
  5
83
102
{ACAD_REACTORS
330
82
102
}
330
82
100
AcDbCellStyleMap
 90
        3
300
CELLSTYLE
  1
TABLEFORMAT_BEGIN
 90
        5
170
     1
 91
        0
 92
    32768
 62
   257
 93
        1
300
CONTENTFORMAT
  1
CONTENTFORMAT_BEGIN
 90
        0
 91
        0
 92
      512
 93
        0
300

 40
0.0
140
1.0
 94
        5
 62
     0
340
55
144
0.25
309
CONTENTFORMAT_END
171
     0
 94
        0
309
TABLEFORMAT_END
  1
CELLSTYLE_BEGIN
 90
        1
 91
        1
300
_TITLE
309
CELLSTYLE_END
300
CELLSTYLE
  1
TABLEFORMAT_BEGIN
 90
        5
170
     1
 91
        0
 92
        0
 62
   257
 93
        1
300
CONTENTFORMAT
  1
CONTENTFORMAT_BEGIN
 90
        0
 91
        0
 92
      512
 93
        0
300

 40
0.0
140
1.0
 94
        5
 62
     0
340
55
144
0.18
309
CONTENTFORMAT_END
171
     0
 94
        0
309
TABLEFORMAT_END
  1
CELLSTYLE_BEGIN
 90
        2
 91
        1
300
_HEADER
309
CELLSTYLE_END
300
CELLSTYLE
  1
TABLEFORMAT_BEGIN
 90
        5
170
     1
 91
        0
 92
        0
 62
   257
 93
        1
300
CONTENTFORMAT
  1
CONTENTFORMAT_BEGIN
 90
        0
 91
        0
 92
      512
 93
        0
300

 40
0.0
140
1.0
 94
        2
 62
     0
340
55
144
0.18
309
CONTENTFORMAT_END
171
     0
 94
        0
309
TABLEFORMAT_END
  1
CELLSTYLE_BEGIN
 90
        3
 91
        2
300
_DATA
309
CELLSTYLE_END
  0
ENDSEC
  0
EOF
