  0
SECTION
  2
HEADER
  9
$ACADVER
  1
AC1027
  9
$ACADMAINTVER
 70
   125
  9
$DWGCODEPAGE
  3
ANSI_1252
  9
$REQUIREDVERSIONS
160
                 0
  9
$INSBASE
 10
0.0
 20
0.0
 30
0.0
  9
$EXTMIN
 10
1.000000000000000E+20
 20
1.000000000000000E+20
 30
1.000000000000000E+20
  9
$EXTMAX
 10
-1.000000000000000E+20
 20
-1.000000000000000E+20
 30
-1.000000000000000E+20
  9
$LIMMIN
 10
0.0
 20
0.0
  9
$LIMMAX
 10
12.0
 20
9.0
  9
$ORTHOMODE
 70
     0
  9
$REGENMODE
 70
     1
  9
$FILLMODE
 70
     1
  9
$QTEXTMODE
 70
     0
  9
$MIRRTEXT
 70
     0
  9
$LTSCALE
 40
1.0
  9
$ATTMODE
 70
     1
  9
$TEXTSIZE
 40
0.2
  9
$TRACEWID
 40
0.05
  9
$TEXTSTYLE
  7
Standard
  9
$CLAYER
  8
0
  9
$CELTYPE
  6
ByLayer
  9
$CECOLOR
 62
   256
  9
$CELTSCALE
 40
1.0
  9
$DISPSILH
 70
     0
  9
$DIMSCALE
 40
1.0
  9
$DIMASZ
 40
0.18
  9
$DIMEXO
 40
0.0625
  9
$DIMDLI
 40
0.38
  9
$DIMRND
 40
0.0
  9
$DIMDLE
 40
0.0
  9
$DIMEXE
 40
0.18
  9
$DIMTP
 40
0.0
  9
$DIMTM
 40
0.0
  9
$DIMTXT
 40
0.18
  9
$DIMCEN
 40
0.09
  9
$DIMTSZ
 40
0.0
  9
$DIMTOL
 70
     0
  9
$DIMLIM
 70
     0
  9
$DIMTIH
 70
     1
  9
$DIMTOH
 70
     1
  9
$DIMSE1
 70
     0
  9
$DIMSE2
 70
     0
  9
$DIMTAD
 70
     0
  9
$DIMZIN
 70
     0
  9
$DIMBLK
  1

  9
$DIMASO
 70
     1
  9
$DIMSHO
 70
     1
  9
$DIMPOST
  1

  9
$DIMAPOST
  1

  9
$DIMALT
 70
     0
  9
$DIMALTD
 70
     2
  9
$DIMALTF
 40
25.4
  9
$DIMLFAC
 40
1.0
  9
$DIMTOFL
 70
     0
  9
$DIMTVP
 40
0.0
  9
$DIMTIX
 70
     0
  9
$DIMSOXD
 70
     0
  9
$DIMSAH
 70
     0
  9
$DIMBLK1
  1

  9
$DIMBLK2
  1

  9
$DIMSTYLE
  2
Standard
  9
$DIMCLRD
 70
     0
  9
$DIMCLRE
 70
     0
  9
$DIMCLRT
 70
     0
  9
$DIMTFAC
 40
1.0
  9
$DIMGAP
 40
0.09
  9
$DIMJUST
 70
     0
  9
$DIMSD1
 70
     0
  9
$DIMSD2
 70
     0
  9
$DIMTOLJ
 70
     1
  9
$DIMTZIN
 70
     0
  9
$DIMALTZ
 70
     0
  9
$DIMALTTZ
 70
     0
  9
$DIMUPT
 70
     0
  9
$DIMDEC
 70
     4
  9
$DIMTDEC
 70
     4
  9
$DIMALTU
 70
     2
  9
$DIMALTTD
 70
     2
  9
$DIMTXSTY
  7
Standard
  9
$DIMAUNIT
 70
     0
  9
$DIMADEC
 70
     0
  9
$DIMALTRND
 40
0.0
  9
$DIMAZIN
 70
     0
  9
$DIMDSEP
 70
    46
  9
$DIMATFIT
 70
     3
  9
$DIMFRAC
 70
     0
  9
$DIMLDRBLK
  1

  9
$DIMLUNIT
 70
     2
  9
$DIMLWD
 70
    -2
  9
$DIMLWE
 70
    -2
  9
$DIMTMOVE
 70
     0
  9
$DIMFXL
 40
1.0
  9
$DIMFXLON
 70
     0
  9
$DIMJOGANG
 40
0.7853981633974483
  9
$DIMTFILL
 70
     0
  9
$DIMTFILLCLR
 70
     0
  9
$DIMARCSYM
 70
     0
  9
$DIMLTYPE
  6

  9
$DIMLTEX1
  6

  9
$DIMLTEX2
  6

  9
$DIMTXTDIRECTION
 70
     0
  9
$LUNITS
 70
     2
  9
$LUPREC
 70
     4
  9
$SKETCHINC
 40
0.1
  9
$FILLETRAD
 40
0.0
  9
$AUNITS
 70
     0
  9
$AUPREC
 70
     0
  9
$MENU
  1
.
  9
$ELEVATION
 40
0.0
  9
$PELEVATION
 40
0.0
  9
$THICKNESS
 40
0.0
  9
$LIMCHECK
 70
     0
  9
$CHAMFERA
 40
0.0
  9
$CHAMFERB
 40
0.0
  9
$CHAMFERC
 40
0.0
  9
$CHAMFERD
 40
0.0
  9
$SKPOLY
 70
     0
  9
$TDCREATE
 40
2460148.965196760
  9
$TDUCREATE
 40
2460148.881863426
  9
$TDUPDATE
 40
2460148.965196760
  9
$TDUUPDATE
 40
2460148.881863426
  9
$TDINDWG
 40
0.0000000000
  9
$TDUSRTIMER
 40
0.0000000000
  9
$USRTIMER
 70
     1
  9
$ANGBASE
 50
0.0
  9
$ANGDIR
 70
     0
  9
$PDMODE
 70
     0
  9
$PDSIZE
 40
0.0
  9
$PLINEWID
 40
0.0
  9
$SPLFRAME
 70
     0
  9
$SPLINETYPE
 70
     6
  9
$SPLINESEGS
 70
     8
  9
$HANDSEED
  5
8B
  9
$SURFTAB1
 70
     6
  9
$SURFTAB2
 70
     6
  9
$SURFTYPE
 70
     6
  9
$SURFU
 70
     6
  9
$SURFV
 70
     6
  9
$UCSBASE
  2

  9
$UCSNAME
  2

  9
$UCSORG
 10
0.0
 20
0.0
 30
0.0
  9
$UCSXDIR
 10
1.0
 20
0.0
 30
0.0
  9
$UCSYDIR
 10
0.0
 20
1.0
 30
0.0
  9
$UCSORTHOREF
  2

  9
$UCSORTHOVIEW
 70
     0
  9
$UCSORGTOP
 10
0.0
 20
0.0
 30
0.0
  9
$UCSORGBOTTOM
 10
0.0
 20
0.0
 30
0.0
  9
$UCSORGLEFT
 10
0.0
 20
0.0
 30
0.0
  9
$UCSORGRIGHT
 10
0.0
 20
0.0
 30
0.0
  9
$UCSORGFRONT
 10
0.0
 20
0.0
 30
0.0
  9
$UCSORGBACK
 10
0.0
 20
0.0
 30
0.0
  9
$PUCSBASE
  2

  9
$PUCSNAME
  2

  9
$PUCSORG
 10
0.0
 20
0.0
 30
0.0
  9
$PUCSXDIR
 10
1.0
 20
0.0
 30
0.0
  9
$PUCSYDIR
 10
0.0
 20
1.0
 30
0.0
  9
$PUCSORTHOREF
  2

  9
$PUCSORTHOVIEW
 70
     0
  9
$PUCSORGTOP
 10
0.0
 20
0.0
 30
0.0
  9
$PUCSORGBOTTOM
 10
0.0
 20
0.0
 30
0.0
  9
$PUCSORGLEFT
 10
0.0
 20
0.0
 30
0.0
  9
$PUCSORGRIGHT
 10
0.0
 20
0.0
 30
0.0
  9
$PUCSORGFRONT
 10
0.0
 20
0.0
 30
0.0
  9
$PUCSORGBACK
 10
0.0
 20
0.0
 30
0.0
  9
$USERI1
 70
     0
  9
$USERI2
 70
     0
  9
$USERI3
 70
     0
  9
$USERI4
 70
     0
  9
$USERI5
 70
     0
  9
$USERR1
 40
0.0
  9
$USERR2
 40
0.0
  9
$USERR3
 40
0.0
  9
$USERR4
 40
0.0
  9
$USERR5
 40
0.0
  9
$WORLDVIEW
 70
     1
  9
$SHADEDGE
 70
     3
  9
$SHADEDIF
 70
    70
  9
$TILEMODE
 70
     1
  9
$MAXACTVP
 70
    64
  9
$PINSBASE
 10
0.0
 20
0.0
 30
0.0
  9
$PLIMCHECK
 70
     0
  9
$PEXTMIN
 10
1.000000000000000E+20
 20
1.000000000000000E+20
 30
1.000000000000000E+20
  9
$PEXTMAX
 10
-1.000000000000000E+20
 20
-1.000000000000000E+20
 30
-1.000000000000000E+20
  9
$PLIMMIN
 10
0.0
 20
0.0
  9
$PLIMMAX
 10
12.0
 20
9.0
  9
$UNITMODE
 70
     0
  9
$VISRETAIN
 70
     1
  9
$PLINEGEN
 70
     0
  9
$PSLTSCALE
 70
     1
  9
$TREEDEPTH
 70
  3020
  9
$CMLSTYLE
  2
Standard
  9
$CMLJUST
 70
     0
  9
$CMLSCALE
 40
1.0
  9
$PROXYGRAPHICS
 70
     1
  9
$MEASUREMENT
 70
     0
  9
$CELWEIGHT
370
    -1
  9
$ENDCAPS
280
     0
  9
$JOINSTYLE
280
     0
  9
$LWDISPLAY
290
     1
  9
$INSUNITS
 70
     4
  9
$HYPERLINKBASE
  1

  9
$STYLESHEET
  1

  9
$XEDIT
290
     1
  9
$CEPSNTYPE
380
     0
  9
$PSTYLEMODE
290
     1
  9
$FINGERPRINTGUID
  2
{E8051702-5846-1645-913A-D2E728774AE7}
  9
$VERSIONGUID
  2
{4553B29D-A1A7-4846-962D-9844ECB52356}
  9
$EXTNAMES
290
     1
  9
$PSVPSCALE
 40
0.0
  9
$OLESTARTUP
290
     0
  9
$SORTENTS
280
   127
  9
$INDEXCTL
280
     0
  9
$HIDETEXT
280
     1
  9
$XCLIPFRAME
280
     2
  9
$HALOGAP
280
     0
  9
$OBSCOLOR
 70
   257
  9
$OBSLTYPE
280
     0
  9
$INTERSECTIONDISPLAY
280
     0
  9
$INTERSECTIONCOLOR
 70
   257
  9
$DIMASSOC
280
     2
  9
$PROJECTNAME
  1

  9
$CAMERADISPLAY
290
     0
  9
$LENSLENGTH
 40
50.0
  9
$CAMERAHEIGHT
 40
0.0
  9
$STEPSPERSEC
 40
2.0
  9
$STEPSIZE
 40
6.0
  9
$3DDWFPREC
 40
2.0
  9
$PSOLWIDTH
 40
0.25
  9
$PSOLHEIGHT
 40
4.0
  9
$LOFTANG1
 40
1.570796326794896
  9
$LOFTANG2
 40
1.570796326794896
  9
$LOFTMAG1
 40
0.0
  9
$LOFTMAG2
 40
0.0
  9
$LOFTPARAM
 70
     7
  9
$LOFTNORMALS
280
     1
  9
$LATITUDE
 40
37.795
  9
$LONGITUDE
 40
-122.394
  9
$NORTHDIRECTION
 40
0.0
  9
$TIMEZONE
 70
 -8000
  9
$LIGHTGLYPHDISPLAY
280
     1
  9
$TILEMODELIGHTSYNCH
280
     1
  9
$CMATERIAL
347
11
  9
$SOLIDHIST
280
     0
  9
$SHOWHIST
280
     1
  9
$DWFFRAME
280
     2
  9
$DGNFRAME
280
     0
  9
$REALWORLDSCALE
290
     1
  9
$INTERFERECOLOR
 62
     1
  9
$INTERFEREOBJVS
345
33
  9
$INTERFEREVPVS
346
30
  9
$CSHADOW
280
     0
  9
$SHADOWPLANELOCATION
 40
0.0
  0
ENDSEC
  0
SECTION
  2
CLASSES
  0
CLASS
  1
ACDBDICTIONARYWDFLT
  2
AcDbDictionaryWithDefault
  3
ObjectDBX Classes
 90
        0
 91
        1
280
     0
281
     0
  0
CLASS
  1
MATERIAL
  2
AcDbMaterial
  3
ObjectDBX Classes
 90
     1153
 91
        3
280
     0
281
     0
  0
CLASS
  1
VISUALSTYLE
  2
AcDbVisualStyle
  3
ObjectDBX Classes
 90
     4095
 91
       24
280
     0
281
     0
  0
CLASS
  1
SCALE
  2
AcDbScale
  3
ObjectDBX Classes
 90
     1153
 91
       17
280
     0
281
     0
  0
CLASS
  1
TABLESTYLE
  2
AcDbTableStyle
  3
ObjectDBX Classes
 90
     4095
 91
        1
280
     0
281
     0
  0
CLASS
  1
MLEADERSTYLE
  2
AcDbMLeaderStyle
  3
ACDB_MLEADERSTYLE_CLASS
 90
     4095
 91
        1
280
     0
281
     0
  0
CLASS
  1
ACDBSECTIONVIEWSTYLE
  2
AcDbSectionViewStyle
  3
ObjectDBX Classes
 90
     1025
 91
        1
280
     0
281
     0
  0
CLASS
  1
ACDBDETAILVIEWSTYLE
  2
AcDbDetailViewStyle
  3
ObjectDBX Classes
 90
     1025
 91
        1
280
     0
281
     0
  0
CLASS
  1
DICTIONARYVAR
  2
AcDbDictionaryVar
  3
ObjectDBX Classes
 90
        0
 91
        5
280
     0
281
     0
  0
CLASS
  1
CELLSTYLEMAP
  2
AcDbCellStyleMap
  3
ObjectDBX Classes
 90
     1152
 91
        1
280
     0
281
     0
  0
ENDSEC
  0
SECTION
  2
TABLES
  0
TABLE
  2
VPORT
  5
8
330
0
100
AcDbSymbolTable
 70
     1
1001
ACAD
1000
DbSaveVer
1071
      205
  0
VPORT
  5
57
330
8
100
AcDbSymbolTableRecord
100
AcDbViewportTableRecord
  2
*Active
 70
     0
 10
0.0
 20
0.0
 11
1.0
 21
1.0
 12
0.0
 22
0.0
 13
0.0
 23
0.0
 14
1.0
 24
1.0
 15
0.0
 25
0.0
 16
0.0
 26
0.0
 36
1.0
 17
105.0000721959722
 27
-148.5000416295415
 37
0.0
 40
302.9400849242648
 41
0.707070995023103
 42
50.0
 43
0.0
 44
0.0
 50
0.0
 51
0.0
 71
     0
 72
   100
 73
     1
 74
     0
 75
     1
 76
     0
 77
     0
 78
     0
281
     0
 65
     1
110
0.0
120
0.0
130
0.0
111
1.0
121
0.0
131
0.0
112
0.0
122
1.0
132
0.0
 79
     0
146
0.0
 60
     3
 61
     5
292
     1
282
     1
141
0.0
142
0.0
 63
   250
421
  3355443
  0
ENDTAB
  0
TABLE
  2
LTYPE
  5
5
330
0
100
AcDbSymbolTable
 70
     1
  0
LTYPE
  5
5B
330
5
100
AcDbSymbolTableRecord
100
AcDbLinetypeTableRecord
  2
ByBlock
 70
     0
  3

 72
    65
 73
     0
 40
0.0
  0
LTYPE
  5
5C
330
5
100
AcDbSymbolTableRecord
100
AcDbLinetypeTableRecord
  2
ByLayer
 70
     0
  3

 72
    65
 73
     0
 40
0.0
  0
LTYPE
  5
5D
330
5
100
AcDbSymbolTableRecord
100
AcDbLinetypeTableRecord
  2
Continuous
 70
     0
  3
Solid line
 72
    65
 73
     0
 40
0.0
  0
ENDTAB
  0
TABLE
  2
LAYER
  5
2
330
0
100
AcDbSymbolTable
 70
     3
  0
LAYER
  5
54
330
2
100
AcDbSymbolTableRecord
100
AcDbLayerTableRecord
  2
0
 70
     0
 62
     7
  6
Continuous
370
    -3
390
F
347
21
348
0
  0
LAYER
  5
78
330
2
100
AcDbSymbolTableRecord
100
AcDbLayerTableRecord
  2
Layer 2
 70
     1
 62
     7
  6
Continuous
370
     0
390
F
347
21
348
0
  0
LAYER
  5
79
330
2
100
AcDbSymbolTableRecord
100
AcDbLayerTableRecord
  2
Layer 1
 70
     0
 62
     7
  6
Continuous
370
     0
390
F
347
21
348
0
  0
ENDTAB
  0
TABLE
  2
STYLE
  5
3
330
0
100
AcDbSymbolTable
 70
     2
  0
STYLE
  5
55
330
3
100
AcDbSymbolTableRecord
100
AcDbTextStyleTableRecord
  2
Standard
 70
     0
 40
0.0
 41
1.0
 50
0.0
 71
     0
 42
0.2
  3
txt
  4

  0
STYLE
  5
5A
330
3
100
AcDbSymbolTableRecord
100
AcDbTextStyleTableRecord
  2
Annotative
 70
     0
 40
0.0
 41
1.0
 50
0.0
 71
     0
 42
0.2
  3
txt
  4

1001
AcadAnnotative
1000
AnnotativeData
1002
{
1070
     1
1070
     1
1002
}
  0
ENDTAB
  0
TABLE
  2
VIEW
  5
6
330
0
100
AcDbSymbolTable
 70
     0
  0
ENDTAB
  0
TABLE
  2
UCS
  5
7
330
0
100
AcDbSymbolTable
 70
     0
  0
ENDTAB
  0
TABLE
  2
APPID
  5
9
330
0
100
AcDbSymbolTable
 70
     2
  0
APPID
  5
56
330
9
100
AcDbSymbolTableRecord
100
AcDbRegAppTableRecord
  2
ACAD
 70
     0
  0
APPID
  5
5E
330
9
100
AcDbSymbolTableRecord
100
AcDbRegAppTableRecord
  2
AcadAnnotative
 70
     0
  0
ENDTAB
  0
TABLE
  2
DIMSTYLE
  5
A
330
0
100
AcDbSymbolTable
 70
     2
100
AcDbDimStyleTable
 71
     0
  0
DIMSTYLE
105
58
330
A
100
AcDbSymbolTableRecord
100
AcDbDimStyleTableRecord
  2
Standard
 70
     0
340
55
  0
DIMSTYLE
105
59
330
A
100
AcDbSymbolTableRecord
100
AcDbDimStyleTableRecord
  2
Annotative
 70
     0
340
55
1001
AcadAnnotative
1000
AnnotativeData
1002
{
1070
     1
1070
     1
1002
}
  0
ENDTAB
  0
TABLE
  2
BLOCK_RECORD
  5
1
330
0
100
AcDbSymbolTable
 70
     1
  0
BLOCK_RECORD
  5
70
330
1
100
AcDbSymbolTableRecord
100
AcDbBlockTableRecord
  2
*Model_Space
340
73
 70
     0
280
     1
281
     0
  0
BLOCK_RECORD
  5
6C
330
1
100
AcDbSymbolTableRecord
100
AcDbBlockTableRecord
  2
*Paper_Space
340
6F
 70
     0
280
     1
281
     0
  0
BLOCK_RECORD
  5
74
330
1
100
AcDbSymbolTableRecord
100
AcDbBlockTableRecord
  2
*Paper_Space0
340
77
 70
     0
280
     1
281
     0
  0
ENDTAB
  0
ENDSEC
  0
SECTION
  2
BLOCKS
  0
BLOCK
  5
71
330
70
100
AcDbEntity
  8
0
100
AcDbBlockBegin
  2
*Model_Space
 70
     0
 10
0.0
 20
0.0
 30
0.0
  3
*Model_Space
  1

  0
ENDBLK
  5
72
330
70
100
AcDbEntity
  8
0
100
AcDbBlockEnd
  0
BLOCK
  5
6D
330
6C
100
AcDbEntity
 67
     1
  8
0
100
AcDbBlockBegin
  2
*Paper_Space
 70
     0
 10
0.0
 20
0.0
 30
0.0
  3
*Paper_Space
  1

  0
ENDBLK
  5
6E
330
6C
100
AcDbEntity
 67
     1
  8
0
100
AcDbBlockEnd
  0
BLOCK
  5
75
330
74
100
AcDbEntity
 67
     1
  8
0
100
AcDbBlockBegin
  2
*Paper_Space0
 70
     0
 10
0.0
 20
0.0
 30
0.0
  3
*Paper_Space0
  1

  0
ENDBLK
  5
76
330
74
100
AcDbEntity
 67
     1
  8
0
100
AcDbBlockEnd
  0
ENDSEC
  0
SECTION
  2
ENTITIES
  0
SPLINE
  5
7A
330
70
100
AcDbEntity
  8
Layer 1
 62
    12
420
 14878227
370
    35
100
AcDbSpline
210
0.0
220
0.0
230
1.0
 70
     9
 71
     3
 72
    53
 73
    49
 74
     0
 42
0.0000000001
 43
0.0000000001
 40
0.0
 40
0.0
 40
0.0
 40
0.0
 40
1.0
 40
1.0
 40
1.0
 40
2.0
 40
2.0
 40
2.0
 40
3.0
 40
3.0
 40
3.0
 40
4.0
 40
4.0
 40
4.0
 40
5.0
 40
5.0
 40
5.0
 40
6.0
 40
6.0
 40
6.0
 40
7.0
 40
7.0
 40
7.0
 40
8.0
 40
8.0
 40
8.0
 40
9.0
 40
9.0
 40
9.0
 40
10.0
 40
10.0
 40
10.0
 40
11.0
 40
11.0
 40
11.0
 40
12.0
 40
12.0
 40
12.0
 40
13.0
 40
13.0
 40
13.0
 40
14.0
 40
14.0
 40
14.0
 40
15.0
 40
15.0
 40
15.0
 40
16.0
 40
16.0
 40
16.0
 40
16.0
 10
136.0959565039665
 20
-119.4097456983047
 30
0.0
 10
136.0994189310748
 20
-119.5746261957015
 30
0.0
 10
136.146689506047
 20
-119.7395066930987
 30
0.0
 10
136.1743607730993
 20
-119.9032400855801
 30
0.0
 10
136.1870422642563
 20
-119.9020859432107
 30
0.0
 10
136.2008849352351
 20
-119.9009318008413
 30
0.0
 10
136.2147205687616
 20
-119.8997776584718
 30
0.0
 10
136.2147205687616
 20
-119.8997776584718
 30
0.0
 10
136.2147205687616
 20
-121.3341303127894
 30
0.0
 10
136.2147205687616
 20
-121.3341303127894
 30
0.0
 10
136.0152439500956
 20
-121.1115989965491
 30
0.0
 10
135.8376819615414
 20
-120.9398006823887
 30
0.0
 10
135.6889453824095
 20
-120.7460947755702
 30
0.0
 10
134.7699876705726
 20
-119.5561810301513
 30
0.0
 10
133.9144514894261
 20
-118.3132259979138
 30
0.0
 10
132.6542054340078
 20
-117.432326834454
 30
0.0
 10
132.2748585420494
 20
-117.1671274378123
 30
0.0
 10
131.9370255881221
 20
-116.8408288701259
 30
0.0
 10
131.598038491826
 20
-116.5225952241191
 30
0.0
 10
131.5461513473761
 20
-116.4741705067775
 30
0.0
 10
131.598038491826
 20
-116.3162078261436
 30
0.0
 10
131.6026550613037
 20
-116.2089711101361
 30
0.0
 10
131.6845147200911
 20
-116.2205054963767
 30
0.0
 10
131.7709909483555
 20
-116.2562487225616
 30
0.0
 10
131.845939827833
 20
-116.2401048042963
 30
0.0
 10
132.0926870214712
 20
-116.1847622701921
 30
0.0
 10
132.3336635032616
 20
-116.1098133907146
 30
0.0
 10
132.590790940771
 20
-116.0394810807146
 30
0.0
 10
132.595400472795
 20
-116.0613886733733
 30
0.0
 10
133.2364772968339
 20
-116.3254268901916
 30
0.0
 10
133.4520907963109
 20
-115.8815184000806
 30
0.0
 10
133.5869917419176
 20
-115.931097259791
 30
0.0
 10
133.7276633993702
 20
-116.040635223084
 30
0.0
 10
133.8302835459006
 20
-116.0118098136623
 30
0.0
 10
134.392949063353
 20
-115.857302522683
 30
0.0
 10
134.914114717681
 20
-116.159392250425
 30
0.0
 10
135.4617974966912
 20
-116.1340292681116
 30
0.0
 10
135.6243767468032
 20
-116.1271114513487
 30
0.0
 10
136.0094802757021
 20
-116.2239608860316
 30
0.0
 10
136.1685970987058
 20
-116.5883180020948
 30
0.0
 10
136.2181759584162
 20
-116.703619639781
 30
0.0
 10
136.1501519331553
 20
-117.0368430616839
 30
0.0
 10
136.2608370013643
 20
-116.9618941822061
 30
0.0
 10
136.2758267772596
 20
-117.3054908105266
 30
0.0
 10
136.2308574495732
 20
-117.6341047004052
 30
0.0
 10
136.3161865729219
 20
-117.9246600419067
 30
0.0
 10
136.476450500842
 20
-118.470041573632
 30
0.0
 10
136.0844291551796
 20
-118.9058781046111
 30
0.0
 10
136.0959565039665
 20
-119.4097456983047
 30
0.0
  0
SPLINE
  5
7B
330
70
100
AcDbEntity
  8
Layer 1
 62
    12
420
 14878227
370
    35
100
AcDbSpline
210
0.0
220
0.0
230
1.0
 70
     9
 71
     3
 72
    92
 73
    88
 74
     0
 42
0.0000000001
 43
0.0000000001
 40
0.0
 40
0.0
 40
0.0
 40
0.0
 40
1.0
 40
1.0
 40
1.0
 40
2.0
 40
2.0
 40
2.0
 40
3.0
 40
3.0
 40
3.0
 40
4.0
 40
4.0
 40
4.0
 40
5.0
 40
5.0
 40
5.0
 40
6.0
 40
6.0
 40
6.0
 40
7.0
 40
7.0
 40
7.0
 40
8.0
 40
8.0
 40
8.0
 40
9.0
 40
9.0
 40
9.0
 40
10.0
 40
10.0
 40
10.0
 40
11.0
 40
11.0
 40
11.0
 40
12.0
 40
12.0
 40
12.0
 40
13.0
 40
13.0
 40
13.0
 40
14.0
 40
14.0
 40
14.0
 40
15.0
 40
15.0
 40
15.0
 40
16.0
 40
16.0
 40
16.0
 40
17.0
 40
17.0
 40
17.0
 40
18.0
 40
18.0
 40
18.0
 40
19.0
 40
19.0
 40
19.0
 40
20.0
 40
20.0
 40
20.0
 40
21.0
 40
21.0
 40
21.0
 40
22.0
 40
22.0
 40
22.0
 40
23.0
 40
23.0
 40
23.0
 40
24.0
 40
24.0
 40
24.0
 40
25.0
 40
25.0
 40
25.0
 40
26.0
 40
26.0
 40
26.0
 40
27.0
 40
27.0
 40
27.0
 40
28.0
 40
28.0
 40
28.0
 40
29.0
 40
29.0
 40
29.0
 40
29.0
 10
105.8119855880922
 20
-192.7162242845754
 30
0.0
 10
105.8039136289592
 20
-192.7427414092576
 30
0.0
 10
105.796995812197
 20
-192.7681114290247
 30
0.0
 10
105.7912251003492
 20
-192.7946285537069
 30
0.0
 10
105.5790740279811
 20
-192.8995499475218
 30
0.0
 10
105.3669159181584
 20
-193.0044783787911
 30
0.0
 10
105.1432304595477
 20
-193.1151634469994
 30
0.0
 10
105.2124156646324
 20
-193.2373829014498
 30
0.0
 10
105.1028777013391
 20
-193.5279452804036
 30
0.0
 10
104.9241615704161
 20
-193.5002740133526
 30
0.0
 10
104.7892535873564
 20
-193.7712300469342
 30
0.0
 10
104.670496560015
 20
-194.0779363441546
 30
0.0
 10
104.4917804290917
 20
-194.3442828457121
 30
0.0
 10
104.3382973499864
 20
-194.5739263825446
 30
0.0
 10
104.1143627304218
 20
-194.7573753081497
 30
0.0
 10
103.9240303809107
 20
-194.9628392791283
 30
0.0
 10
103.8763250304691
 20
-195.0143372549787
 30
0.0
 10
103.8141006473376
 20
-195.1107777528355
 30
0.0
 10
103.7807139030003
 20
-195.1725286012501
 30
0.0
 10
103.4411223904707
 20
-195.8006241053008
 30
0.0
 10
102.9452618005023
 20
-196.2714641688585
 30
0.0
 10
102.3183403362299
 20
-196.6134182308864
 30
0.0
 10
102.0243225676202
 20
-196.7736891962602
 30
0.0
 10
101.8017912513799
 20
-197.5369854747468
 30
0.0
 10
102.0047232597006
 20
-197.4205296946912
 30
0.0
 10
101.2471906556059
 20
-196.9235799177608
 30
0.0
 10
100.5415451959613
 20
-196.4612192246462
 30
0.0
 10
99.88663273839673
 20
-196.0311463680604
 30
0.0
 10
99.77017695834053
 20
-195.8824027514748
 30
0.0
 10
99.67678291331287
 20
-195.7647998665029
 30
0.0
 10
99.58569715302374
 20
-195.6460358017084
 30
0.0
 10
99.43926182117706
 20
-195.4534840372584
 30
0.0
 10
99.20058658667183
 20
-195.3889154016521
 30
0.0
 10
99.0506958651699
 20
-195.1537025942552
 30
0.0
 10
98.87543512390122
 20
-194.8792841335653
 30
0.0
 10
98.50531433344453
 20
-194.7293863746097
 30
0.0
 10
98.21475899194307
 20
-194.5310709357674
 30
0.0
 10
97.81465864969527
 20
-194.2589607598152
 30
0.0
 10
97.39842142663585
 20
-194.0099052814388
 30
0.0
 10
97.01331086028394
 20
-193.7181957975685
 30
0.0
 10
96.81153299433242
 20
-193.5648426489589
 30
0.0
 10
96.66164227283081
 20
-193.3423113327177
 30
0.0
 10
96.42412118069501
 20
-193.0817285055543
 30
0.0
 10
96.65472445606759
 20
-193.0379133202368
 30
0.0
 10
96.85420107473362
 20
-192.9698892949759
 30
0.0
 10
97.05251651357684
 20
-192.9698892949759
 30
0.0
 10
97.42493855131868
 20
-192.9687351526064
 30
0.0
 10
97.79159691466738
 20
-193.0252318290797
 30
0.0
 10
98.17094380662583
 20
-192.9952522772886
 30
0.0
 10
98.50531433344453
 20
-192.9687351526064
 30
0.0
 10
98.86275363274483
 20
-193.0529030961327
 30
0.0
 10
99.18905923788457
 20
-193.1566773850312
 30
0.0
 10
99.44963502759458
 20
-193.239691186188
 30
0.0
 10
99.55571760123262
 20
-193.1416876091359
 30
0.0
 10
99.75403304007585
 20
-192.9998618093127
 30
0.0
 10
99.97080068192261
 20
-192.8442074134179
 30
0.0
 10
100.3086336358496
 20
-192.8176902887357
 30
0.0
 10
100.5957335876961
 20
-192.8096183296027
 30
0.0
 10
101.0027517467072
 20
-192.7980839433615
 30
0.0
 10
101.4155335801117
 20
-192.8983958051524
 30
0.0
 10
101.8202364169301
 20
-192.869570395732
 30
0.0
 10
102.144233737331
 20
-192.8465156981574
 30
0.0
 10
102.4567037089446
 20
-192.7381318772335
 30
0.0
 10
102.7853175988229
 20
-192.8707245381014
 30
0.0
 10
102.8291257466868
 20
-192.8880225987355
 30
0.0
 10
102.9605713026379
 20
-192.7623407171775
 30
0.0
 10
103.0089960199792
 20
-192.6781727736513
 30
0.0
 10
103.1508218198018
 20
-192.4360421494915
 30
0.0
 10
103.2764966639061
 20
-192.3230417590905
 30
0.0
 10
103.4840452417048
 20
-192.6251314868326
 30
0.0
 10
103.5209355728055
 20
-192.6793269160201
 30
0.0
 10
103.6719804366765
 20
-192.6551110386237
 30
0.0
 10
103.7861349694469
 20
-192.5732513798357
 30
0.0
 10
103.7192580491021
 20
-192.5455730753304
 30
0.0
 10
103.6512269863872
 20
-192.5179018082788
 30
0.0
 10
103.5832029611263
 20
-192.4902305412265
 30
0.0
 10
103.5981927370218
 20
-192.471785375676
 30
0.0
 10
103.6108742281785
 20
-192.4429599662537
 30
0.0
 10
103.6270181464435
 20
-192.4406516815155
 30
0.0
 10
104.2392695610603
 20
-192.3714735138852
 30
0.0
 10
104.8503668333077
 20
-192.2907609600136
 30
0.0
 10
105.4649265326638
 20
-192.2457916323272
 30
0.0
 10
105.7531806268794
 20
-192.2238840396684
 30
0.0
 10
105.8938452468795
 20
-192.4118262720938
 30
0.0
 10
105.8846191453778
 20
-192.7012345086795
 30
0.0
 10
105.8604103054332
 20
-192.706998183073
 30
0.0
 10
105.8361944280362
 20
-192.7127618574665
 30
0.0
 10
105.8119855880922
 20
-192.7162242845754
 30
0.0
  0
SPLINE
  5
7C
330
70
100
AcDbEntity
  8
Layer 1
 62
    12
420
 14878227
370
    35
100
AcDbSpline
210
0.0
220
0.0
230
1.0
 70
     9
 71
     3
 72
    89
 73
    85
 74
     0
 42
0.0000000001
 43
0.0000000001
 40
0.0
 40
0.0
 40
0.0
 40
0.0
 40
1.0
 40
1.0
 40
1.0
 40
2.0
 40
2.0
 40
2.0
 40
3.0
 40
3.0
 40
3.0
 40
4.0
 40
4.0
 40
4.0
 40
5.0
 40
5.0
 40
5.0
 40
6.0
 40
6.0
 40
6.0
 40
7.0
 40
7.0
 40
7.0
 40
8.0
 40
8.0
 40
8.0
 40
9.0
 40
9.0
 40
9.0
 40
10.0
 40
10.0
 40
10.0
 40
11.0
 40
11.0
 40
11.0
 40
12.0
 40
12.0
 40
12.0
 40
13.0
 40
13.0
 40
13.0
 40
14.0
 40
14.0
 40
14.0
 40
15.0
 40
15.0
 40
15.0
 40
16.0
 40
16.0
 40
16.0
 40
17.0
 40
17.0
 40
17.0
 40
18.0
 40
18.0
 40
18.0
 40
19.0
 40
19.0
 40
19.0
 40
20.0
 40
20.0
 40
20.0
 40
21.0
 40
21.0
 40
21.0
 40
22.0
 40
22.0
 40
22.0
 40
23.0
 40
23.0
 40
23.0
 40
24.0
 40
24.0
 40
24.0
 40
25.0
 40
25.0
 40
25.0
 40
26.0
 40
26.0
 40
26.0
 40
27.0
 40
27.0
 40
27.0
 40
28.0
 40
28.0
 40
28.0
 40
28.0
 10
74.72435156061369
 20
-114.8530297624043
 30
0.0
 10
74.22008841817934
 20
-115.2381923536072
 30
0.0
 10
73.74486828087488
 20
-115.6648612369185
 30
0.0
 10
73.2680810099898
 20
-116.0773468541641
 30
0.0
 10
73.01592593706669
 20
-116.2954951715533
 30
0.0
 10
72.77845203310075
 20
-116.5292194320422
 30
0.0
 10
72.5364883216926
 20
-116.7586195879758
 30
0.0
 10
72.19556707248468
 20
-117.081839079338
 30
0.0
 10
71.78390951498823
 20
-117.370824489777
 30
0.0
 10
71.55586480897508
 20
-117.7632419716178
 30
0.0
 10
71.36446718689509
 20
-118.0918488240427
 30
0.0
 10
70.75567116193318
 20
-118.0295884731753
 30
0.0
 10
70.8502193493306
 20
-118.5784253945552
 30
0.0
 10
70.82601050938631
 20
-118.5242299653668
 30
0.0
 10
70.80064048961955
 20
-118.470041573632
 30
0.0
 10
70.79948634725012
 20
-118.4654250041543
 30
0.0
 10
70.36941349066488
 20
-118.8747444104505
 30
0.0
 10
69.92319671581466
 20
-119.2909886709633
 30
0.0
 10
69.48620604246588
 20
-119.7164519955245
 30
0.0
 10
69.26252058385653
 20
-119.934366742287
 30
0.0
 10
69.07457835143112
 20
-120.1926483221655
 30
0.0
 10
68.8324406898176
 20
-120.3852000866153
 30
0.0
 10
68.62374500710318
 20
-120.5535430111204
 30
0.0
 10
68.44041934415551
 20
-120.1223089747124
 30
0.0
 10
68.59491959768148
 20
-119.9977882729775
 30
0.0
 10
68.18560019138529
 20
-119.7464315473153
 30
0.0
 10
68.66525190768125
 20
-119.5561810301513
 30
0.0
 10
68.60414569918358
 20
-119.2794542847223
 30
0.0
 10
68.56379294097462
 20
-119.2621632615416
 30
0.0
 10
68.48308038710333
 20
-119.226420035357
 30
0.0
 10
68.40697736525609
 20
-119.194132198827
 30
0.0
 10
68.51190579652502
 20
-118.8113299172137
 30
0.0
 10
68.61452594305477
 20
-118.433144205078
 30
0.0
 10
68.72867343837178
 20
-118.0169069820186
 30
0.0
 10
68.63181696623552
 20
-117.9454134921957
 30
0.0
 10
68.47270014323182
 20
-117.8278106072238
 30
0.0
 10
68.31589160496729
 20
-117.7136631119067
 30
0.0
 10
68.61913547507882
 20
-117.382747974743
 30
0.0
 10
68.57877567941649
 20
-117.0472162681014
 30
0.0
 10
68.13486718930512
 20
-116.589472144464
 30
0.0
 10
68.23633319346544
 20
-116.5156774073559
 30
0.0
 10
68.36086093265397
 20
-116.3565605843525
 30
0.0
 10
68.32396356409963
 20
-116.3484886252199
 30
0.0
 10
68.35394311589076
 20
-115.9910563633733
 30
0.0
 10
68.36662460704745
 20
-115.6313158167878
 30
0.0
 10
68.41851175149705
 20
-115.2773389445961
 30
0.0
 10
68.45887837920615
 20
-115.0028261645305
 30
0.0
 10
68.54886499591588
 20
-114.7352359574414
 30
0.0
 10
68.60997975230358
 20
-114.4630129042099
 30
0.0
 10
68.62156518355984
 20
-114.4114079947566
 30
0.0
 10
68.60631127718663
 20
-114.3324787603511
 30
0.0
 10
68.57260913900995
 20
-114.2917178136078
 30
0.0
 10
68.50537052116322
 20
-114.2103962752896
 30
0.0
 10
68.78517011484543
 20
-113.9836509102781
 30
0.0
 10
69.01577339021864
 20
-113.9421440096997
 30
0.0
 10
69.01577339021864
 20
-113.9421440096997
 30
0.0
 10
69.58190133477936
 20
-113.8037806369857
 30
0.0
 10
69.85516565309975
 20
-113.8210786976198
 30
0.0
 10
70.09845745708303
 20
-113.8360684735153
 30
0.0
 10
70.34866004037553
 20
-113.7542017772746
 30
0.0
 10
70.52161249690536
 20
-113.7253763678529
 30
0.0
 10
70.82601050938631
 20
-113.7761093699331
 30
0.0
 10
71.0912028685747
 20
-113.8187704128809
 30
0.0
 10
71.35524108539332
 20
-113.8637397405676
 30
0.0
 10
71.53050182666169
 20
-113.8937192923584
 30
0.0
 10
71.70460842556096
 20
-113.9283083761739
 30
0.0
 10
71.8787150244599
 20
-113.958287927965
 30
0.0
 10
72.04359552185739
 20
-113.9871133373864
 30
0.0
 10
72.27304465486085
 20
-114.0977984055951
 30
0.0
 10
72.36067502549506
 20
-114.027466095595
 30
0.0
 10
72.77806639092358
 20
-113.7000133855399
 30
0.0
 10
73.23927294166937
 20
-113.9398357249612
 30
0.0
 10
73.67049994062404
 20
-113.8821849061178
 30
0.0
 10
74.14093259287191
 20
-113.8187704128809
 30
0.0
 10
74.62634798356167
 20
-113.8695034149614
 30
0.0
 10
75.10485259494188
 20
-113.8695034149614
 30
0.0
 10
75.29625021702189
 20
-113.8695034149614
 30
0.0
 10
75.48765487655526
 20
-113.8545136390655
 30
0.0
 10
75.67789835626583
 20
-113.8695034149614
 30
0.0
 10
75.78051850279559
 20
-113.876421231724
 30
0.0
 10
75.87967622221703
 20
-113.9317637658285
 30
0.0
 10
75.98114222637767
 20
-113.9652057447279
 30
0.0
 10
75.53377130915769
 20
-114.2799769636267
 30
0.0
 10
75.11868822846802
 20
-114.552087139578
 30
0.0
 10
74.72435156061369
 20
-114.8530297624043
 30
0.0
  0
SPLINE
  5
7D
330
70
100
AcDbEntity
  8
Layer 1
 62
    12
420
 14878227
370
    35
100
AcDbSpline
210
0.0
220
0.0
230
1.0
 70
     9
 71
     3
 72
   791
 73
   787
 74
     0
 42
0.0000000001
 43
0.0000000001
 40
0.0
 40
0.0
 40
0.0
 40
0.0
 40
1.0
 40
1.0
 40
1.0
 40
2.0
 40
2.0
 40
2.0
 40
3.0
 40
3.0
 40
3.0
 40
4.0
 40
4.0
 40
4.0
 40
5.0
 40
5.0
 40
5.0
 40
6.0
 40
6.0
 40
6.0
 40
7.0
 40
7.0
 40
7.0
 40
8.0
 40
8.0
 40
8.0
 40
9.0
 40
9.0
 40
9.0
 40
10.0
 40
10.0
 40
10.0
 40
11.0
 40
11.0
 40
11.0
 40
12.0
 40
12.0
 40
12.0
 40
13.0
 40
13.0
 40
13.0
 40
14.0
 40
14.0
 40
14.0
 40
15.0
 40
15.0
 40
15.0
 40
16.0
 40
16.0
 40
16.0
 40
17.0
 40
17.0
 40
17.0
 40
18.0
 40
18.0
 40
18.0
 40
19.0
 40
19.0
 40
19.0
 40
20.0
 40
20.0
 40
20.0
 40
21.0
 40
21.0
 40
21.0
 40
22.0
 40
22.0
 40
22.0
 40
23.0
 40
23.0
 40
23.0
 40
24.0
 40
24.0
 40
24.0
 40
25.0
 40
25.0
 40
25.0
 40
26.0
 40
26.0
 40
26.0
 40
27.0
 40
27.0
 40
27.0
 40
28.0
 40
28.0
 40
28.0
 40
29.0
 40
29.0
 40
29.0
 40
30.0
 40
30.0
 40
30.0
 40
31.0
 40
31.0
 40
31.0
 40
32.0
 40
32.0
 40
32.0
 40
33.0
 40
33.0
 40
33.0
 40
34.0
 40
34.0
 40
34.0
 40
35.0
 40
35.0
 40
35.0
 40
36.0
 40
36.0
 40
36.0
 40
37.0
 40
37.0
 40
37.0
 40
38.0
 40
38.0
 40
38.0
 40
39.0
 40
39.0
 40
39.0
 40
40.0
 40
40.0
 40
40.0
 40
41.0
 40
41.0
 40
41.0
 40
42.0
 40
42.0
 40
42.0
 40
43.0
 40
43.0
 40
43.0
 40
44.0
 40
44.0
 40
44.0
 40
45.0
 40
45.0
 40
45.0
 40
46.0
 40
46.0
 40
46.0
 40
47.0
 40
47.0
 40
47.0
 40
48.0
 40
48.0
 40
48.0
 40
49.0
 40
49.0
 40
49.0
 40
50.0
 40
50.0
 40
50.0
 40
51.0
 40
51.0
 40
51.0
 40
52.0
 40
52.0
 40
52.0
 40
53.0
 40
53.0
 40
53.0
 40
54.0
 40
54.0
 40
54.0
 40
55.0
 40
55.0
 40
55.0
 40
56.0
 40
56.0
 40
56.0
 40
57.0
 40
57.0
 40
57.0
 40
58.0
 40
58.0
 40
58.0
 40
59.0
 40
59.0
 40
59.0
 40
60.0
 40
60.0
 40
60.0
 40
61.0
 40
61.0
 40
61.0
 40
62.0
 40
62.0
 40
62.0
 40
63.0
 40
63.0
 40
63.0
 40
64.0
 40
64.0
 40
64.0
 40
65.0
 40
65.0
 40
65.0
 40
66.0
 40
66.0
 40
66.0
 40
67.0
 40
67.0
 40
67.0
 40
68.0
 40
68.0
 40
68.0
 40
69.0
 40
69.0
 40
69.0
 40
70.0
 40
70.0
 40
70.0
 40
71.0
 40
71.0
 40
71.0
 40
72.0
 40
72.0
 40
72.0
 40
73.0
 40
73.0
 40
73.0
 40
74.0
 40
74.0
 40
74.0
 40
75.0
 40
75.0
 40
75.0
 40
76.0
 40
76.0
 40
76.0
 40
77.0
 40
77.0
 40
77.0
 40
78.0
 40
78.0
 40
78.0
 40
79.0
 40
79.0
 40
79.0
 40
80.0
 40
80.0
 40
80.0
 40
81.0
 40
81.0
 40
81.0
 40
82.0
 40
82.0
 40
82.0
 40
83.0
 40
83.0
 40
83.0
 40
84.0
 40
84.0
 40
84.0
 40
85.0
 40
85.0
 40
85.0
 40
86.0
 40
86.0
 40
86.0
 40
87.0
 40
87.0
 40
87.0
 40
88.0
 40
88.0
 40
88.0
 40
89.0
 40
89.0
 40
89.0
 40
90.0
 40
90.0
 40
90.0
 40
91.0
 40
91.0
 40
91.0
 40
92.0
 40
92.0
 40
92.0
 40
93.0
 40
93.0
 40
93.0
 40
94.0
 40
94.0
 40
94.0
 40
95.0
 40
95.0
 40
95.0
 40
96.0
 40
96.0
 40
96.0
 40
97.0
 40
97.0
 40
97.0
 40
98.0
 40
98.0
 40
98.0
 40
99.0
 40
99.0
 40
99.0
 40
100.0
 40
100.0
 40
100.0
 40
101.0
 40
101.0
 40
101.0
 40
102.0
 40
102.0
 40
102.0
 40
103.0
 40
103.0
 40
103.0
 40
104.0
 40
104.0
 40
104.0
 40
105.0
 40
105.0
 40
105.0
 40
106.0
 40
106.0
 40
106.0
 40
107.0
 40
107.0
 40
107.0
 40
108.0
 40
108.0
 40
108.0
 40
109.0
 40
109.0
 40
109.0
 40
110.0
 40
110.0
 40
110.0
 40
111.0
 40
111.0
 40
111.0
 40
112.0
 40
112.0
 40
112.0
 40
113.0
 40
113.0
 40
113.0
 40
114.0
 40
114.0
 40
114.0
 40
115.0
 40
115.0
 40
115.0
 40
116.0
 40
116.0
 40
116.0
 40
117.0
 40
117.0
 40
117.0
 40
118.0
 40
118.0
 40
118.0
 40
119.0
 40
119.0
 40
119.0
 40
120.0
 40
120.0
 40
120.0
 40
121.0
 40
121.0
 40
121.0
 40
122.0
 40
122.0
 40
122.0
 40
123.0
 40
123.0
 40
123.0
 40
124.0
 40
124.0
 40
124.0
 40
125.0
 40
125.0
 40
125.0
 40
126.0
 40
126.0
 40
126.0
 40
127.0
 40
127.0
 40
127.0
 40
128.0
 40
128.0
 40
128.0
 40
129.0
 40
129.0
 40
129.0
 40
130.0
 40
130.0
 40
130.0
 40
131.0
 40
131.0
 40
131.0
 40
132.0
 40
132.0
 40
132.0
 40
133.0
 40
133.0
 40
133.0
 40
134.0
 40
134.0
 40
134.0
 40
135.0
 40
135.0
 40
135.0
 40
136.0
 40
136.0
 40
136.0
 40
137.0
 40
137.0
 40
137.0
 40
138.0
 40
138.0
 40
138.0
 40
139.0
 40
139.0
 40
139.0
 40
140.0
 40
140.0
 40
140.0
 40
141.0
 40
141.0
 40
141.0
 40
142.0
 40
142.0
 40
142.0
 40
143.0
 40
143.0
 40
143.0
 40
144.0
 40
144.0
 40
144.0
 40
145.0
 40
145.0
 40
145.0
 40
146.0
 40
146.0
 40
146.0
 40
147.0
 40
147.0
 40
147.0
 40
148.0
 40
148.0
 40
148.0
 40
149.0
 40
149.0
 40
149.0
 40
150.0
 40
150.0
 40
150.0
 40
151.0
 40
151.0
 40
151.0
 40
152.0
 40
152.0
 40
152.0
 40
153.0
 40
153.0
 40
153.0
 40
154.0
 40
154.0
 40
154.0
 40
155.0
 40
155.0
 40
155.0
 40
156.0
 40
156.0
 40
156.0
 40
157.0
 40
157.0
 40
157.0
 40
158.0
 40
158.0
 40
158.0
 40
159.0
 40
159.0
 40
159.0
 40
160.0
 40
160.0
 40
160.0
 40
161.0
 40
161.0
 40
161.0
 40
162.0
 40
162.0
 40
162.0
 40
163.0
 40
163.0
 40
163.0
 40
164.0
 40
164.0
 40
164.0
 40
165.0
 40
165.0
 40
165.0
 40
166.0
 40
166.0
 40
166.0
 40
167.0
 40
167.0
 40
167.0
 40
168.0
 40
168.0
 40
168.0
 40
169.0
 40
169.0
 40
169.0
 40
170.0
 40
170.0
 40
170.0
 40
171.0
 40
171.0
 40
171.0
 40
172.0
 40
172.0
 40
172.0
 40
173.0
 40
173.0
 40
173.0
 40
174.0
 40
174.0
 40
174.0
 40
175.0
 40
175.0
 40
175.0
 40
176.0
 40
176.0
 40
176.0
 40
177.0
 40
177.0
 40
177.0
 40
178.0
 40
178.0
 40
178.0
 40
179.0
 40
179.0
 40
179.0
 40
180.0
 40
180.0
 40
180.0
 40
181.0
 40
181.0
 40
181.0
 40
182.0
 40
182.0
 40
182.0
 40
183.0
 40
183.0
 40
183.0
 40
184.0
 40
184.0
 40
184.0
 40
185.0
 40
185.0
 40
185.0
 40
186.0
 40
186.0
 40
186.0
 40
187.0
 40
187.0
 40
187.0
 40
188.0
 40
188.0
 40
188.0
 40
189.0
 40
189.0
 40
189.0
 40
190.0
 40
190.0
 40
190.0
 40
191.0
 40
191.0
 40
191.0
 40
192.0
 40
192.0
 40
192.0
 40
193.0
 40
193.0
 40
193.0
 40
194.0
 40
194.0
 40
194.0
 40
195.0
 40
195.0
 40
195.0
 40
196.0
 40
196.0
 40
196.0
 40
197.0
 40
197.0
 40
197.0
 40
198.0
 40
198.0
 40
198.0
 40
199.0
 40
199.0
 40
199.0
 40
200.0
 40
200.0
 40
200.0
 40
201.0
 40
201.0
 40
201.0
 40
202.0
 40
202.0
 40
202.0
 40
203.0
 40
203.0
 40
203.0
 40
204.0
 40
204.0
 40
204.0
 40
205.0
 40
205.0
 40
205.0
 40
206.0
 40
206.0
 40
206.0
 40
207.0
 40
207.0
 40
207.0
 40
208.0
 40
208.0
 40
208.0
 40
209.0
 40
209.0
 40
209.0
 40
210.0
 40
210.0
 40
210.0
 40
211.0
 40
211.0
 40
211.0
 40
212.0
 40
212.0
 40
212.0
 40
213.0
 40
213.0
 40
213.0
 40
214.0
 40
214.0
 40
214.0
 40
215.0
 40
215.0
 40
215.0
 40
216.0
 40
216.0
 40
216.0
 40
217.0
 40
217.0
 40
217.0
 40
218.0
 40
218.0
 40
218.0
 40
219.0
 40
219.0
 40
219.0
 40
220.0
 40
220.0
 40
220.0
 40
221.0
 40
221.0
 40
221.0
 40
222.0
 40
222.0
 40
222.0
 40
223.0
 40
223.0
 40
223.0
 40
224.0
 40
224.0
 40
224.0
 40
225.0
 40
225.0
 40
225.0
 40
226.0
 40
226.0
 40
226.0
 40
227.0
 40
227.0
 40
227.0
 40
228.0
 40
228.0
 40
228.0
 40
229.0
 40
229.0
 40
229.0
 40
230.0
 40
230.0
 40
230.0
 40
231.0
 40
231.0
 40
231.0
 40
232.0
 40
232.0
 40
232.0
 40
233.0
 40
233.0
 40
233.0
 40
234.0
 40
234.0
 40
234.0
 40
235.0
 40
235.0
 40
235.0
 40
236.0
 40
236.0
 40
236.0
 40
237.0
 40
237.0
 40
237.0
 40
238.0
 40
238.0
 40
238.0
 40
239.0
 40
239.0
 40
239.0
 40
240.0
 40
240.0
 40
240.0
 40
241.0
 40
241.0
 40
241.0
 40
242.0
 40
242.0
 40
242.0
 40
243.0
 40
243.0
 40
243.0
 40
244.0
 40
244.0
 40
244.0
 40
245.0
 40
245.0
 40
245.0
 40
246.0
 40
246.0
 40
246.0
 40
247.0
 40
247.0
 40
247.0
 40
248.0
 40
248.0
 40
248.0
 40
249.0
 40
249.0
 40
249.0
 40
250.0
 40
250.0
 40
250.0
 40
251.0
 40
251.0
 40
251.0
 40
252.0
 40
252.0
 40
252.0
 40
253.0
 40
253.0
 40
253.0
 40
254.0
 40
254.0
 40
254.0
 40
255.0
 40
255.0
 40
255.0
 40
256.0
 40
256.0
 40
256.0
 40
257.0
 40
257.0
 40
257.0
 40
258.0
 40
258.0
 40
258.0
 40
259.0
 40
259.0
 40
259.0
 40
260.0
 40
260.0
 40
260.0
 40
261.0
 40
261.0
 40
261.0
 40
262.0
 40
262.0
 40
262.0
 40
262.0
 10
144.5925344665797
 20
-155.2720174458994
 30
0.0
 10
144.4149724780255
 20
-154.3334604261425
 30
0.0
 10
144.5187397294716
 20
-153.3983658334939
 30
0.0
 10
144.5233562989494
 20
-152.4598088137383
 30
0.0
 10
144.5310376788762
 20
-150.9246958211751
 30
0.0
 10
144.5325817688127
 20
-149.3895828286112
 30
0.0
 10
144.5088708734125
 20
-147.8544690231673
 30
0.0
 10
144.5023572027262
 20
-147.4327546329399
 30
0.0
 10
144.4830948623229
 20
-147.0108607805652
 30
0.0
 10
144.4372707640051
 20
-146.591592838977
 30
0.0
 10
144.3226637105214
 20
-145.5429947176878
 30
0.0
 10
144.1449042858959
 20
-144.500858573029
 30
0.0
 10
144.0091084613842
 20
-143.4535995830381
 30
0.0
 10
143.9122519892479
 20
-142.7110567548392
 30
0.0
 10
143.863827271907
 20
-141.9627502522466
 30
0.0
 10
143.7485256342208
 20
-141.2236628137024
 30
0.0
 10
143.6666659754335
 20
-140.7036513017441
 30
0.0
 10
143.4279907409283
 20
-140.1997837080505
 30
0.0
 10
143.4014665787918
 20
-139.682080480831
 30
0.0
 10
143.3403603702938
 20
-138.4633413259908
 30
0.0
 10
143.0244350090252
 20
-137.294181030861
 30
0.0
 10
142.663540320071
 20
-136.158462714631
 30
0.0
 10
142.2841934281119
 20
-134.9685489692125
 30
0.0
 10
142.1089397242966
 20
-133.8051593859302
 30
0.0
 10
142.2127069757427
 20
-132.5622043536927
 30
0.0
 10
142.2934195296137
 20
-131.5890582501206
 30
0.0
 10
142.2611387305373
 20
-130.6032306553922
 30
0.0
 10
142.2334604260314
 20
-129.6243208774267
 30
0.0
 10
142.1965700949311
 20
-128.2971979016632
 30
0.0
 10
141.9901756595021
 20
-126.9816093121404
 30
0.0
 10
142.1942618101922
 20
-125.6417978077666
 30
0.0
 10
142.3429983893247
 20
-124.66519631454
 30
0.0
 10
142.3372347149306
 20
-123.664378943916
 30
0.0
 10
142.3775874731399
 20
-122.6727806373404
 30
0.0
 10
142.4029574929063
 20
-122.0709094665947
 30
0.0
 10
142.3591423075894
 20
-121.4644217263717
 30
0.0
 10
142.3937313914045
 20
-120.8636976605418
 30
0.0
 10
142.4087211673004
 20
-120.6031218708315
 30
0.0
 10
142.5447762552759
 20
-120.3483027180612
 30
0.0
 10
142.631252483541
 20
-120.0750383997402
 30
0.0
 10
142.6104990332516
 20
-119.742969120207
 30
0.0
 10
142.5655297055646
 20
-119.3601668385936
 30
0.0
 10
142.5678379903035
 20
-118.9773645569802
 30
0.0
 10
142.570146275043
 20
-118.4896408815516
 30
0.0
 10
142.5759099494365
 20
-117.9973006366453
 30
0.0
 10
142.6439339746973
 20
-117.5153406356105
 30
0.0
 10
142.6968814520642
 20
-117.1309182054059
 30
0.0
 10
142.4534000572427
 20
-116.65457484462
 30
0.0
 10
142.9491528413313
 20
-116.374200703463
 30
0.0
 10
143.0742489853726
 20
-116.3034522879756
 30
0.0
 10
143.0795701883222
 20
-116.1287647228458
 30
0.0
 10
142.9558104931241
 20
-116.0557036429706
 30
0.0
 10
142.7109163889907
 20
-115.9111313112886
 30
0.0
 10
142.8062002670148
 20
-115.7349061198165
 30
0.0
 10
142.8630099012833
 20
-115.5575210796797
 30
0.0
 10
143.0244350090252
 20
-115.057108875641
 30
0.0
 10
142.9909930301264
 20
-114.5797584066299
 30
0.0
 10
142.7453999788577
 20
-114.1081786494663
 30
0.0
 10
142.7062013630185
 20
-114.0343839123582
 30
0.0
 10
142.7696158562547
 20
-113.8983288243824
 30
0.0
 10
142.8007495504153
 20
-113.7957086778527
 30
0.0
 10
142.8284208174681
 20
-113.7046229175639
 30
0.0
 10
142.9264243945202
 20
-113.6054651981424
 30
0.0
 10
142.9068250866002
 20
-113.5328246034035
 30
0.0
 10
142.8607016165444
 20
-113.3587180045046
 30
0.0
 10
142.7626980394924
 20
-113.1996011815012
 30
0.0
 10
142.6842937703597
 20
-113.0301111520797
 30
0.0
 10
142.7062013630185
 20
-113.0208850505775
 30
0.0
 10
143.022126724287
 20
-112.2621983041137
 30
0.0
 10
142.6646944624397
 20
-111.9704888202428
 30
0.0
 10
142.6335607682792
 20
-111.9451188004761
 30
0.0
 10
142.724646528569
 20
-111.7698580592074
 30
0.0
 10
142.7788419577571
 20
-111.6015221721556
 30
0.0
 10
142.7742253882787
 20
-111.5980597450473
 30
0.0
 10
142.6935198718621
 20
-111.5357993941799
 30
0.0
 10
142.6889033023837
 20
-111.5323369670716
 30
0.0
 10
142.7108108950425
 20
-111.2048842570161
 30
0.0
 10
142.7500165483354
 20
-110.6030060488171
 30
0.0
 10
142.748862405966
 20
-110.6041601911862
 30
0.0
 10
142.7500165483354
 20
-110.6018519064473
 30
0.0
 10
142.7523177956206
 20
-110.6007048015316
 30
0.0
 10
142.75347193799
 20
-110.5995506591622
 30
0.0
 10
142.7696158562547
 20
-110.5868691680055
 30
0.0
 10
142.6739135264885
 20
-110.0518678801513
 30
0.0
 10
142.5724475223282
 20
-109.9308025680714
 30
0.0
 10
142.4525363526174
 20
-109.7866755209632
 30
0.0
 10
142.2565221610596
 20
-109.5237844090607
 30
0.0
 10
142.053590152739
 20
-109.8915969147788
 30
0.0
 10
141.7411272185788
 20
-109.3093250519528
 30
0.0
 10
141.1081223536729
 20
-109.1306089210291
 30
0.0
 10
140.536223697265
 20
-109.23092078282
 30
0.0
 10
139.8524858302787
 20
-109.3508319525308
 30
0.0
 10
139.1399225538706
 20
-109.3058626248442
 30
0.0
 10
138.4388866262502
 20
-109.3231606854786
 30
0.0
 10
138.1425605729015
 20
-109.3300785022418
 30
0.0
 10
137.8450803771835
 20
-109.3208524007397
 30
0.0
 10
137.5499084662043
 20
-109.3012530928201
 30
0.0
 10
137.4265348693852
 20
-109.2931811336878
 30
0.0
 10
137.3077778420438
 20
-109.2389927419527
 30
0.0
 10
137.1867125299642
 20
-109.2055507630533
 30
0.0
 10
137.0725650346469
 20
-109.1859514551337
 30
0.0
 10
136.9745544201418
 20
-109.1444445545556
 30
0.0
 10
136.8719342736114
 20
-109.1340643106841
 30
0.0
 10
136.7796943709529
 20
-109.124838209182
 30
0.0
 10
136.605587772054
 20
-109.1375267377924
 30
0.0
 10
136.6021323823993
 20
-109.1617355777363
 30
0.0
 10
136.5594713394512
 20
-109.4142464457677
 30
0.0
 10
136.468378541709
 20
-109.2758830730533
 30
0.0
 10
136.3392412704965
 20
-109.2355303148444
 30
0.0
 10
136.1778232002076
 20
-109.1847973127642
 30
0.0
 10
135.9898809677828
 20
-109.2009412310292
 30
0.0
 10
135.8146202265138
 20
-109.2124685798165
 30
0.0
 10
135.5252119899281
 20
-109.23092078282
 30
0.0
 10
135.2369578957125
 20
-109.2897257440328
 30
0.0
 10
134.9475496591267
 20
-109.2931811336878
 30
0.0
 10
134.6719840935212
 20
-109.2954894184266
 30
0.0
 10
134.3952573480918
 20
-109.2182322542103
 30
0.0
 10
134.120838887402
 20
-109.23092078282
 30
0.0
 10
133.7138277658443
 20
-109.2516742331094
 30
0.0
 10
133.3091178915725
 20
-109.3554414845552
 30
0.0
 10
132.9020997325612
 20
-109.3623593013181
 30
0.0
 10
131.8067341745407
 20
-109.380811504322
 30
0.0
 10
130.711368616519
 20
-109.3819656466914
 30
0.0
 10
129.6160030584973
 20
-109.3600580540326
 30
0.0
 10
129.0671661371176
 20
-109.348523667792
 30
0.0
 10
128.5194833581067
 20
-109.2747359681373
 30
0.0
 10
127.9729547214659
 20
-109.2240029660571
 30
0.0
 10
127.5244366993302
 20
-109.1836431703948
 30
0.0
 10
127.078212887026
 20
-109.09716694213
 30
0.0
 10
126.6308490072597
 20
-109.09716694213
 30
0.0
 10
125.9782377969802
 20
-109.09716694213
 30
0.0
 10
125.3267877665245
 20
-109.1824890280254
 30
0.0
 10
124.674176556245
 20
-109.1824890280254
 30
0.0
 10
124.2775386411055
 20
-109.1824890280254
 30
0.0
 10
123.880900725966
 20
-109.0718039598167
 30
0.0
 10
123.4831086684571
 20
-109.0418244080255
 30
0.0
 10
122.9308163574222
 20
-109.0014716498169
 30
0.0
 10
122.3750616192796
 20
-109.0072353242104
 30
0.0
 10
121.8239234506141
 20
-108.9599577117848
 30
0.0
 10
121.5022273774978
 20
-108.9311323023634
 30
0.0
 10
121.2716241021249
 20
-109.0418244080255
 30
0.0
 10
121.0975175032266
 20
-109.2781913577922
 30
0.0
 10
120.5809684183763
 20
-109.0187626729976
 30
0.0
 10
120.0851727838147
 20
-108.9288310550779
 30
0.0
 10
119.6182025586754
 20
-109.3554414845552
 30
0.0
 10
119.523654371278
 20
-109.4419177128199
 30
0.0
 10
119.4487054918005
 20
-109.552609818482
 30
0.0
 10
119.3218765053268
 20
-109.7036546823534
 30
0.0
 10
118.5712617179953
 20
-109.4615240581932
 30
0.0
 10
117.7768317453475
 20
-109.2124685798165
 30
0.0
 10
116.9870183421762
 20
-108.9472762206281
 30
0.0
 10
116.6341956123536
 20
-108.8273650509176
 30
0.0
 10
116.3009721904516
 20
-108.6440323505166
 30
0.0
 10
115.9435399286043
 20
-108.5460287734646
 30
0.0
 10
115.5457478710954
 20
-108.4387990949104
 30
0.0
 10
115.1202845465342
 20
-108.4307271357781
 30
0.0
 10
114.7248007737641
 20
-108.3177267453768
 30
0.0
 10
114.2186248953326
 20
-108.173599698269
 30
0.0
 10
113.7401202839521
 20
-107.9233971149762
 30
0.0
 10
113.2293348734953
 20
-107.8000235181574
 30
0.0
 10
112.6701247456975
 20
-107.6651225725511
 30
0.0
 10
112.0878528828714
 20
-107.6224615296032
 30
0.0
 10
111.5136459417247
 20
-107.5394406909934
 30
0.0
 10
111.5009644505683
 20
-107.5947902625513
 30
0.0
 10
111.4848205323023
 20
-107.660513040527
 30
0.0
 10
111.4848205323023
 20
-107.6616601454431
 30
0.0
 10
111.3637552202227
 20
-107.5890265881575
 30
0.0
 10
111.2657516431707
 20
-107.4898618312827
 30
0.0
 10
111.1562136798781
 20
-107.4725708081019
 30
0.0
 10
110.6039213688432
 20
-107.3883958271224
 30
0.0
 10
110.0481666307
 20
-107.330745008279
 30
0.0
 10
109.4947131398426
 20
-107.2511865967775
 30
0.0
 10
109.0796300591526
 20
-107.1912345306486
 30
0.0
 10
108.6645469784626
 20
-107.2108338385685
 30
0.0
 10
108.2563746770818
 20
-106.9963744814606
 30
0.0
 10
107.9681205828662
 20
-106.8441754752198
 30
0.0
 10
107.5691814204409
 20
-106.9052816837181
 30
0.0
 10
107.1702352205625
 20
-106.8660830678786
 30
0.0
 10
106.9753751713748
 20
-106.6101097727389
 30
0.0
 10
104.7661988897818
 20
-106.553613096265
 30
0.0
 10
104.4064583431964
 20
-106.8499391496136
 30
0.0
 10
104.2242797851648
 20
-106.5259418292127
 30
0.0
 10
104.117050106611
 20
-106.5363220730842
 30
0.0
 10
103.3295379507255
 20
-106.9467956217496
 30
0.0
 10
103.3145481748299
 20
-106.8741550270109
 30
0.0
 10
103.2995583989343
 20
-106.8026685746417
 30
0.0
 10
103.2845686230384
 20
-106.7300279799028
 30
0.0
 10
103.1173798409027
 20
-106.7761444125055
 30
0.0
 10
102.9501980962201
 20
-106.8222678825613
 30
0.0
 10
102.892547277377
 20
-106.8372576584569
 30
0.0
 10
102.6907694114255
 20
-106.7807609819829
 30
0.0
 10
102.55471432345
 20
-106.7150382040072
 30
0.0
 10
102.4140426659968
 20
-106.7069662448749
 30
0.0
 10
102.1246344294111
 20
-106.6908223266099
 30
0.0
 10
101.8329249455402
 20
-106.7104216345298
 30
0.0
 10
101.542362566585
 20
-106.704657960136
 30
0.0
 10
101.2322008797106
 20
-106.6977401433731
 30
0.0
 10
100.9208850504664
 20
-106.6631510595579
 30
0.0
 10
100.6107233635917
 20
-106.6712230186903
 30
0.0
 10
100.1322257896652
 20
-106.6827503674776
 30
0.0
 10
99.6548753206544
 20
-106.74155532869
 30
0.0
 10
99.17637070927419
 20
-106.74155532869
 30
0.0
 10
98.6667394411871
 20
-106.7404011863209
 30
0.0
 10
98.1571081730997
 20
-106.6850586522164
 30
0.0
 10
97.6463227626435
 20
-106.6712230186903
 30
0.0
 10
97.19674172497125
 20
-106.6606258371652
 30
0.0
 10
96.74518359939407
 20
-106.6917658303847
 30
0.0
 10
96.29684052194162
 20
-106.7098414315288
 30
0.0
 10
95.85645644679367
 20
-106.7275961539567
 30
0.0
 10
95.41665246539494
 20
-106.7579435398684
 30
0.0
 10
94.97939082059378
 20
-106.8132211827116
 30
0.0
 10
94.20308588603257
 20
-106.9113599228004
 30
0.0
 10
93.42842385469632
 20
-107.0268354762513
 30
0.0
 10
92.65375622085707
 20
-107.1358849590907
 30
0.0
 10
92.31707740929982
 20
-107.1843167138857
 30
0.0
 10
91.97924445537282
 20
-107.2258236144641
 30
0.0
 10
91.64832931820873
 20
-107.2996183515721
 30
0.0
 10
91.36930132549485
 20
-107.363032844809
 30
0.0
 10
91.10410192885311
 20
-107.4979337904153
 30
0.0
 10
90.82391979376948
 20
-107.5452114028406
 30
0.0
 10
90.56424054754975
 20
-107.5892389671031
 30
0.0
 10
90.11108579385611
 20
-107.7195113158596
 30
0.0
 10
89.89861040993558
 20
-107.8808285063783
 30
0.0
 10
89.87051523021532
 20
-107.8925835890226
 30
0.0
 10
89.83058791338725
 20
-107.9092892628704
 30
0.0
 10
89.802492733667
 20
-107.9210443455151
 30
0.0
 10
89.53843107294089
 20
-107.9476072651772
 30
0.0
 10
89.2720233716823
 20
-107.9602853692577
 30
0.0
 10
89.01022728494657
 20
-108.0006472417392
 30
0.0
 10
88.38298609443416
 20
-108.0986578562449
 30
0.0
 10
87.80878619074078
 20
-108.4180456446214
 30
0.0
 10
87.12734957103995
 20
-108.3131172133528
 30
0.0
 10
86.53585160671214
 20
-108.2220314530637
 30
0.0
 10
85.92014480244037
 20
-108.2889013359555
 30
0.0
 10
85.3171194893253
 20
-108.2531581097709
 30
0.0
 10
84.85245051147122
 20
-108.2243327003492
 30
0.0
 10
84.39239810309485
 20
-108.1067298153772
 30
0.0
 10
83.92888326761022
 20
-108.0940412867672
 30
0.0
 10
83.0053160237492
 20
-108.0686783044538
 30
0.0
 10
82.06445775670713
 20
-107.9798937914502
 30
0.0
 10
81.15933567839629
 20
-108.1136476321405
 30
0.0
 10
79.9901824207205
 20
-108.28660008867
 30
0.0
 10
78.85330292466733
 20
-108.1390106144539
 30
0.0
 10
77.70374897491116
 20
-108.0479248541648
 30
0.0
 10
77.48928961780325
 20
-108.0306267935303
 30
0.0
 10
77.28059393508883
 20
-107.9395410332412
 30
0.0
 10
77.06612754052756
 20
-107.9084073390806
 30
0.0
 10
77.00847672168418
 20
-107.9003353799483
 30
0.0
 10
76.93814441168409
 20
-107.9868116082131
 30
0.0
 10
76.86550381694579
 20
-108.0363904679241
 30
0.0
 10
76.79978103897006
 20
-107.9868116082131
 30
0.0
 10
76.71215770578893
 20
-107.8645921537637
 30
0.0
 10
76.62221905041619
 20
-107.8634380113943
 30
0.0
 10
76.2682421782242
 20
-107.8576743370005
 30
0.0
 10
75.91196405874701
 20
-107.9187875829522
 30
0.0
 10
75.55914132892445
 20
-107.9014895223177
 30
0.0
 10
74.73126937737692
 20
-107.8599826217393
 30
0.0
 10
73.9057127480213
 20
-107.7931057013945
 30
0.0
 10
73.07900197629656
 20
-107.7239275337639
 30
0.0
 10
72.93487492918842
 20
-107.7112460426072
 30
0.0
 10
72.79766569884319
 20
-107.6051634689691
 30
0.0
 10
72.65238450936593
 20
-107.591327835443
 30
0.0
 10
72.11853736388151
 20
-107.5394406909934
 30
0.0
 10
71.58354311348104
 20
-107.5152318510494
 30
0.0
 10
71.0496959679963
 20
-107.4679542386242
 30
0.0
 10
70.5319857033232
 20
-107.4218378060215
 30
0.0
 10
70.01312833373401
 20
-107.3745601935962
 30
0.0
 10
69.49773339125314
 20
-107.3019195988573
 30
0.0
 10
69.32478093472363
 20
-107.2777107589137
 30
0.0
 10
69.16681825408968
 20
-107.1635632635966
 30
0.0
 10
68.99617408229872
 20
-107.1128302615162
 30
0.0
 10
68.87625587513454
 20
-107.0770870353319
 30
0.0
 10
68.73904664478931
 20
-107.0494087308262
 30
0.0
 10
68.62144375981801
 20
-107.074778750593
 30
0.0
 10
68.53726877883842
 20
-107.0932239161432
 30
0.0
 10
68.23633319346544
 20
-107.2396592479902
 30
0.0
 10
68.16484674109625
 20
-107.22121408244
 30
0.0
 10
67.73015731503297
 20
-107.102450017645
 30
0.0
 10
67.28509468255217
 20
-106.8487850072441
 30
0.0
 10
67.21129994544411
 20
-107.0228916061434
 30
0.0
 10
66.33501031400832
 20
-107.0897685264883
 30
0.0
 10
65.47831999049248
 20
-107.1543371620945
 30
0.0
 10
64.54437250275994
 20
-107.2246694720943
 30
0.0
 10
64.53053686923412
 20
-107.2119879809379
 30
0.0
 10
64.43484157692066
 20
-107.1289671423278
 30
0.0
 10
64.36796465657582
 20
-107.0701692185687
 30
0.0
 10
64.14658748270468
 20
-107.1577925517495
 30
0.0
 10
63.71074391427198
 20
-107.0966863432515
 30
0.0
 10
63.6980624231156
 20
-107.0125183997256
 30
0.0
 10
63.5712263991882
 20
-107.0021381558541
 30
0.0
 10
63.45477765658601
 20
-106.9744668888021
 30
0.0
 10
63.34408555092392
 20
-106.9883025223279
 30
0.0
 10
62.95782084220194
 20
-107.0390355244081
 30
0.0
 10
62.39053875527179
 20
-107.0805424249865
 30
0.0
 10
62.34787771232396
 20
-107.4333651548087
 30
0.0
 10
62.2936893205892
 20
-107.8772806823738
 30
0.0
 10
62.02964406631688
 20
-108.1159488794257
 30
0.0
 10
61.86707185365857
 20
-108.4526347284366
 30
0.0
 10
61.74946193123326
 20
-108.6947653525967
 30
0.0
 10
61.68720158036552
 20
-109.0694956750778
 30
0.0
 10
61.79558540128906
 20
-109.2897257440328
 30
0.0
 10
62.00081865689519
 20
-109.7071171094617
 30
0.0
 10
61.95123979718446
 20
-110.0599398392839
 30
0.0
 10
61.86476356891938
 20
-110.4842490214757
 30
0.0
 10
61.78982172689559
 20
-110.854362774479
 30
0.0
 10
61.90627046949778
 20
-111.2648363231446
 30
0.0
 10
61.93971244839687
 20
-111.6833818309426
 30
0.0
 10
61.705646745916
 20
-111.7560224256816
 30
0.0
 10
61.62955076152245
 20
-112.1780303605878
 30
0.0
 10
61.88667116157818
 20
-112.6184834610446
 30
0.0
 10
61.80480446533746
 20
-112.6542266872292
 30
0.0
 10
61.72409894891987
 20
-112.6899699134138
 30
0.0
 10
61.70334549863051
 20
-112.6991889774622
 30
0.0
 10
61.72409894891987
 20
-112.8560045531804
 30
0.0
 10
61.74946193123326
 20
-112.9528539878633
 30
0.0
 10
61.7471536464944
 20
-113.0485563176298
 30
0.0
 10
61.73447215533769
 20
-113.4855469909783
 30
0.0
 10
61.53615671649447
 20
-113.9017912514907
 30
0.0
 10
61.71141042030948
 20
-114.3641449071529
 30
0.0
 10
61.81287642447012
 20
-114.6327996934493
 30
0.0
 10
61.77021538152198
 20
-114.9648689729825
 30
0.0
 10
61.75292435834156
 20
-115.2669587007246
 30
0.0
 10
61.71602698978721
 20
-115.9287889750524
 30
0.0
 10
61.62608833441415
 20
-116.589472144464
 30
0.0
 10
61.60879731123341
 20
-117.2513024187918
 30
0.0
 10
61.59380753533786
 20
-117.8289647495935
 30
0.0
 10
61.67221180447027
 20
-118.4089283276803
 30
0.0
 10
61.66644813007648
 20
-118.9877448008515
 30
0.0
 10
61.65953031331325
 20
-119.6311299096288
 30
0.0
 10
61.62378708712898
 20
-120.2745079809525
 30
0.0
 10
61.56498212591617
 20
-120.9155848049914
 30
0.0
 10
61.51540326620544
 20
-121.4505860928456
 30
0.0
 10
61.40701944528189
 20
-121.9786695639362
 30
0.0
 10
61.33668009782876
 20
-122.5125167094209
 30
0.0
 10
61.28249170609368
 20
-122.9229902580865
 30
0.0
 10
61.16372764129893
 20
-123.3449911555394
 30
0.0
 10
61.41739265170005
 20
-123.7151119459961
 30
0.0
 10
61.36550550725014
 20
-123.8015881742609
 30
0.0
 10
61.25597458141085
 20
-123.8984376089435
 30
0.0
 10
61.26289239817407
 20
-123.9849138372085
 30
0.0
 10
61.31515694991525
 20
-124.563383608809
 30
0.0
 10
61.41513944974771
 20
-125.1210528661765
 30
0.0
 10
61.22123057003888
 20
-125.7171677574045
 30
0.0
 10
61.07223832583412
 20
-126.1751998783748
 30
0.0
 10
60.99291983971038
 20
-126.6550822785316
 30
0.0
 10
61.05907754242203
 20
-127.1321727008269
 30
0.0
 10
61.12214224253854
 20
-127.5869582084456
 30
0.0
 10
60.86456652884215
 20
-128.0509310927865
 30
0.0
 10
61.11184753430303
 20
-128.5082018691162
 30
0.0
 10
61.20408743696126
 20
-128.6765377561686
 30
0.0
 10
61.30785468840707
 20
-128.9774803789947
 30
0.0
 10
61.23060456164409
 20
-129.0731756713078
 30
0.0
 10
60.87317229979748
 20
-129.5090192397405
 30
0.0
 10
61.18909766106602
 20
-129.8652973592174
 30
0.0
 10
61.29287194996487
 20
-130.2480996408311
 30
0.0
 10
61.32054321701714
 20
-130.3495656449914
 30
0.0
 10
61.40586530291246
 20
-130.4740933841799
 30
0.0
 10
61.37357746638279
 20
-130.5467339789185
 30
0.0
 10
61.24328605280078
 20
-130.840751747528
 30
0.0
 10
61.05996038985344
 20
-131.1117077811101
 30
0.0
 10
60.9296689762711
 20
-131.4057325871732
 30
0.0
 10
60.85587423916305
 20
-131.5717672269399
 30
0.0
 10
60.8870079333236
 20
-131.8992199369957
 30
0.0
 10
60.80168584742828
 20
-131.9257370616782
 30
0.0
 10
60.45231850726032
 20
-132.0318196353162
 30
0.0
 10
60.43732873136477
 20
-132.4157690218457
 30
0.0
 10
60.38659572928493
 20
-132.5841119463511
 30
0.0
 10
60.12371165483541
 20
-133.4477200866299
 30
0.0
 10
59.45265527900576
 20
-134.1153210728046
 30
0.0
 10
59.29469259837181
 20
-135.0238985407704
 30
0.0
 10
59.22205200363318
 20
-135.4378274790906
 30
0.0
 10
59.0179658529428
 20
-135.8275475774672
 30
0.0
 10
58.87960248022813
 20
-136.2299491670002
 30
0.0
 10
58.8035064958349
 20
-136.4536346256102
 30
0.0
 10
58.75046520901587
 20
-136.6853920433525
 30
0.0
 10
58.66860555022853
 20
-136.9067692172236
 30
0.0
 10
58.55214977017297
 20
-137.2180850464678
 30
0.0
 10
58.39995076393217
 20
-137.5167193845553
 30
0.0
 10
58.29617647503298
 20
-137.8326447458235
 30
0.0
 10
58.14859403827024
 20
-138.2823169103287
 30
0.0
 10
58.14513161116194
 20
-138.8311538317086
 30
0.0
 10
57.87648386231896
 20
-139.1793670295069
 30
0.0
 10
57.46715741856939
 20
-139.7085976055139
 30
0.0
 10
57.65971622047219
 20
-140.3669724901868
 30
0.0
 10
57.33341061533277
 20
-140.8835215750368
 30
0.0
 10
57.25038977672262
 20
-141.0138129886188
 30
0.0
 10
57.43487661949277
 20
-141.1348853381524
 30
0.0
 10
57.28959543001551
 20
-141.3585637593087
 30
0.0
 10
57.13278689175068
 20
-141.5995472785528
 30
0.0
 10
56.83991622805699
 20
-142.0423086637484
 30
0.0
 10
57.18005746672254
 20
-142.4343300094102
 30
0.0
 10
57.20311920175044
 20
-142.4620012764625
 30
0.0
 10
57.19620138498754
 20
-142.5473303998115
 30
0.0
 10
57.1696842603047
 20
-142.5796111988878
 30
0.0
 10
56.94945419134965
 20
-142.8528755172085
 30
0.0
 10
56.7661285284023
 20
-143.1088488123481
 30
0.0
 10
56.77073806042635
 20
-143.5135516491666
 30
0.0
 10
56.77420048753464
 20
-143.8467750710693
 30
0.0
 10
56.48940178297361
 20
-144.1799984929719
 30
0.0
 10
56.48248396621038
 20
-144.5155231621601
 30
0.0
 10
56.46518590557596
 20
-145.4402445483905
 30
0.0
 10
56.11351731812282
 20
-146.2877087704046
 30
0.0
 10
55.94748267835622
 20
-147.1766869304504
 30
0.0
 10
55.88637646985823
 20
-147.4960747188269
 30
0.0
 10
55.86677012448493
 20
-147.8281439983602
 30
0.0
 10
55.81489001748903
 20
-148.1452235019978
 30
0.0
 10
55.70535205419638
 20
-148.8070537763254
 30
0.0
 10
55.91173945217194
 20
-149.5196170527334
 30
0.0
 10
55.8102734480113
 20
-150.1837556117999
 30
0.0
 10
55.73994113801155
 20
-150.6495716945703
 30
0.0
 10
55.78721875043677
 20
-151.1084769980309
 30
0.0
 10
55.71572526061389
 20
-151.5685294064067
 30
0.0
 10
55.62579364269421
 20
-152.1427293101003
 30
0.0
 10
55.97054441338443
 20
-152.6834942723477
 30
0.0
 10
55.89790381864549
 20
-153.2773005214143
 30
0.0
 10
55.8621605924609
 20
-153.5736195373099
 30
0.0
 10
56.00167810754467
 20
-153.888397793662
 30
0.0
 10
55.99014372130404
 20
-154.1916416637736
 30
0.0
 10
55.9624724542521
 20
-154.8719171036523
 30
0.0
 10
56.37986381968064
 20
-155.4484252920835
 30
0.0
 10
56.36026451176103
 20
-156.1436975453105
 30
0.0
 10
56.34527473586516
 20
-156.6740822636873
 30
0.0
 10
56.59086778713361
 20
-157.2102376939099
 30
0.0
 10
56.70732356718981
 20
-157.7475402290496
 30
0.0
 10
56.75343999979191
 20
-157.959698338872
 30
0.0
 10
56.74537507811295
 20
-158.1833837974826
 30
0.0
 10
56.79033736834626
 20
-158.3955348698513
 30
0.0
 10
56.91601924990392
 20
-159.0008684677056
 30
0.0
 10
57.04054698909214
 20
-159.6062020655592
 30
0.0
 10
57.19620138498754
 20
-160.2034637042811
 30
0.0
 10
57.37491751591084
 20
-160.8906639983745
 30
0.0
 10
57.572085849838
 20
-161.5744018653608
 30
0.0
 10
57.79115473897026
 20
-162.2500677732155
 30
0.0
 10
57.90184684463235
 20
-162.5925172966199
 30
0.0
 10
58.10477885295298
 20
-162.9061343731489
 30
0.0
 10
58.21777220590089
 20
-163.248583896554
 30
0.0
 10
58.40225904867104
 20
-163.8124105938295
 30
0.0
 10
58.52908803514474
 20
-164.3958365990243
 30
0.0
 10
58.71242073554578
 20
-164.9608104012163
 30
0.0
 10
58.93725329907152
 20
-165.6560826544432
 30
0.0
 10
59.17131900155303
 20
-166.3513478702165
 30
0.0
 10
59.44458331987342
 20
-167.0293220628094
 30
0.0
 10
59.70747443177598
 20
-167.6853886627442
 30
0.0
 10
60.03147175217686
 20
-168.3172464227336
 30
0.0
 10
60.31626341928516
 20
-168.9652410635354
 30
0.0
 10
60.5261132443687
 20
-169.4414373901758
 30
0.0
 10
60.71520961916321
 20
-169.9280069232349
 30
0.0
 10
60.91352505800643
 20
-170.4088127819006
 30
0.0
 10
60.87778183182152
 20
-170.4191930257725
 30
0.0
 10
61.07148773864071
 20
-170.4975972949052
 30
0.0
 10
61.21446064337909
 20
-170.5287309890658
 30
0.0
 10
61.19716962019836
 20
-170.6440326267519
 30
0.0
 10
61.14182004864047
 20
-170.7581801220686
 30
0.0
 10
61.176416169909
 20
-170.8262041473295
 30
0.0
 10
61.32976228106554
 20
-171.1236843430476
 30
0.0
 10
61.51194083909715
 20
-171.4073289052391
 30
0.0
 10
61.67682133649432
 20
-171.6990383891113
 30
0.0
 10
61.74254411447003
 20
-171.8143400267974
 30
0.0
 10
61.78982172689559
 20
-171.9388677659854
 30
0.0
 10
61.84977379302415
 20
-172.0576247933268
 30
0.0
 10
61.96507543071027
 20
-172.2870809637832
 30
0.0
 10
62.09191145463767
 20
-172.511913527309
 30
0.0
 10
62.1968328484526
 20
-172.7471333721602
 30
0.0
 10
62.25217538255712
 20
-172.8681986842398
 30
0.0
 10
62.26947344319155
 20
-173.0065620569542
 30
0.0
 10
62.32366183492631
 20
-173.208339922906
 30
0.0
 10
62.82176575422646
 20
-173.504665976254
 30
0.0
 10
63.30257865034553
 20
-174.5838876160104
 30
0.0
 10
63.37175681797586
 20
-174.4224625082678
 30
0.0
 10
63.48129478126883
 20
-174.7337783375123
 30
0.0
 10
63.50089408918844
 20
-175.079683250572
 30
0.0
 10
63.64502113629626
 20
-175.1430977438095
 30
0.0
 10
64.05549468496221
 20
-175.3252763018408
 30
0.0
 10
63.98977190698649
 20
-175.974425085012
 30
0.0
 10
64.14773458762076
 20
-176.0482198221194
 30
0.0
 10
64.31723165449565
 20
-176.1254699488827
 30
0.0
 10
64.63546530050243
 20
-176.096644539461
 30
0.0
 10
64.67236266905645
 20
-176.1958022588825
 30
0.0
 10
64.7380784095788
 20
-176.3745183898061
 30
0.0
 10
64.64583850692058
 20
-176.6143477666801
 30
0.0
 10
64.61009528073566
 20
-176.9083655352905
 30
0.0
 10
64.62739334137009
 20
-176.9175916367916
 30
0.0
 10
64.7599860022376
 20
-176.9844685571368
 30
0.0
 10
64.89373984292758
 20
-177.0536467247671
 30
0.0
 10
64.9260206420042
 20
-176.9694787812422
 30
0.0
 10
64.94792823466267
 20
-176.9129821047676
 30
0.0
 10
64.96983582732113
 20
-176.8564854282943
 30
0.0
 10
65.00096952148201
 20
-176.8553312859248
 30
0.0
 10
65.03210321564225
 20
-176.8530230011853
 30
0.0
 10
65.06322987234911
 20
-176.8518688588159
 30
0.0
 10
65.08975403448563
 20
-177.0294378848232
 30
0.0
 10
65.11511701679871
 20
-177.2058457310085
 30
0.0
 10
65.14278828385096
 20
-177.3891784314093
 30
0.0
 10
65.49100148164917
 20
-177.4698839478265
 30
0.0
 10
65.49561101367354
 20
-177.361500126904
 30
0.0
 10
65.87264962089311
 20
-178.1974370001305
 30
0.0
 10
65.80000902615449
 20
-178.2389509381622
 30
0.0
 10
66.05712942621021
 20
-178.7762534733012
 30
0.0
 10
66.28081488481988
 20
-178.9699593801207
 30
0.0
 10
66.15398589834649
 20
-179.2628300438135
 30
0.0
 10
66.44339413493188
 20
-179.334316496184
 30
0.0
 10
66.55523334551003
 20
-179.5038065256052
 30
0.0
 10
66.72011384290719
 20
-179.7528620039816
 30
0.0
 10
66.85732307325212
 20
-180.0215097528249
 30
0.0
 10
67.02797428249644
 20
-180.3201440909118
 30
0.0
 10
67.01759403862524
 20
-180.3397433988317
 30
0.0
 10
67.40385874734691
 20
-180.6303057777874
 30
0.0
 10
67.67596892329819
 20
-180.6602853295773
 30
0.0
 10
67.74630123329797
 20
-180.9035700961072
 30
0.0
 10
68.10258639022882
 20
-181.4374172415916
 30
0.0
 10
68.24671343733696
 20
-181.3970574459293
 30
0.0
 10
68.71483780484566
 20
-181.6991542111251
 30
0.0
 10
69.36975026241032
 20
-181.7141369495666
 30
0.0
 10
69.71450103310023
 20
-182.2226211127383
 30
0.0
 10
69.8690012866262
 20
-182.3517583839509
 30
0.0
 10
70.02466271997497
 20
-182.4808956551641
 30
0.0
 10
70.15956366558102
 20
-182.5938890081107
 30
0.0
 10
70.15956366558102
 20
-182.5938890081107
 30
0.0
 10
70.57234549898552
 20
-183.0516401692019
 30
0.0
 10
70.69802034308981
 20
-183.1219724792017
 30
0.0
 10
70.69802034308981
 20
-183.1219724792017
 30
0.0
 10
70.94131214707276
 20
-183.1219724792017
 30
0.0
 10
70.94131214707276
 20
-183.1219724792017
 30
0.0
 10
70.94131214707276
 20
-183.1219724792017
 30
0.0
 10
70.97820951562678
 20
-183.1242807639405
 30
0.0
 10
70.97820951562678
 20
-183.1242807639405
 30
0.0
 10
71.06006917441414
 20
-183.2072945650973
 30
0.0
 10
71.14309001302396
 20
-183.2891612613377
 30
0.0
 10
71.22494967181132
 20
-183.3721750624945
 30
0.0
 10
71.14193587065485
 20
-183.7307685041642
 30
0.0
 10
71.42442629047734
 20
-183.8737414089026
 30
0.0
 10
71.65156713874194
 20
-183.976361555433
 30
0.0
 10
71.87986212937596
 20
-184.0789746645084
 30
0.0
 10
71.9271397418012
 20
-184.5079004161785
 30
0.0
 10
72.29610638988877
 20
-184.3326396749102
 30
0.0
 10
72.45637031780852
 20
-184.7281234476802
 30
0.0
 10
72.78383006531737
 20
-184.8641785356557
 30
0.0
 10
73.1747043060634
 20
-184.9218293544985
 30
0.0
 10
73.21505706427204
 20
-184.9276000663456
 30
0.0
 10
73.23465637219197
 20
-185.0717271134541
 30
0.0
 10
73.27617031022341
 20
-185.1870287511395
 30
0.0
 10
73.38339998877751
 20
-185.233145183743
 30
0.0
 10
73.55980783496196
 20
-185.3092482055899
 30
0.0
 10
73.74659592501791
 20
-185.3899537220071
 30
0.0
 10
73.74659592501791
 20
-185.3899537220071
 30
0.0
 10
73.74659592501791
 20
-185.2077822014296
 30
0.0
 10
73.74659592501791
 20
-185.2077822014296
 30
0.0
 10
73.91840127663169
 20
-185.2527444916622
 30
0.0
 10
73.75813031125855
 20
-185.6516906915406
 30
0.0
 10
74.08789130605289
 20
-185.5271629523521
 30
0.0
 10
74.17667581905651
 20
-185.6355467732759
 30
0.0
 10
74.24585398668717
 20
-185.7796738203844
 30
0.0
 10
74.36000148200387
 20
-185.8430953510743
 30
0.0
 10
74.69783443593087
 20
-186.0287292987608
 30
0.0
 10
75.07141061604247
 20
-186.1555582852339
 30
0.0
 10
75.39887036355164
 20
-186.3561820088157
 30
0.0
 10
75.84508713840186
 20
-186.6294463271373
 30
0.0
 10
76.24403333828023
 20
-186.9788136673047
 30
0.0
 10
76.69370550278539
 20
-187.2428518841239
 30
0.0
 10
77.60343711312028
 20
-187.7766990296083
 30
0.0
 10
78.53622342102969
 20
-188.2736488065387
 30
0.0
 10
79.45633527523608
 20
-188.7925061761279
 30
0.0
 10
79.60853428147657
 20
-188.8778282620229
 30
0.0
 10
79.74343522708261
 20
-188.9954381844479
 30
0.0
 10
79.90370619245576
 20
-189.1107398221347
 30
0.0
 10
79.94866848268907
 20
-189.1153493541587
 30
0.0
 10
80.06166887309001
 20
-189.0945959038693
 30
0.0
 10
80.13430946782865
 20
-189.1395652315564
 30
0.0
 10
80.49865954643816
 20
-189.3644048325351
 30
0.0
 10
80.85379056099958
 20
-189.6065354566962
 30
0.0
 10
81.21237696521562
 20
-189.8429024064626
 30
0.0
 10
81.58134361330288
 20
-189.7933235467516
 30
0.0
 10
81.9560739357839
 20
-189.7829503403328
 30
0.0
 10
82.28352664583971
 20
-189.9017073676742
 30
0.0
 10
82.53719165624017
 20
-189.9951014127028
 30
0.0
 10
82.75280515571784
 20
-190.1576806628148
 30
0.0
 10
83.03875800264862
 20
-190.2372390743163
 30
0.0
 10
83.26705299328265
 20
-190.3018077099226
 30
0.0
 10
83.50803651252673
 20
-190.4459347570304
 30
0.0
 10
83.7720747293457
 20
-190.4839862679545
 30
0.0
 10
84.40470668163342
 20
-190.5731208623156
 30
0.0
 10
84.96157489652095
 20
-190.797848043894
 30
0.0
 10
85.37271574231168
 20
-191.353721816138
 30
0.0
 10
85.67689498334003
 20
-191.7649805462778
 30
0.0
 10
86.0571002430265
 20
-192.1138184134365
 30
0.0
 10
86.45058647900086
 20
-192.4406629267566
 30
0.0
 10
87.05339178711435
 20
-192.9413757587298
 30
0.0
 10
87.67106126427419
 20
-193.4317246494544
 30
0.0
 10
88.32879770269908
 20
-193.8519426008051
 30
0.0
 10
89.33537874771687
 20
-194.4941735672128
 30
0.0
 10
90.11020237499232
 20
-195.3808434425204
 30
0.0
 10
90.97150926798592
 20
-196.1775746624534
 30
0.0
 10
91.46730490254688
 20
-196.6376341082834
 30
0.0
 10
91.95388147305942
 20
-197.1080597230779
 30
0.0
 10
92.45083124998982
 20
-197.5669650265379
 30
0.0
 10
92.85438698189254
 20
-197.9393870642797
 30
0.0
 10
93.28676812321663
 20
-198.2841378349706
 30
0.0
 10
93.67187165211552
 20
-198.6750120757166
 30
0.0
 10
93.97972505425139
 20
-198.9863279049611
 30
0.0
 10
94.21148247199372
 20
-199.3748938609677
 30
0.0
 10
94.52395244360733
 20
-199.6815931207338
 30
0.0
 10
95.10161477440901
 20
-200.2500293500334
 30
0.0
 10
95.73692792405372
 20
-200.7608147604909
 30
0.0
 10
96.30421001098419
 20
-201.3396312336617
 30
0.0
 10
96.59938192196339
 20
-201.640566819035
 30
0.0
 10
97.05597894068512
 20
-201.8342727258525
 30
0.0
 10
97.09402341415522
 20
-202.3577466649201
 30
0.0
 10
97.10209537328756
 20
-202.4522948523175
 30
0.0
 10
97.27159244016247
 20
-202.54799014463
 30
0.0
 10
97.38227750837118
 20
-202.6183294920841
 30
0.0
 10
97.51487720669205
 20
-202.7013432932396
 30
0.0
 10
97.65785011143076
 20
-202.7832099894813
 30
0.0
 10
97.80774083293238
 20
-202.8189532156659
 30
0.0
 10
98.09945735425664
 20
-202.8881313832968
 30
0.0
 10
98.0521797418314
 20
-203.1902211110383
 30
0.0
 10
98.21129656483478
 20
-203.3539545035197
 30
0.0
 10
98.55028366113122
 20
-203.7044689486034
 30
0.0
 10
99.09912058251119
 20
-203.7575102354221
 30
0.0
 10
99.3458677761491
 20
-204.2671415035095
 30
0.0
 10
99.44041596354651
 20
-204.4654569423518
 30
0.0
 10
99.84742708510353
 20
-204.5127345547783
 30
0.0
 10
100.1114723393758
 20
-204.6280361924638
 30
0.0
 10
100.2244656923237
 20
-204.7594817484152
 30
0.0
 10
100.3881920473514
 20
-204.8309682007851
 30
0.0
 10
100.5046478274073
 20
-204.9497252281264
 30
0.0
 10
100.784829962491
 20
-205.2379793223428
 30
0.0
 10
101.0039058890763
 20
-205.6011822960359
 30
0.0
 10
101.3209853927142
 20
-205.8340868186946
 30
0.0
 10
101.6438285707457
 20
-206.0716079108304
 30
0.0
 10
102.0531479770419
 20
-206.1915261179942
 30
0.0
 10
102.429032441892
 20
-206.3529441882837
 30
0.0
 10
102.4567037089446
 20
-206.3644785745244
 30
0.0
 10
102.5604779978438
 20
-206.2895296950463
 30
0.0
 10
102.5570155707355
 20
-206.2687762447575
 30
0.0
 10
102.4866832607354
 20
-205.9113439829109
 30
0.0
 10
102.8210608250075
 20
-205.985131682566
 30
0.0
 10
102.9548076282444
 20
-205.9516967411195
 30
0.0
 10
103.5056964927596
 20
-205.8125526629759
 30
0.0
 10
103.9685806117546
 20
-205.6034523868857
 30
0.0
 10
104.1525955747065
 20
-205.0130033726798
 30
0.0
 10
104.1869668018265
 20
-204.9027163783815
 30
0.0
 10
104.2350788640893
 20
-204.7965559874289
 30
0.0
 10
104.312759268989
 20
-204.7110553613509
 30
0.0
 10
104.6539161348589
 20
-204.3355536417026
 30
0.0
 10
105.0242128777051
 20
-203.9852334125911
 30
0.0
 10
105.3588439590254
 20
-203.6041570868125
 30
0.0
 10
105.666704398615
 20
-203.2536426417288
 30
0.0
 10
105.9457323913295
 20
-202.8766040345086
 30
0.0
 10
106.248976261441
 20
-202.4972571425502
 30
0.0
 10
106.4092472268141
 20
-202.7301687026619
 30
0.0
 10
106.6041072760018
 20
-202.7324769874014
 30
0.0
 10
106.5971894592389
 20
-202.5652882052641
 30
0.0
 10
106.5810455409742
 20
-202.1732598221499
 30
0.0
 10
106.8716008824756
 20
-201.9853246271782
 30
0.0
 10
107.0480157661135
 20
-201.7293513320376
 30
0.0
 10
107.3535679209638
 20
-201.2888982315818
 30
0.0
 10
107.6925550172606
 20
-200.8691985814134
 30
0.0
 10
108.0384599303196
 20
-200.4587250327488
 30
0.0
 10
108.3347789462146
 20
-200.1047481605561
 30
0.0
 10
108.6691565104866
 20
-199.7830591248941
 30
0.0
 10
108.9700920958593
 20
-199.4325446798104
 30
0.0
 10
109.1499623691523
 20
-199.2226948547275
 30
0.0
 10
109.2802537827344
 20
-198.9701839866952
 30
0.0
 10
109.4601240560274
 20
-198.7603341616123
 30
0.0
 10
110.0890113437726
 20
-198.0266358217061
 30
0.0
 10
110.8254233645497
 20
-197.3800043840851
 30
0.0
 10
111.24966854114
 20
-196.4922565797022
 30
0.0
 10
111.5074786429348
 20
-195.9527799646575
 30
0.0
 10
112.0232774028114
 20
-195.6720338315286
 30
0.0
 10
112.5488803945857
 20
-195.3870030230094
 30
0.0
 10
112.6178411825512
 20
-195.3496060723495
 30
0.0
 10
112.6112520567362
 20
-195.2242789888304
 30
0.0
 10
112.643607621014
 20
-195.111034513854
 30
0.0
 10
112.7150940733838
 20
-195.1075791241994
 30
0.0
 10
112.8822758180662
 20
-195.1479318824086
 30
0.0
 10
112.9387795319938
 20
-195.08682567391
 30
0.0
 10
113.2800531169701
 20
-194.716720888884
 30
0.0
 10
113.6662991772744
 20
-194.3627586259011
 30
0.0
 10
113.8992014755694
 20
-193.9292498981504
 30
0.0
 10
114.1152543271951
 20
-193.5271036010948
 30
0.0
 10
114.4045015650411
 20
-193.1746137268751
 30
0.0
 10
114.7567487973614
 20
-192.8842305898753
 30
0.0
 10
115.144909850802
 20
-192.5642410654237
 30
0.0
 10
115.4473625603755
 20
-192.1372616681677
 30
0.0
 10
115.8340019653117
 20
-191.8134104910025
 30
0.0
 10
116.2433471319084
 20
-191.4709464536145
 30
0.0
 10
116.642317786382
 20
-191.1469299035244
 30
0.0
 10
116.7413966734512
 20
-190.5852983815722
 30
0.0
 10
116.7485800244437
 20
-190.5445793498016
 30
0.0
 10
116.7652690988352
 20
-190.5048607975608
 30
0.0
 10
116.7922739405605
 20
-190.4735497994421
 30
0.0
 10
116.9155852541318
 20
-190.3305754266792
 30
0.0
 10
117.0435414602197
 20
-190.1922404205789
 30
0.0
 10
117.1703440051238
 20
-190.0516051266304
 30
0.0
 10
117.1853337810197
 20
-189.9559027968629
 30
0.0
 10
117.3248512961035
 20
-189.9674301456499
 30
0.0
 10
117.3709747661593
 20
-189.907478079522
 30
0.0
 10
117.6822835579501
 20
-189.4993057781412
 30
0.0
 10
118.1653977013547
 20
-189.4047575907451
 30
0.0
 10
118.5966247003087
 20
-189.2318051342143
 30
0.0
 10
119.238855666717
 20
-188.9746847341592
 30
0.0
 10
119.9237476760721
 20
-188.8155679111548
 30
0.0
 10
120.552143008954
 20
-188.5296221016781
 30
0.0
 10
121.0387195794675
 20
-188.3082378903539
 30
0.0
 10
121.6198372999234
 20
-188.3658887091966
 30
0.0
 10
122.0418381973763
 20
-187.9542680556156
 30
0.0
 10
122.23324285691
 20
-187.7686270704754
 30
0.0
 10
122.5076613175998
 20
-187.654479575158
 30
0.0
 10
122.7613263280003
 20
-187.5495581813431
 30
0.0
 10
123.0887790380564
 20
-187.414650198284
 30
0.0
 10
123.4508278693808
 20
-187.35815352181
 30
0.0
 10
123.7644449459098
 20
-187.202499125914
 30
0.0
 10
124.3225079687925
 20
-186.9269265228554
 30
0.0
 10
124.8528926871686
 20
-186.5983196704298
 30
0.0
 10
125.3994213238101
 20
-186.2996853323423
 30
0.0
 10
125.8894532839769
 20
-186.0310305460466
 30
0.0
 10
126.3852559559916
 20
-185.770454756335
 30
0.0
 10
126.8798974481831
 20
-185.5098719291716
 30
0.0
 10
127.1854496030335
 20
-185.3484468214297
 30
0.0
 10
127.4921488627996
 20
-185.1881758560559
 30
0.0
 10
127.8046188344135
 20
-185.0394392769235
 30
0.0
 10
128.2150923830795
 20
-184.8445792277364
 30
0.0
 10
128.648627666773
 20
-184.6900789742105
 30
0.0
 10
129.0418031548042
 20
-184.4652393732304
 30
0.0
 10
129.4672664793654
 20
-184.220800464331
 30
0.0
 10
129.8512229033479
 20
-183.9037209606937
 30
0.0
 10
130.2663059840379
 20
-183.6396757064214
 30
0.0
 10
131.0215303033934
 20
-183.1600239901258
 30
0.0
 10
131.8505493598577
 20
-182.7876019523833
 30
0.0
 10
132.4685644488676
 20
-182.1107748647068
 30
0.0
 10
132.6864862330842
 20
-181.8721066676546
 30
0.0
 10
133.1868984371228
 20
-181.845582505518
 30
0.0
 10
133.017401370248
 20
-181.3094341127478
 30
0.0
 10
133.1338571503035
 20
-181.3486327285883
 30
0.0
 10
133.31949109799
 20
-181.2610023579538
 30
0.0
 10
133.2964364004155
 20
-181.2183413150063
 30
0.0
 10
133.115411984753
 20
-180.8862720354731
 30
0.0
 10
133.4659264298367
 20
-180.6614394719474
 30
0.0
 10
133.5789197827853
 20
-180.6510592280762
 30
0.0
 10
134.003175328756
 20
-180.611570212742
 30
0.0
 10
134.1039056335991
 20
-180.2308852306859
 30
0.0
 10
134.3533008618613
 20
-180.022259872306
 30
0.0
 10
134.6789351667019
 20
-179.7498586157877
 30
0.0
 10
135.0133144980463
 20
-179.4872733658561
 30
0.0
 10
135.2921765096162
 20
-179.1671544449146
 30
0.0
 10
135.5973179714049
 20
-178.81686809744
 30
0.0
 10
136.0015630719584
 20
-178.5272550346175
 30
0.0
 10
136.2758267772596
 20
-178.1490122827888
 30
0.0
 10
136.6770742244238
 20
-177.5978741141234
 30
0.0
 10
137.0368218084623
 20
-177.0167493562137
 30
0.0
 10
137.4046343141801
 20
-176.4425494525207
 30
0.0
 10
137.4980283592081
 20
-176.2972682630428
 30
0.0
 10
137.5372269750473
 20
-176.1185521321192
 30
0.0
 10
137.6329293048141
 20
-175.9767333697502
 30
0.0
 10
138.0203411184525
 20
-175.3921532221859
 30
0.0
 10
138.4492668701214
 20
-174.8329360569345
 30
0.0
 10
138.8090074167068
 20
-174.2322190285579
 30
0.0
 10
139.1295423099994
 20
-173.6960635983346
 30
0.0
 10
139.38436146277
 20
-173.1218636946403
 30
0.0
 10
139.6576257810904
 20
-172.5580369973648
 30
0.0
 10
140.0807808209127
 20
-171.6875110403231
 30
0.0
 10
140.5281517381327
 20
-170.8262041473295
 30
0.0
 10
140.901727918244
 20
-169.9349247399991
 30
0.0
 10
141.3260371004351
 20
-168.9260354102418
 30
0.0
 10
141.6869317893906
 20
-167.890628955803
 30
0.0
 10
142.0651245389796
 20
-166.8632874230428
 30
0.0
 10
142.3476149588024
 20
-166.0953816125303
 30
0.0
 10
142.6520059338297
 20
-165.3332394764125
 30
0.0
 10
142.879153819548
 20
-164.5480356052651
 30
0.0
 10
143.2112230990812
 20
-163.3996287604247
 30
0.0
 10
143.3138432456109
 20
-162.1831978903234
 30
0.0
 10
143.900724640461
 20
-161.1085857825916
 30
0.0
 10
143.9260946602281
 20
-161.0624623125358
 30
0.0
 10
143.9111048843322
 20
-160.9955924296437
 30
0.0
 10
143.9203239483809
 20
-160.9390887157161
 30
0.0
 10
144.063303890573
 20
-160.1066142695979
 30
0.0
 10
144.2120404697055
 20
-159.274132786026
 30
0.0
 10
144.3492497000498
 20
-158.4405041975377
 30
0.0
 10
144.3953661326525
 20
-158.163777452109
 30
0.0
 10
144.4230444371578
 20
-157.8812940697405
 30
0.0
 10
144.4391813179701
 20
-157.6011119346566
 30
0.0
 10
144.4622430529983
 20
-157.1756486100948
 30
0.0
 10
144.4576335209736
 20
-156.7501852855342
 30
0.0
 10
144.4864589303954
 20
-156.3258761033418
 30
0.0
 10
144.5106677703393
 20
-155.9718992311504
 30
0.0
 10
144.6559489598166
 20
-155.6040867254326
 30
0.0
 10
144.5925344665797
 20
-155.2720174458994
 30
0.0
  0
ENDSEC
  0
SECTION
  2
OBJECTS
  0
DICTIONARY
  5
C
330
0
100
AcDbDictionary
281
     1
  3
ACAD_COLOR
350
63
  3
ACAD_DETAILVIEWSTYLE
350
6A
  3
ACAD_GROUP
350
D
  3
ACAD_LAYOUT
350
62
  3
ACAD_MATERIAL
350
10
  3
ACAD_MLEADERSTYLE
350
66
  3
ACAD_MLINESTYLE
350
5F
  3
ACAD_PLOTSETTINGS
350
61
  3
ACAD_PLOTSTYLENAME
350
E
  3
ACAD_SCALELIST
350
42
  3
ACAD_SECTIONVIEWSTYLE
350
68
  3
ACAD_TABLESTYLE
350
64
  3
ACAD_VISUALSTYLE
350
29
  3
ACDB_RECOMPOSE_DATA
350
86
  3
AcDbVariableDictionary
350
7E
  0
DICTIONARY
  5
63
102
{ACAD_REACTORS
330
C
102
}
330
C
100
AcDbDictionary
281
     1
  0
DICTIONARY
  5
6A
102
{ACAD_REACTORS
330
C
102
}
330
C
100
AcDbDictionary
281
     1
  3
Imperial24
350
6B
  0
DICTIONARY
  5
D
102
{ACAD_REACTORS
330
C
102
}
330
C
100
AcDbDictionary
281
     1
  0
DICTIONARY
  5
62
102
{ACAD_REACTORS
330
C
102
}
330
C
100
AcDbDictionary
281
     1
  3
Layout1
350
6F
  3
Layout2
350
77
  3
Model
350
73
  0
DICTIONARY
  5
10
102
{ACAD_REACTORS
330
C
102
}
330
C
100
AcDbDictionary
281
     1
  3
ByBlock
350
19
  3
ByLayer
350
11
  3
Global
350
21
  0
DICTIONARY
  5
66
102
{ACAD_REACTORS
330
C
102
}
330
C
100
AcDbDictionary
281
     1
  3
Standard
350
67
  0
DICTIONARY
  5
5F
102
{ACAD_REACTORS
330
C
102
}
330
C
100
AcDbDictionary
281
     1
  3
Standard
350
60
  0
DICTIONARY
  5
61
102
{ACAD_REACTORS
330
C
102
}
330
C
100
AcDbDictionary
281
     1
  0
ACDBDICTIONARYWDFLT
  5
E
102
{ACAD_REACTORS
330
C
102
}
330
C
100
AcDbDictionary
281
     1
  3
Normal
350
F
100
AcDbDictionaryWithDefault
340
F
  0
DICTIONARY
  5
42
102
{ACAD_REACTORS
330
C
102
}
330
C
100
AcDbDictionary
281
     1
  3
A0
350
43
  3
A1
350
44
  3
A2
350
45
  3
A3
350
46
  3
A4
350
47
  3
A5
350
48
  3
A6
350
49
  3
A7
350
4A
  3
A8
350
4B
  3
A9
350
4C
  3
B0
350
4D
  3
B1
350
4E
  3
B2
350
4F
  3
B3
350
50
  3
B4
350
51
  3
B5
350
52
  3
B6
350
53
  0
DICTIONARY
  5
68
102
{ACAD_REACTORS
330
C
102
}
330
C
100
AcDbDictionary
281
     1
  3
Imperial24
350
69
  0
DICTIONARY
  5
64
102
{ACAD_REACTORS
330
C
102
}
330
C
100
AcDbDictionary
281
     1
  3
Standard
350
65
  0
DICTIONARY
  5
29
102
{ACAD_REACTORS
330
C
102
}
330
C
100
AcDbDictionary
281
     1
  3
2dWireframe
350
2F
  3
Basic
350
2E
  3
Brighten
350
35
  3
ColorChange
350
39
  3
Conceptual
350
32
  3
Dim
350
34
  3
EdgeColorOff
350
41
  3
Facepattern
350
38
  3
Flat
350
2A
  3
FlatWithEdges
350
2B
  3
Gouraud
350
2C
  3
GouraudWithEdges
350
2D
  3
Hidden
350
31
  3
JitterOff
350
3F
  3
Linepattern
350
37
  3
OverhangOff
350
40
  3
Realistic
350
33
  3
Shaded
350
3E
  3
Shaded with edges
350
3D
  3
Shades of Gray
350
3A
  3
Sketchy
350
3B
  3
Thicken
350
36
  3
Wireframe
350
30
  3
X-Ray
350
3C
  0
XRECORD
  5
86
102
{ACAD_REACTORS
330
C
102
}
330
C
100
AcDbXrecord
280
     1
 90
        1
330
65
  0
DICTIONARY
  5
7E
102
{ACAD_REACTORS
330
C
102
}
330
C
100
AcDbDictionary
281
     1
  3
CANNOSCALE
350
83
  3
CMLEADERSTYLE
350
80
  3
CTABLESTYLE
350
7F
  3
CVIEWDETAILSTYLE
350
81
  3
CVIEWSECTIONSTYLE
350
82
  0
ACDBDETAILVIEWSTYLE
  5
6B
102
{ACAD_XDICTIONARY
360
89
102
}
102
{ACAD_REACTORS
330
6A
102
}
330
6A
100
AcDbModelDocViewStyle
 70
     0
  3
Imperial24
290
     0
100
AcDbDetailViewStyle
 70
     0
 71
     0
 90
        3
 71
     1
340
55
 62
   256
 40
0.24
340
0
 62
   256
 40
0.24
300

 40
0.36
280
     3
 71
     2
340
5D
 90
       25
 62
   256
 71
     3
340
55
 62
   256
 40
0.24
 90
        1
 40
0.75
 90
        1
300
%<\AcVar ViewType \f "%tc1">% %<\AcVar ViewDetailId>%\PSCALE %<\AcVar ViewScale \f "%sn">%
 71
     4
340
5D
 90
       25
 62
   256
340
5D
 90
       25
 62
   256
280
     0
  0
LAYOUT
  5
6F
102
{ACAD_REACTORS
330
62
102
}
330
62
100
AcDbPlotSettings
  1

  2

  4

  6

 40
0.0
 41
0.0
 42
0.0
 43
0.0
 44
0.0
 45
0.0
 46
0.0
 47
0.0
 48
0.0
 49
0.0
140
0.0
141
0.0
142
1.0
143
1.0
 70
   688
 72
     0
 73
     0
 74
     5
  7

 75
    16
147
1.0
 76
     0
 77
     2
 78
   300
148
0.0
149
0.0
100
AcDbLayout
  1
Layout1
 70
     1
 71
     1
 10
0.0
 20
0.0
 11
12.0
 21
9.0
 12
0.0
 22
0.0
 32
0.0
 14
0.0
 24
0.0
 34
0.0
 15
0.0
 25
0.0
 35
0.0
146
0.0
 13
0.0
 23
0.0
 33
0.0
 16
1.0
 26
0.0
 36
0.0
 17
0.0
 27
1.0
 37
0.0
 76
     0
330
6C
  0
LAYOUT
  5
77
102
{ACAD_REACTORS
330
62
102
}
330
62
100
AcDbPlotSettings
  1

  2

  4

  6

 40
0.0
 41
0.0
 42
0.0
 43
0.0
 44
0.0
 45
0.0
 46
0.0
 47
0.0
 48
0.0
 49
0.0
140
0.0
141
0.0
142
1.0
143
1.0
 70
   688
 72
     0
 73
     0
 74
     5
  7

 75
    16
147
1.0
 76
     0
 77
     2
 78
   300
148
0.0
149
0.0
100
AcDbLayout
  1
Layout2
 70
     1
 71
     2
 10
0.0
 20
0.0
 11
12.0
 21
9.0
 12
0.0
 22
0.0
 32
0.0
 14
0.0
 24
0.0
 34
0.0
 15
0.0
 25
0.0
 35
0.0
146
0.0
 13
0.0
 23
0.0
 33
0.0
 16
1.0
 26
0.0
 36
0.0
 17
0.0
 27
1.0
 37
0.0
 76
     0
330
74
  0
LAYOUT
  5
73
102
{ACAD_REACTORS
330
62
102
}
330
62
100
AcDbPlotSettings
  1

  2

  4

  6

 40
0.0
 41
0.0
 42
0.0
 43
0.0
 44
0.0
 45
0.0
 46
0.0
 47
0.0
 48
0.0
 49
0.0
140
0.0
141
0.0
142
1.0
143
1.0
 70
  1712
 72
     0
 73
     0
 74
     0
  7

 75
     0
147
1.0
 76
     0
 77
     2
 78
   300
148
0.0
149
0.0
100
AcDbLayout
  1
Model
 70
     1
 71
     0
 10
0.0
 20
0.0
 11
12.0
 21
9.0
 12
0.0
 22
0.0
 32
0.0
 14
0.0
 24
0.0
 34
0.0
 15
0.0
 25
0.0
 35
0.0
146
0.0
 13
0.0
 23
0.0
 33
0.0
 16
1.0
 26
0.0
 36
0.0
 17
0.0
 27
1.0
 37
0.0
 76
     0
330
70
  0
MATERIAL
  5
19
102
{ACAD_XDICTIONARY
360
1A
102
}
102
{ACAD_REACTORS
330
10
102
}
330
10
100
AcDbMaterial
  1
ByBlock
 72
     0
 43
0.0208333333333333
 43
0.0
 43
0.0
 43
0.0
 43
0.0
 43
0.0208333333333333
 43
0.0
 43
0.0
 43
0.0
 43
0.0
 43
1.0
 43
0.0
 43
0.0
 43
0.0
 43
0.0
 43
1.0
 77
     0
 47
0.0208333333333333
 47
0.0
 47
0.0
 47
0.0
 47
0.0
 47
0.0208333333333333
 47
0.0
 47
0.0
 47
0.0
 47
0.0
 47
1.0
 47
0.0
 47
0.0
 47
0.0
 47
0.0
 47
1.0
171
     0
 49
0.0208333333333333
 49
0.0
 49
0.0
 49
0.0
 49
0.0
 49
0.0208333333333333
 49
0.0
 49
0.0
 49
0.0
 49
0.0
 49
1.0
 49
0.0
 49
0.0
 49
0.0
 49
0.0
 49
1.0
175
     0
142
0.0208333333333333
142
0.0
142
0.0
142
0.0
142
0.0
142
0.0208333333333333
142
0.0
142
0.0
142
0.0
142
0.0
142
1.0
142
0.0
142
0.0
142
0.0
142
0.0
142
1.0
179
     0
144
0.0208333333333333
144
0.0
144
0.0
144
0.0
144
0.0
144
0.0208333333333333
144
0.0
144
0.0
144
0.0
144
0.0
144
1.0
144
0.0
144
0.0
144
0.0
144
0.0
144
1.0
147
0.0208333333333333
147
0.0
147
0.0
147
0.0
147
0.0
147
0.0208333333333333
147
0.0
147
0.0
147
0.0
147
0.0
147
1.0
147
0.0
147
0.0
147
0.0
147
0.0
147
1.0
  0
MATERIAL
  5
11
102
{ACAD_XDICTIONARY
360
12
102
}
102
{ACAD_REACTORS
330
10
102
}
330
10
100
AcDbMaterial
  1
ByLayer
 72
     0
 43
0.0208333333333333
 43
0.0
 43
0.0
 43
0.0
 43
0.0
 43
0.0208333333333333
 43
0.0
 43
0.0
 43
0.0
 43
0.0
 43
1.0
 43
0.0
 43
0.0
 43
0.0
 43
0.0
 43
1.0
 77
     0
 47
0.0208333333333333
 47
0.0
 47
0.0
 47
0.0
 47
0.0
 47
0.0208333333333333
 47
0.0
 47
0.0
 47
0.0
 47
0.0
 47
1.0
 47
0.0
 47
0.0
 47
0.0
 47
0.0
 47
1.0
171
     0
 49
0.0208333333333333
 49
0.0
 49
0.0
 49
0.0
 49
0.0
 49
0.0208333333333333
 49
0.0
 49
0.0
 49
0.0
 49
0.0
 49
1.0
 49
0.0
 49
0.0
 49
0.0
 49
0.0
 49
1.0
175
     0
142
0.0208333333333333
142
0.0
142
0.0
142
0.0
142
0.0
142
0.0208333333333333
142
0.0
142
0.0
142
0.0
142
0.0
142
1.0
142
0.0
142
0.0
142
0.0
142
0.0
142
1.0
179
     0
144
0.0208333333333333
144
0.0
144
0.0
144
0.0
144
0.0
144
0.0208333333333333
144
0.0
144
0.0
144
0.0
144
0.0
144
1.0
144
0.0
144
0.0
144
0.0
144
0.0
144
1.0
147
0.0208333333333333
147
0.0
147
0.0
147
0.0
147
0.0
147
0.0208333333333333
147
0.0
147
0.0
147
0.0
147
0.0
147
1.0
147
0.0
147
0.0
147
0.0
147
0.0
147
1.0
  0
MATERIAL
  5
21
102
{ACAD_XDICTIONARY
360
22
102
}
102
{ACAD_REACTORS
330
10
102
}
330
10
100
AcDbMaterial
  1
Global
 72
     0
 43
0.0208333333333333
 43
0.0
 43
0.0
 43
0.0
 43
0.0
 43
0.0208333333333333
 43
0.0
 43
0.0
 43
0.0
 43
0.0
 43
1.0
 43
0.0
 43
0.0
 43
0.0
 43
0.0
 43
1.0
 77
     0
 47
0.0208333333333333
 47
0.0
 47
0.0
 47
0.0
 47
0.0
 47
0.0208333333333333
 47
0.0
 47
0.0
 47
0.0
 47
0.0
 47
1.0
 47
0.0
 47
0.0
 47
0.0
 47
0.0
 47
1.0
171
     0
 49
0.0208333333333333
 49
0.0
 49
0.0
 49
0.0
 49
0.0
 49
0.0208333333333333
 49
0.0
 49
0.0
 49
0.0
 49
0.0
 49
1.0
 49
0.0
 49
0.0
 49
0.0
 49
0.0
 49
1.0
175
     0
142
0.0208333333333333
142
0.0
142
0.0
142
0.0
142
0.0
142
0.0208333333333333
142
0.0
142
0.0
142
0.0
142
0.0
142
1.0
142
0.0
142
0.0
142
0.0
142
0.0
142
1.0
179
     0
144
0.0208333333333333
144
0.0
144
0.0
144
0.0
144
0.0
144
0.0208333333333333
144
0.0
144
0.0
144
0.0
144
0.0
144
1.0
144
0.0
144
0.0
144
0.0
144
0.0
144
1.0
147
0.0208333333333333
147
0.0
147
0.0
147
0.0
147
0.0
147
0.0208333333333333
147
0.0
147
0.0
147
0.0
147
0.0
147
1.0
147
0.0
147
0.0
147
0.0
147
0.0
147
1.0
  0
MLEADERSTYLE
  5
67
102
{ACAD_REACTORS
330
66
102
}
330
66
100
AcDbMLeaderStyle
179
     2
170
     2
171
     1
172
     0
 90
        2
 40
0.0
 41
0.0
173
     1
 91
-1056964608
340
5B
 92
       -2
290
     1
 42
0.09
291
     1
 43
0.36
  3
Standard
 44
0.18
300

342
55
174
     1
178
     6
175
     1
176
     0
 93
-1056964608
 45
0.18
292
     0
297
     0
 46
0.18
 94
-1056964608
 47
1.0
 49
1.0
140
1.0
293
     1
141
0.0
294
     1
177
     0
142
1.0
295
     0
296
     0
143
0.125
271
     0
272
     9
273
     9
298
     1
  0
MLINESTYLE
  5
60
102
{ACAD_REACTORS
330
5F
102
}
330
5F
100
AcDbMlineStyle
  2
STANDARD
 70
     0
  3

 62
   256
 51
90.0
 52
90.0
 71
     2
 49
0.5
 62
   256
  6
BYLAYER
 49
-0.5
 62
   256
  6
BYLAYER
  0
ACDBPLACEHOLDER
  5
F
102
{ACAD_REACTORS
330
E
102
}
330
E
  0
SCALE
  5
43
102
{ACAD_REACTORS
330
42
102
}
330
42
100
AcDbScale
 70
     0
300
1:1
140
1.0
141
1.0
290
     1
  0
SCALE
  5
44
102
{ACAD_REACTORS
330
42
102
}
330
42
100
AcDbScale
 70
     0
300
1/128" = 1'-0"
140
0.0078125
141
12.0
290
     0
  0
SCALE
  5
45
102
{ACAD_REACTORS
330
42
102
}
330
42
100
AcDbScale
 70
     0
300
1/64" = 1'-0"
140
0.015625
141
12.0
290
     0
  0
SCALE
  5
46
102
{ACAD_REACTORS
330
42
102
}
330
42
100
AcDbScale
 70
     0
300
1/32" = 1'-0"
140
0.03125
141
12.0
290
     0
  0
SCALE
  5
47
102
{ACAD_REACTORS
330
42
102
}
330
42
100
AcDbScale
 70
     0
300
1/16" = 1'-0"
140
0.0625
141
12.0
290
     0
  0
SCALE
  5
48
102
{ACAD_REACTORS
330
42
102
}
330
42
100
AcDbScale
 70
     0
300
3/32" = 1'-0"
140
0.09375
141
12.0
290
     0
  0
SCALE
  5
49
102
{ACAD_REACTORS
330
42
102
}
330
42
100
AcDbScale
 70
     0
300
1/8" = 1'-0"
140
0.125
141
12.0
290
     0
  0
SCALE
  5
4A
102
{ACAD_REACTORS
330
42
102
}
330
42
100
AcDbScale
 70
     0
300
3/16" = 1'-0"
140
0.1875
141
12.0
290
     0
  0
SCALE
  5
4B
102
{ACAD_REACTORS
330
42
102
}
330
42
100
AcDbScale
 70
     0
300
1/4" = 1'-0"
140
0.25
141
12.0
290
     0
  0
SCALE
  5
4C
102
{ACAD_REACTORS
330
42
102
}
330
42
100
AcDbScale
 70
     0
300
3/8" = 1'-0"
140
0.375
141
12.0
290
     0
  0
SCALE
  5
4D
102
{ACAD_REACTORS
330
42
102
}
330
42
100
AcDbScale
 70
     0
300
1/2" = 1'-0"
140
0.5
141
12.0
290
     0
  0
SCALE
  5
4E
102
{ACAD_REACTORS
330
42
102
}
330
42
100
AcDbScale
 70
     0
300
3/4" = 1'-0"
140
0.75
141
12.0
290
     0
  0
SCALE
  5
4F
102
{ACAD_REACTORS
330
42
102
}
330
42
100
AcDbScale
 70
     0
300
1" = 1'-0"
140
1.0
141
12.0
290
     0
  0
SCALE
  5
50
102
{ACAD_REACTORS
330
42
102
}
330
42
100
AcDbScale
 70
     0
300
1-1/2" = 1'-0"
140
1.5
141
12.0
290
     0
  0
SCALE
  5
51
102
{ACAD_REACTORS
330
42
102
}
330
42
100
AcDbScale
 70
     0
300
3" = 1'-0"
140
3.0
141
12.0
290
     0
  0
SCALE
  5
52
102
{ACAD_REACTORS
330
42
102
}
330
42
100
AcDbScale
 70
     0
300
6" = 1'-0"
140
6.0
141
12.0
290
     0
  0
SCALE
  5
53
102
{ACAD_REACTORS
330
42
102
}
330
42
100
AcDbScale
 70
     0
300
1'-0" = 1'-0"
140
12.0
141
12.0
290
     0
  0
ACDBSECTIONVIEWSTYLE
  5
69
102
{ACAD_XDICTIONARY
360
87
102
}
102
{ACAD_REACTORS
330
68
102
}
330
68
100
AcDbModelDocViewStyle
 70
     0
  3
Imperial24
290
     0
100
AcDbSectionViewStyle
 70
     0
 71
     0
 90
       78
 71
     1
340
55
 62
   256
 40
0.24
340
0
340
0
 62
   256
 40
0.24
300
I, O, Q, S, X, Z
 40
0.48
 90
        3
 40
0.18
 90
        1
 71
     2
340
5D
 90
       25
 62
   256
340
5D
 90
       50
 62
   256
 40
0.24
 40
0.0
 40
0.24
 71
     3
340
55
 62
   256
 40
0.24
 90
        1
 40
0.75
 90
        1
300
%<\AcVar ViewType \f "%tc1">% %<\AcVar ViewSectionStartId>%-%<\AcVar ViewSectionEndId>%\PSCALE %<\AcVar ViewScale \f "%sn">%
 71
     4
 62
   256
 62
   257
300
ANSI31
 40
1.0
 90
        0
290
     0
290
     0
 90
        6
 40
0.0
 40
1.570796326794896
 40
0.2617993877991494
 40
1.308996938995747
 40
-0.2617993877991494
 40
1.832595714594046
  0
TABLESTYLE
  5
65
102
{ACAD_XDICTIONARY
360
84
102
}
102
{ACAD_REACTORS
330
64
102
}
330
64
100
AcDbTableStyle
280
     0
  3
Standard
 70
     0
 71
     0
 40
0.06
 41
0.06
280
     0
281
     0
  7
Standard
140
0.18
170
     2
 62
     0
 63
     7
283
     0
 90
      512
 91
        0
  1

274
    -2
284
     1
 64
     0
275
    -2
285
     1
 65
     0
276
    -2
286
     1
 66
     0
277
    -2
287
     1
 67
     0
278
    -2
288
     1
 68
     0
279
    -2
289
     1
 69
     0
  7
Standard
140
0.25
170
     5
 62
     0
 63
     7
283
     0
 90
      512
 91
        0
  1

274
    -2
284
     1
 64
     0
275
    -2
285
     1
 65
     0
276
    -2
286
     1
 66
     0
277
    -2
287
     1
 67
     0
278
    -2
288
     1
 68
     0
279
    -2
289
     1
 69
     0
  7
Standard
140
0.18
170
     5
 62
     0
 63
     7
283
     0
 90
      512
 91
        0
  1

274
    -2
284
     1
 64
     0
275
    -2
285
     1
 65
     0
276
    -2
286
     1
 66
     0
277
    -2
287
     1
 67
     0
278
    -2
288
     1
 68
     0
279
    -2
289
     1
 69
     0
  0
VISUALSTYLE
  5
2F
102
{ACAD_REACTORS
330
29
102
}
330
29
100
AcDbVisualStyle
  2
2dWireframe
 70
     4
177
     3
291
     0
 70
    58
 90
        0
176
     1
 90
        2
176
     1
 90
        0
176
     1
 90
        0
176
     1
 40
0.6
176
     1
 40
30.0
176
     1
 62
     7
420
 16777215
176
     1
 90
        1
176
     1
 90
        4
176
     1
 62
     7
176
     1
 62
   257
176
     1
 90
        1
176
     1
 90
        1
176
     1
 40
1.0
176
     1
 90
        0
176
     1
 62
   257
176
     1
 40
1.0
176
     1
 90
        1
176
     1
 90
        6
176
     1
 90
        2
176
     1
 62
     7
176
     1
 90
        5
176
     1
 90
        0
176
     1
 90
        0
176
     1
290
     0
176
     1
 90
        1
176
     1
 40
0.0
176
     1
 90
        0
176
     1
290
     1
176
     1
290
     1
176
     1
290
     0
176
     1
290
     0
176
     1
290
     0
176
     1
290
     0
176
     1
290
     0
176
     1
290
     0
176
     1
290
     0
176
     1
 90
       50
176
     1
 40
0.0
176
     1
 40
1.0
176
     1
 90
        0
176
     1
 62
    18
420
        0
176
     1
 90
       50
176
     1
 90
        3
176
     1
 62
     5
420
      255
176
     1
290
     0
176
     1
 90
       50
176
     1
 90
       50
176
     1
 90
       50
176
     1
290
     0
176
     1
 90
       50
176
     1
 62
   256
176
     0
 40
1.0
176
     0
 90
        2
176
     1
  1
strokes_ogs.tif
176
     1
290
     0
176
     1
 40
1.0
176
     1
 40
1.0
176
     1
1001
ACAD
1000
AcDbSavedByObjectVersion
1070
     0
  0
VISUALSTYLE
  5
2E
102
{ACAD_REACTORS
330
29
102
}
330
29
100
AcDbVisualStyle
  2
Basic
 70
     7
177
     3
291
     1
 70
    58
 90
        1
176
     1
 90
        0
176
     1
 90
        1
176
     1
 90
        0
176
     1
 40
0.6
176
     1
 40
30.0
176
     1
 62
     7
420
 16777215
176
     1
 90
        0
176
     1
 90
        4
176
     1
 62
     7
176
     1
 62
   257
176
     1
 90
        1
176
     1
 90
        1
176
     1
 40
1.0
176
     1
 90
        8
176
     1
 62
     7
176
     1
 40
1.0
176
     1
 90
        1
176
     1
 90
        6
176
     1
 90
        2
176
     1
 62
     7
176
     1
 90
        5
176
     1
 90
        0
176
     1
 90
        0
176
     1
290
     0
176
     1
 90
        1
176
     1
 40
0.0
176
     1
 90
        0
176
     1
290
     0
176
     1
290
     1
176
     1
290
     1
176
     1
290
     0
176
     1
290
     0
176
     1
290
     0
176
     1
290
     0
176
     1
290
     0
176
     1
290
     0
176
     1
 90
       50
176
     1
 40
0.0
176
     1
 40
1.0
176
     1
 90
        0
176
     1
 62
    18
420
        0
176
     1
 90
       50
176
     1
 90
        3
176
     1
 62
     5
420
      255
176
     1
290
     0
176
     1
 90
       50
176
     1
 90
       50
176
     1
 90
       50
176
     1
290
     0
176
     1
 90
       50
176
     1
 62
   256
176
     0
 40
1.0
176
     0
 90
        2
176
     1
  1
strokes_ogs.tif
176
     1
290
     0
176
     1
 40
1.0
176
     1
 40
1.0
176
     1
1001
ACAD
1000
AcDbSavedByObjectVersion
1070
     0
  0
VISUALSTYLE
  5
35
102
{ACAD_REACTORS
330
29
102
}
330
29
100
AcDbVisualStyle
  2
Brighten
 70
    12
177
     3
291
     1
 70
    58
 90
        2
176
     1
 90
        2
176
     1
 90
        0
176
     1
 90
        0
176
     1
 40
0.6
176
     1
 40
30.0
176
     1
 62
     7
420
 16777215
176
     1
 90
        1
176
     1
 90
        4
176
     1
 62
     7
176
     1
 62
   257
176
     1
 90
        1
176
     1
 90
        1
176
     1
 40
1.0
176
     1
 90
        8
176
     1
 62
     7
176
     1
 40
1.0
176
     1
 90
        1
176
     1
 90
        6
176
     1
 90
        2
176
     1
 62
     7
176
     1
 90
        5
176
     1
 90
        0
176
     1
 90
        0
176
     1
290
     0
176
     1
 90
        1
176
     1
 40
50.0
176
     1
 90
        0
176
     1
290
     0
176
     1
290
     1
176
     1
290
     1
176
     1
290
     0
176
     1
290
     0
176
     1
290
     0
176
     1
290
     0
176
     1
290
     0
176
     1
290
     0
176
     1
 90
       50
176
     1
 40
0.0
176
     1
 40
1.0
176
     1
 90
        0
176
     1
 62
    18
420
        0
176
     1
 90
       50
176
     1
 90
        3
176
     1
 62
     5
420
      255
176
     1
290
     0
176
     1
 90
       50
176
     1
 90
       50
176
     1
 90
       50
176
     1
290
     0
176
     1
 90
       50
176
     1
 62
   256
176
     0
 40
1.0
176
     0
 90
        2
176
     1
  1
strokes_ogs.tif
176
     1
290
     0
176
     1
 40
1.0
176
     1
 40
1.0
176
     1
1001
ACAD
1000
AcDbSavedByObjectVersion
1070
     0
  0
VISUALSTYLE
  5
39
102
{ACAD_REACTORS
330
29
102
}
330
29
100
AcDbVisualStyle
  2
ColorChange
 70
    16
177
     3
291
     1
 70
    58
 90
        2
176
     1
 90
        2
176
     1
 90
        3
176
     1
 90
        0
176
     1
 40
0.6
176
     1
 40
30.0
176
     1
 62
     8
420
  8421504
176
     1
 90
        1
176
     1
 90
        4
176
     1
 62
     7
176
     1
 62
   257
176
     1
 90
        1
176
     1
 90
        1
176
     1
 40
1.0
176
     1
 90
        8
176
     1
 62
     8
420
  8421504
176
     1
 40
1.0
176
     1
 90
        1
176
     1
 90
        6
176
     1
 90
        2
176
     1
 62
     7
176
     1
 90
        5
176
     1
 90
        0
176
     1
 90
        0
176
     1
290
     0
176
     1
 90
        1
176
     1
 40
0.0
176
     1
 90
        0
176
     1
290
     0
176
     1
290
     1
176
     1
290
     1
176
     1
290
     0
176
     1
290
     0
176
     1
290
     0
176
     1
290
     0
176
     1
290
     0
176
     1
290
     0
176
     1
 90
       50
176
     1
 40
0.0
176
     1
 40
1.0
176
     1
 90
        0
176
     1
 62
    18
420
        0
176
     1
 90
       50
176
     1
 90
        3
176
     1
 62
     5
420
      255
176
     1
290
     0
176
     1
 90
       50
176
     1
 90
       50
176
     1
 90
       50
176
     1
290
     0
176
     1
 90
       50
176
     1
 62
   256
176
     0
 40
1.0
176
     0
 90
        2
176
     1
  1
strokes_ogs.tif
176
     1
290
     0
176
     1
 40
1.0
176
     1
 40
1.0
176
     1
1001
ACAD
1000
AcDbSavedByObjectVersion
1070
     0
  0
VISUALSTYLE
  5
32
102
{ACAD_REACTORS
330
29
102
}
330
29
100
AcDbVisualStyle
  2
Conceptual
 70
     9
177
     3
291
     0
 70
    58
 90
        3
176
     1
 90
        2
176
     1
 90
        0
176
     1
 90
        0
176
     1
 40
0.6
176
     1
 40
30.0
176
     1
 62
     7
420
 16777215
176
     1
 90
        2
176
     1
 90
        2
176
     1
 62
     7
176
     1
 62
   257
176
     1
 90
        1
176
     1
 90
        1
176
     1
 40
179.0
176
     1
 90
        8
176
     1
 62
     7
176
     1
 40
1.0
176
     1
 90
        1
176
     1
 90
        6
176
     1
 90
        2
176
     1
 62
     7
176
     1
 90
        3
176
     1
 90
        0
176
     1
 90
        0
176
     1
290
     0
176
     1
 90
        1
176
     1
 40
0.0
176
     1
 90
        0
176
     1
290
     0
176
     1
290
     1
176
     1
290
     1
176
     1
290
     0
176
     1
290
     0
176
     1
290
     0
176
     1
290
     0
176
     1
290
     0
176
     1
290
     0
176
     1
 90
       50
176
     1
 40
0.0
176
     1
 40
1.0
176
     1
 90
        0
176
     1
 62
    18
420
        0
176
     1
 90
       50
176
     1
 90
        3
176
     1
 62
     5
420
      255
176
     1
290
     0
176
     1
 90
       50
176
     1
 90
       50
176
     1
 90
       50
176
     1
290
     0
176
     1
 90
       50
176
     1
 62
   256
176
     0
 40
1.0
176
     0
 90
        2
176
     1
  1
strokes_ogs.tif
176
     1
290
     0
176
     1
 40
1.0
176
     1
 40
1.0
176
     1
1001
ACAD
1000
AcDbSavedByObjectVersion
1070
     0
  0
VISUALSTYLE
  5
34
102
{ACAD_REACTORS
330
29
102
}
330
29
100
AcDbVisualStyle
  2
Dim
 70
    11
177
     3
291
     1
 70
    58
 90
        2
176
     1
 90
        2
176
     1
 90
        0
176
     1
 90
        0
176
     1
 40
0.6
176
     1
 40
30.0
176
     1
 62
     7
420
 16777215
176
     1
 90
        1
176
     1
 90
        4
176
     1
 62
     7
176
     1
 62
   257
176
     1
 90
        1
176
     1
 90
        1
176
     1
 40
1.0
176
     1
 90
        8
176
     1
 62
     7
176
     1
 40
1.0
176
     1
 90
        1
176
     1
 90
        6
176
     1
 90
        2
176
     1
 62
     7
176
     1
 90
        5
176
     1
 90
        0
176
     1
 90
        0
176
     1
290
     0
176
     1
 90
        1
176
     1
 40
-50.0
176
     1
 90
        0
176
     1
290
     0
176
     1
290
     1
176
     1
290
     1
176
     1
290
     0
176
     1
290
     0
176
     1
290
     0
176
     1
290
     0
176
     1
290
     0
176
     1
290
     0
176
     1
 90
       50
176
     1
 40
0.0
176
     1
 40
1.0
176
     1
 90
        0
176
     1
 62
    18
420
        0
176
     1
 90
       50
176
     1
 90
        3
176
     1
 62
     5
420
      255
176
     1
290
     0
176
     1
 90
       50
176
     1
 90
       50
176
     1
 90
       50
176
     1
290
     0
176
     1
 90
       50
176
     1
 62
   256
176
     0
 40
1.0
176
     0
 90
        2
176
     1
  1
strokes_ogs.tif
176
     1
290
     0
176
     1
 40
1.0
176
     1
 40
1.0
176
     1
1001
ACAD
1000
AcDbSavedByObjectVersion
1070
     0
  0
VISUALSTYLE
  5
41
102
{ACAD_REACTORS
330
29
102
}
330
29
100
AcDbVisualStyle
  2
EdgeColorOff
 70
    22
177
     3
291
     1
 70
    58
 90
        2
176
     0
 90
        2
176
     0
 90
        0
176
     0
 90
        0
176
     0
 40
0.6
176
     0
 40
30.0
176
     0
 62
     7
420
 16777215
176
     0
 90
        1
176
     0
 90
        4
176
     0
 62
     7
176
     0
 62
   257
176
     0
 90
        1
176
     0
 90
        1
176
     0
 40
1.0
176
     0
 90
        8
176
     2
 62
     7
176
     0
 40
1.0
176
     0
 90
        1
176
     0
 90
        6
176
     0
 90
        2
176
     0
 62
     7
176
     0
 90
        5
176
     0
 90
        0
176
     0
 90
        0
176
     0
290
     0
176
     0
 90
        1
176
     0
 40
0.0
176
     0
 90
        0
176
     0
290
     0
176
     0
290
     1
176
     0
290
     1
176
     0
290
     0
176
     0
290
     0
176
     0
290
     0
176
     0
290
     0
176
     0
290
     0
176
     0
290
     0
176
     0
 90
       50
176
     0
 40
0.0
176
     0
 40
1.0
176
     0
 90
        0
176
     0
 62
    18
420
        0
176
     0
 90
       50
176
     0
 90
        3
176
     0
 62
     5
420
      255
176
     0
290
     0
176
     0
 90
       50
176
     0
 90
       50
176
     0
 90
       50
176
     0
290
     0
176
     0
 90
       50
176
     0
 62
   256
176
     0
 40
1.0
176
     0
 90
        2
176
     0
  1
strokes_ogs.tif
176
     0
290
     0
176
     0
 40
1.0
176
     0
 40
1.0
176
     0
1001
ACAD
1000
AcDbSavedByObjectVersion
1070
     0
  0
VISUALSTYLE
  5
38
102
{ACAD_REACTORS
330
29
102
}
330
29
100
AcDbVisualStyle
  2
Facepattern
 70
    15
177
     3
291
     1
 70
    58
 90
        2
176
     1
 90
        2
176
     1
 90
        0
176
     1
 90
        0
176
     1
 40
0.6
176
     1
 40
30.0
176
     1
 62
     7
420
 16777215
176
     1
 90
        1
176
     1
 90
        4
176
     1
 62
     7
176
     1
 62
   257
176
     1
 90
        1
176
     1
 90
        1
176
     1
 40
1.0
176
     1
 90
        8
176
     1
 62
     7
176
     1
 40
1.0
176
     1
 90
        1
176
     1
 90
        6
176
     1
 90
        2
176
     1
 62
     7
176
     1
 90
        5
176
     1
 90
        0
176
     1
 90
        0
176
     1
290
     0
176
     1
 90
        1
176
     1
 40
0.0
176
     1
 90
        0
176
     1
290
     0
176
     1
290
     1
176
     1
290
     1
176
     1
290
     0
176
     1
290
     0
176
     1
290
     0
176
     1
290
     0
176
     1
290
     0
176
     1
290
     0
176
     1
 90
       50
176
     1
 40
0.0
176
     1
 40
1.0
176
     1
 90
        0
176
     1
 62
    18
420
        0
176
     1
 90
       50
176
     1
 90
        3
176
     1
 62
     5
420
      255
176
     1
290
     0
176
     1
 90
       50
176
     1
 90
       50
176
     1
 90
       50
176
     1
290
     0
176
     1
 90
       50
176
     1
 62
   256
176
     0
 40
1.0
176
     0
 90
        2
176
     1
  1
strokes_ogs.tif
176
     1
290
     0
176
     1
 40
1.0
176
     1
 40
1.0
176
     1
1001
ACAD
1000
AcDbSavedByObjectVersion
1070
     0
  0
VISUALSTYLE
  5
2A
102
{ACAD_REACTORS
330
29
102
}
330
29
100
AcDbVisualStyle
  2
Flat
 70
     0
177
     3
291
     1
 70
    58
 90
        2
176
     1
 90
        1
176
     1
 90
        1
176
     1
 90
        2
176
     1
 40
0.6
176
     1
 40
30.0
176
     1
 62
     7
420
 16777215
176
     1
 90
        0
176
     1
 90
        0
176
     1
 62
     7
176
     1
 62
   257
176
     1
 90
        1
176
     1
 90
        1
176
     1
 40
1.0
176
     1
 90
        8
176
     1
 62
     7
176
     1
 40
1.0
176
     1
 90
        1
176
     1
 90
        6
176
     1
 90
        2
176
     1
 62
     7
176
     1
 90
        5
176
     1
 90
        0
176
     1
 90
        0
176
     1
290
     0
176
     1
 90
       13
176
     1
 40
0.0
176
     1
 90
        0
176
     1
290
     0
176
     1
290
     1
176
     1
290
     1
176
     1
290
     0
176
     1
290
     0
176
     1
290
     0
176
     1
290
     0
176
     1
290
     0
176
     1
290
     0
176
     1
 90
       50
176
     1
 40
0.0
176
     1
 40
1.0
176
     1
 90
        0
176
     1
 62
    18
420
        0
176
     1
 90
       50
176
     1
 90
        3
176
     1
 62
     5
420
      255
176
     1
290
     0
176
     1
 90
       50
176
     1
 90
       50
176
     1
 90
       50
176
     1
290
     0
176
     1
 90
       50
176
     1
 62
   256
176
     0
 40
1.0
176
     0
 90
        2
176
     1
  1
strokes_ogs.tif
176
     1
290
     0
176
     1
 40
1.0
176
     1
 40
1.0
176
     1
1001
ACAD
1000
AcDbSavedByObjectVersion
1070
     0
  0
VISUALSTYLE
  5
2B
102
{ACAD_REACTORS
330
29
102
}
330
29
100
AcDbVisualStyle
  2
FlatWithEdges
 70
     1
177
     3
291
     1
 70
    58
 90
        2
176
     1
 90
        1
176
     1
 90
        1
176
     1
 90
        2
176
     1
 40
0.6
176
     1
 40
30.0
176
     1
 62
     7
420
 16777215
176
     1
 90
        1
176
     1
 90
        0
176
     1
 62
     7
176
     1
 62
   257
176
     1
 90
        1
176
     1
 90
        1
176
     1
 40
1.0
176
     1
 90
        0
176
     1
 62
   257
176
     1
 40
1.0
176
     1
 90
        1
176
     1
 90
        6
176
     1
 90
        2
176
     1
 62
     7
176
     1
 90
        5
176
     1
 90
        0
176
     1
 90
        0
176
     1
290
     0
176
     1
 90
       13
176
     1
 40
0.0
176
     1
 90
        0
176
     1
290
     0
176
     1
290
     1
176
     1
290
     1
176
     1
290
     0
176
     1
290
     0
176
     1
290
     0
176
     1
290
     0
176
     1
290
     0
176
     1
290
     0
176
     1
 90
       50
176
     1
 40
0.0
176
     1
 40
1.0
176
     1
 90
        0
176
     1
 62
    18
420
        0
176
     1
 90
       50
176
     1
 90
        3
176
     1
 62
     5
420
      255
176
     1
290
     0
176
     1
 90
       50
176
     1
 90
       50
176
     1
 90
       50
176
     1
290
     0
176
     1
 90
       50
176
     1
 62
   256
176
     0
 40
1.0
176
     0
 90
        2
176
     1
  1
strokes_ogs.tif
176
     1
290
     0
176
     1
 40
1.0
176
     1
 40
1.0
176
     1
1001
ACAD
1000
AcDbSavedByObjectVersion
1070
     0
  0
VISUALSTYLE
  5
2C
102
{ACAD_REACTORS
330
29
102
}
330
29
100
AcDbVisualStyle
  2
Gouraud
 70
     2
177
     3
291
     1
 70
    58
 90
        2
176
     1
 90
        2
176
     1
 90
        1
176
     1
 90
        2
176
     1
 40
0.6
176
     1
 40
30.0
176
     1
 62
     7
420
 16777215
176
     1
 90
        0
176
     1
 90
        0
176
     1
 62
     7
176
     1
 62
   257
176
     1
 90
        1
176
     1
 90
        1
176
     1
 40
1.0
176
     1
 90
        0
176
     1
 62
     7
176
     1
 40
1.0
176
     1
 90
        1
176
     1
 90
        6
176
     1
 90
        2
176
     1
 62
     7
176
     1
 90
        5
176
     1
 90
        0
176
     1
 90
        0
176
     1
290
     0
176
     1
 90
       13
176
     1
 40
0.0
176
     1
 90
        0
176
     1
290
     0
176
     1
290
     1
176
     1
290
     1
176
     1
290
     0
176
     1
290
     0
176
     1
290
     0
176
     1
290
     0
176
     1
290
     0
176
     1
290
     0
176
     1
 90
       50
176
     1
 40
0.0
176
     1
 40
1.0
176
     1
 90
        0
176
     1
 62
    18
420
        0
176
     1
 90
       50
176
     1
 90
        3
176
     1
 62
     5
420
      255
176
     1
290
     0
176
     1
 90
       50
176
     1
 90
       50
176
     1
 90
       50
176
     1
290
     0
176
     1
 90
       50
176
     1
 62
   256
176
     0
 40
1.0
176
     0
 90
        2
176
     1
  1
strokes_ogs.tif
176
     1
290
     0
176
     1
 40
1.0
176
     1
 40
1.0
176
     1
1001
ACAD
1000
AcDbSavedByObjectVersion
1070
     0
  0
VISUALSTYLE
  5
2D
102
{ACAD_REACTORS
330
29
102
}
330
29
100
AcDbVisualStyle
  2
GouraudWithEdges
 70
     3
177
     3
291
     1
 70
    58
 90
        2
176
     1
 90
        2
176
     1
 90
        1
176
     1
 90
        2
176
     1
 40
0.6
176
     1
 40
30.0
176
     1
 62
     7
420
 16777215
176
     1
 90
        1
176
     1
 90
        0
176
     1
 62
     7
176
     1
 62
   257
176
     1
 90
        1
176
     1
 90
        1
176
     1
 40
1.0
176
     1
 90
        0
176
     1
 62
   257
176
     1
 40
1.0
176
     1
 90
        1
176
     1
 90
        6
176
     1
 90
        2
176
     1
 62
     7
176
     1
 90
        5
176
     1
 90
        0
176
     1
 90
        0
176
     1
290
     0
176
     1
 90
       13
176
     1
 40
0.0
176
     1
 90
        0
176
     1
290
     0
176
     1
290
     1
176
     1
290
     1
176
     1
290
     0
176
     1
290
     0
176
     1
290
     0
176
     1
290
     0
176
     1
290
     0
176
     1
290
     0
176
     1
 90
       50
176
     1
 40
0.0
176
     1
 40
1.0
176
     1
 90
        0
176
     1
 62
    18
420
        0
176
     1
 90
       50
176
     1
 90
        3
176
     1
 62
     5
420
      255
176
     1
290
     0
176
     1
 90
       50
176
     1
 90
       50
176
     1
 90
       50
176
     1
290
     0
176
     1
 90
       50
176
     1
 62
   256
176
     0
 40
1.0
176
     0
 90
        2
176
     1
  1
strokes_ogs.tif
176
     1
290
     0
176
     1
 40
1.0
176
     1
 40
1.0
176
     1
1001
ACAD
1000
AcDbSavedByObjectVersion
1070
     0
  0
VISUALSTYLE
  5
31
102
{ACAD_REACTORS
330
29
102
}
330
29
100
AcDbVisualStyle
  2
Hidden
 70
     6
177
     3
291
     0
 70
    58
 90
        1
176
     1
 90
        2
176
     1
 90
        2
176
     1
 90
        0
176
     1
 40
0.6
176
     1
 40
30.0
176
     1
 62
     7
420
 16777215
176
     1
 90
        2
176
     1
 90
        2
176
     1
 62
     7
176
     1
 62
   257
176
     1
 90
        2
176
     1
 90
        1
176
     1
 40
40.0
176
     1
 90
        0
176
     1
 62
   257
176
     1
 40
1.0
176
     1
 90
        1
176
     1
 90
        6
176
     1
 90
        2
176
     1
 62
     7
176
     1
 90
        3
176
     1
 90
        0
176
     1
 90
        0
176
     1
290
     0
176
     1
 90
        1
176
     1
 40
0.0
176
     1
 90
        0
176
     1
290
     0
176
     1
290
     1
176
     1
290
     1
176
     1
290
     0
176
     1
290
     0
176
     1
290
     0
176
     1
290
     0
176
     1
290
     0
176
     1
290
     0
176
     1
 90
       50
176
     1
 40
0.0
176
     1
 40
1.0
176
     1
 90
        0
176
     1
 62
    18
420
        0
176
     1
 90
       50
176
     1
 90
        3
176
     1
 62
     5
420
      255
176
     1
290
     0
176
     1
 90
       50
176
     1
 90
       50
176
     1
 90
       50
176
     1
290
     0
176
     1
 90
       50
176
     1
 62
   256
176
     0
 40
1.0
176
     0
 90
        2
176
     1
  1
strokes_ogs.tif
176
     1
290
     0
176
     1
 40
1.0
176
     1
 40
1.0
176
     1
1001
ACAD
1000
AcDbSavedByObjectVersion
1070
     0
  0
VISUALSTYLE
  5
3F
102
{ACAD_REACTORS
330
29
102
}
330
29
100
AcDbVisualStyle
  2
JitterOff
 70
    20
177
     3
291
     1
 70
    58
 90
        2
176
     0
 90
        2
176
     0
 90
        0
176
     0
 90
        0
176
     0
 40
0.6
176
     0
 40
30.0
176
     0
 62
     7
420
 16777215
176
     0
 90
        1
176
     0
 90
        4
176
     0
 62
     7
176
     0
 62
   257
176
     0
 90
        1
176
     0
 90
        1
176
     0
 40
1.0
176
     0
 90
       10
176
     2
 62
     7
176
     0
 40
1.0
176
     0
 90
        1
176
     0
 90
        6
176
     0
 90
        2
176
     0
 62
     7
176
     0
 90
        5
176
     0
 90
        0
176
     0
 90
        0
176
     0
290
     0
176
     0
 90
        1
176
     0
 40
0.0
176
     0
 90
        0
176
     0
290
     0
176
     0
290
     1
176
     0
290
     1
176
     0
290
     0
176
     0
290
     0
176
     0
290
     0
176
     0
290
     0
176
     0
290
     0
176
     0
290
     0
176
     0
 90
       50
176
     0
 40
0.0
176
     0
 40
1.0
176
     0
 90
        0
176
     0
 62
    18
420
        0
176
     0
 90
       50
176
     0
 90
        3
176
     0
 62
     5
420
      255
176
     0
290
     0
176
     0
 90
       50
176
     0
 90
       50
176
     0
 90
       50
176
     0
290
     0
176
     0
 90
       50
176
     0
 62
   256
176
     0
 40
1.0
176
     0
 90
        2
176
     0
  1
strokes_ogs.tif
176
     0
290
     0
176
     0
 40
1.0
176
     0
 40
1.0
176
     0
1001
ACAD
1000
AcDbSavedByObjectVersion
1070
     0
  0
VISUALSTYLE
  5
37
102
{ACAD_REACTORS
330
29
102
}
330
29
100
AcDbVisualStyle
  2
Linepattern
 70
    14
177
     3
291
     1
 70
    58
 90
        2
176
     1
 90
        2
176
     1
 90
        0
176
     1
 90
        0
176
     1
 40
0.6
176
     1
 40
30.0
176
     1
 62
     7
420
 16777215
176
     1
 90
        1
176
     1
 90
        4
176
     1
 62
     7
176
     1
 62
   257
176
     1
 90
        7
176
     1
 90
        7
176
     1
 40
1.0
176
     1
 90
        8
176
     1
 62
     7
176
     1
 40
1.0
176
     1
 90
        1
176
     1
 90
        6
176
     1
 90
        2
176
     1
 62
     7
176
     1
 90
        5
176
     1
 90
        0
176
     1
 90
        0
176
     1
290
     0
176
     1
 90
        1
176
     1
 40
0.0
176
     1
 90
        0
176
     1
290
     0
176
     1
290
     1
176
     1
290
     1
176
     1
290
     0
176
     1
290
     0
176
     1
290
     0
176
     1
290
     0
176
     1
290
     0
176
     1
290
     0
176
     1
 90
       50
176
     1
 40
0.0
176
     1
 40
1.0
176
     1
 90
        0
176
     1
 62
    18
420
        0
176
     1
 90
       50
176
     1
 90
        3
176
     1
 62
     5
420
      255
176
     1
290
     0
176
     1
 90
       50
176
     1
 90
       50
176
     1
 90
       50
176
     1
290
     0
176
     1
 90
       50
176
     1
 62
   256
176
     0
 40
1.0
176
     0
 90
        2
176
     1
  1
strokes_ogs.tif
176
     1
290
     0
176
     1
 40
1.0
176
     1
 40
1.0
176
     1
1001
ACAD
1000
AcDbSavedByObjectVersion
1070
     0
  0
VISUALSTYLE
  5
40
102
{ACAD_REACTORS
330
29
102
}
330
29
100
AcDbVisualStyle
  2
OverhangOff
 70
    21
177
     3
291
     1
 70
    58
 90
        2
176
     0
 90
        2
176
     0
 90
        0
176
     0
 90
        0
176
     0
 40
0.6
176
     0
 40
30.0
176
     0
 62
     7
420
 16777215
176
     0
 90
        1
176
     0
 90
        4
176
     0
 62
     7
176
     0
 62
   257
176
     0
 90
        1
176
     0
 90
        1
176
     0
 40
1.0
176
     0
 90
        9
176
     2
 62
     7
176
     0
 40
1.0
176
     0
 90
        1
176
     0
 90
        6
176
     0
 90
        2
176
     0
 62
     7
176
     0
 90
        5
176
     0
 90
        0
176
     0
 90
        0
176
     0
290
     0
176
     0
 90
        1
176
     0
 40
0.0
176
     0
 90
        0
176
     0
290
     0
176
     0
290
     1
176
     0
290
     1
176
     0
290
     0
176
     0
290
     0
176
     0
290
     0
176
     0
290
     0
176
     0
290
     0
176
     0
290
     0
176
     0
 90
       50
176
     0
 40
0.0
176
     0
 40
1.0
176
     0
 90
        0
176
     0
 62
    18
420
        0
176
     0
 90
       50
176
     0
 90
        3
176
     0
 62
     5
420
      255
176
     0
290
     0
176
     0
 90
       50
176
     0
 90
       50
176
     0
 90
       50
176
     0
290
     0
176
     0
 90
       50
176
     0
 62
   256
176
     0
 40
1.0
176
     0
 90
        2
176
     0
  1
strokes_ogs.tif
176
     0
290
     0
176
     0
 40
1.0
176
     0
 40
1.0
176
     0
1001
ACAD
1000
AcDbSavedByObjectVersion
1070
     0
  0
VISUALSTYLE
  5
33
102
{ACAD_REACTORS
330
29
102
}
330
29
100
AcDbVisualStyle
  2
Realistic
 70
     8
177
     3
291
     0
 70
    58
 90
        2
176
     1
 90
        3
176
     1
 90
        0
176
     1
 90
        2
176
     1
 40
0.6
176
     1
 40
30.0
176
     1
 62
     7
420
 16777215
176
     1
 90
        0
176
     1
 90
        0
176
     1
 62
     7
176
     1
 62
   257
176
     1
 90
        1
176
     1
 90
        1
176
     1
 40
1.0
176
     1
 90
        8
176
     1
 62
   257
176
     1
 40
1.0
176
     1
 90
        1
176
     1
 90
        6
176
     1
 90
        2
176
     1
 62
     7
176
     1
 90
        3
176
     1
 90
        0
176
     1
 90
        0
176
     1
290
     0
176
     1
 90
       13
176
     1
 40
0.0
176
     1
 90
        0
176
     1
290
     0
176
     1
290
     1
176
     1
290
     1
176
     1
290
     0
176
     1
290
     0
176
     1
290
     0
176
     1
290
     0
176
     1
290
     0
176
     1
290
     0
176
     1
 90
       50
176
     1
 40
0.0
176
     1
 40
1.0
176
     1
 90
        0
176
     1
 62
    18
420
        0
176
     1
 90
       50
176
     1
 90
        3
176
     1
 62
     5
420
      255
176
     1
290
     0
176
     1
 90
       50
176
     1
 90
       50
176
     1
 90
       50
176
     1
290
     0
176
     1
 90
       50
176
     1
 62
   256
176
     0
 40
1.0
176
     0
 90
        2
176
     1
  1
strokes_ogs.tif
176
     1
290
     0
176
     1
 40
1.0
176
     1
 40
1.0
176
     1
1001
ACAD
1000
AcDbSavedByObjectVersion
1070
     0
  0
VISUALSTYLE
  5
3E
102
{ACAD_REACTORS
330
29
102
}
330
29
100
AcDbVisualStyle
  2
Shaded
 70
    27
177
     3
291
     0
 70
    58
 90
        2
176
     1
 90
        2
176
     1
 90
        1
176
     1
 90
        2
176
     1
 40
0.6
176
     1
 40
30.0
176
     1
 62
     7
420
 16777215
176
     1
 90
        0
176
     1
 90
        4
176
     1
 62
     7
176
     1
 62
   257
176
     1
 90
        1
176
     1
 90
        1
176
     1
 40
1.0
176
     1
 90
        8
176
     1
 62
   257
176
     1
 40
1.0
176
     1
 90
        1
176
     1
 90
        6
176
     1
 90
        2
176
     1
 62
     8
420
  7895160
176
     1
 90
        3
176
     1
 90
        0
176
     1
 90
        0
176
     1
290
     0
176
     1
 90
        5
176
     1
 40
0.0
176
     1
 90
        0
176
     1
290
     0
176
     1
290
     1
176
     1
290
     1
176
     1
290
     0
176
     1
290
     0
176
     1
290
     0
176
     1
290
     0
176
     1
290
     0
176
     1
290
     0
176
     1
 90
       50
176
     1
 40
0.0
176
     1
 40
1.0
176
     1
 90
        0
176
     1
 62
    18
420
        0
176
     1
 90
       50
176
     1
 90
        3
176
     1
 62
     5
420
      255
176
     1
290
     0
176
     1
 90
       50
176
     1
 90
       50
176
     1
 90
       50
176
     1
290
     0
176
     1
 90
       50
176
     1
 62
   256
176
     0
 40
1.0
176
     0
 90
        2
176
     1
  1
strokes_ogs.tif
176
     1
290
     0
176
     1
 40
1.0
176
     1
 40
1.0
176
     1
1001
ACAD
1000
AcDbSavedByObjectVersion
1070
     0
  0
VISUALSTYLE
  5
3D
102
{ACAD_REACTORS
330
29
102
}
330
29
100
AcDbVisualStyle
  2
Shaded with edges
 70
    26
177
     3
291
     0
 70
    58
 90
        2
176
     1
 90
        2
176
     1
 90
        1
176
     1
 90
        2
176
     1
 40
0.6
176
     1
 40
30.0
176
     1
 62
     7
420
 16777215
176
     1
 90
        1
176
     1
 90
        2
176
     1
 62
     7
176
     1
 62
   257
176
     1
 90
        2
176
     1
 90
        1
176
     1
 40
1.0
176
     1
 90
        8
176
     1
 62
   257
176
     1
 40
1.0
176
     1
 90
        1
176
     1
 90
        6
176
     1
 90
        2
176
     1
 62
     7
176
     1
 90
        3
176
     1
 90
        0
176
     1
 90
        0
176
     1
290
     0
176
     1
 90
        5
176
     1
 40
0.0
176
     1
 90
        0
176
     1
290
     0
176
     1
290
     1
176
     1
290
     1
176
     1
290
     0
176
     1
290
     0
176
     1
290
     0
176
     1
290
     0
176
     1
290
     0
176
     1
290
     0
176
     1
 90
       50
176
     1
 40
0.0
176
     1
 40
1.0
176
     1
 90
        0
176
     1
 62
    18
420
        0
176
     1
 90
       50
176
     1
 90
        3
176
     1
 62
     5
420
      255
176
     1
290
     0
176
     1
 90
       50
176
     1
 90
       50
176
     1
 90
       50
176
     1
290
     0
176
     1
 90
       50
176
     1
 62
   256
176
     0
 40
1.0
176
     0
 90
        2
176
     1
  1
strokes_ogs.tif
176
     1
290
     0
176
     1
 40
1.0
176
     1
 40
1.0
176
     1
1001
ACAD
1000
AcDbSavedByObjectVersion
1070
     0
  0
VISUALSTYLE
  5
3A
102
{ACAD_REACTORS
330
29
102
}
330
29
100
AcDbVisualStyle
  2
Shades of Gray
 70
    23
177
     3
291
     0
 70
    58
 90
        2
176
     1
 90
        2
176
     1
 90
        3
176
     1
 90
        0
176
     1
 40
0.6
176
     1
 40
30.0
176
     1
 62
     7
420
 16777215
176
     1
 90
        2
176
     1
 90
        2
176
     1
 62
     7
176
     1
 62
     7
176
     1
 90
        1
176
     1
 90
        1
176
     1
 40
40.0
176
     1
 90
        8
176
     1
 62
     7
176
     1
 40
1.0
176
     1
 90
        1
176
     1
 90
        6
176
     1
 90
        2
176
     1
 62
     7
176
     1
 90
        3
176
     1
 90
        0
176
     1
 90
        0
176
     1
290
     0
176
     1
 90
        1
176
     1
 40
0.0
176
     1
 90
        0
176
     1
290
     0
176
     1
290
     1
176
     1
290
     1
176
     1
290
     0
176
     1
290
     0
176
     1
290
     0
176
     1
290
     0
176
     1
290
     0
176
     1
290
     0
176
     1
 90
       50
176
     1
 40
0.0
176
     1
 40
1.0
176
     1
 90
        0
176
     1
 62
    18
420
        0
176
     1
 90
       50
176
     1
 90
        3
176
     1
 62
     5
420
      255
176
     1
290
     0
176
     1
 90
       50
176
     1
 90
       50
176
     1
 90
       50
176
     1
290
     0
176
     1
 90
       50
176
     1
 62
   256
176
     0
 40
1.0
176
     0
 90
        2
176
     1
  1
strokes_ogs.tif
176
     1
290
     0
176
     1
 40
1.0
176
     1
 40
1.0
176
     1
1001
ACAD
1000
AcDbSavedByObjectVersion
1070
     0
  0
VISUALSTYLE
  5
3B
102
{ACAD_REACTORS
330
29
102
}
330
29
100
AcDbVisualStyle
  2
Sketchy
 70
    24
177
     3
291
     0
 70
    58
 90
        1
176
     1
 90
        2
176
     1
 90
        2
176
     1
 90
        0
176
     1
 40
0.6
176
     1
 40
30.0
176
     1
 62
     7
420
 16777215
176
     1
 90
        2
176
     1
 90
        2
176
     1
 62
     7
176
     1
 62
     7
176
     1
 90
        1
176
     1
 90
        1
176
     1
 40
40.0
176
     1
 90
       11
176
     1
 62
     7
176
     1
 40
1.0
176
     1
 90
        1
176
     1
 90
        6
176
     1
 90
        2
176
     1
 62
     7
176
     1
 90
        6
176
     1
 90
        0
176
     1
 90
        0
176
     1
290
     0
176
     1
 90
        1
176
     1
 40
0.0
176
     1
 90
        0
176
     1
290
     0
176
     1
290
     1
176
     1
290
     1
176
     1
290
     0
176
     1
290
     0
176
     1
290
     0
176
     1
290
     0
176
     1
290
     0
176
     1
290
     0
176
     1
 90
       50
176
     1
 40
0.0
176
     1
 40
1.0
176
     1
 90
        0
176
     1
 62
    18
420
        0
176
     1
 90
       50
176
     1
 90
        3
176
     1
 62
     5
420
      255
176
     1
290
     0
176
     1
 90
       50
176
     1
 90
       50
176
     1
 90
       50
176
     1
290
     0
176
     1
 90
       50
176
     1
 62
   256
176
     0
 40
1.0
176
     0
 90
        2
176
     1
  1
strokes_ogs.tif
176
     1
290
     0
176
     1
 40
1.0
176
     1
 40
1.0
176
     1
1001
ACAD
1000
AcDbSavedByObjectVersion
1070
     0
  0
VISUALSTYLE
  5
36
102
{ACAD_REACTORS
330
29
102
}
330
29
100
AcDbVisualStyle
  2
Thicken
 70
    13
177
     3
291
     1
 70
    58
 90
        2
176
     1
 90
        2
176
     1
 90
        0
176
     1
 90
        0
176
     1
 40
0.6
176
     1
 40
30.0
176
     1
 62
     7
420
 16777215
176
     1
 90
        1
176
     1
 90
        4
176
     1
 62
     7
176
     1
 62
   257
176
     1
 90
        1
176
     1
 90
        1
176
     1
 40
1.0
176
     1
 90
       12
176
     1
 62
     7
176
     1
 40
1.0
176
     1
 90
        1
176
     1
 90
        6
176
     1
 90
        2
176
     1
 62
     7
176
     1
 90
        5
176
     1
 90
        0
176
     1
 90
        0
176
     1
290
     0
176
     1
 90
        1
176
     1
 40
0.0
176
     1
 90
        0
176
     1
290
     0
176
     1
290
     1
176
     1
290
     1
176
     1
290
     0
176
     1
290
     0
176
     1
290
     0
176
     1
290
     0
176
     1
290
     0
176
     1
290
     0
176
     1
 90
       50
176
     1
 40
0.0
176
     1
 40
1.0
176
     1
 90
        0
176
     1
 62
    18
420
        0
176
     1
 90
       50
176
     1
 90
        3
176
     1
 62
     5
420
      255
176
     1
290
     0
176
     1
 90
       50
176
     1
 90
       50
176
     1
 90
       50
176
     1
290
     0
176
     1
 90
       50
176
     1
 62
   256
176
     0
 40
1.0
176
     0
 90
        2
176
     1
  1
strokes_ogs.tif
176
     1
290
     0
176
     1
 40
1.0
176
     1
 40
1.0
176
     1
1001
ACAD
1000
AcDbSavedByObjectVersion
1070
     0
  0
VISUALSTYLE
  5
30
102
{ACAD_REACTORS
330
29
102
}
330
29
100
AcDbVisualStyle
  2
Wireframe
 70
     5
177
     3
291
     0
 70
    58
 90
        0
176
     1
 90
        2
176
     1
 90
        0
176
     1
 90
        0
176
     1
 40
0.6
176
     1
 40
30.0
176
     1
 62
     7
420
 16777215
176
     1
 90
        1
176
     1
 90
        4
176
     1
 62
     7
176
     1
 62
   257
176
     1
 90
        1
176
     1
 90
        1
176
     1
 40
1.0
176
     1
 90
        0
176
     1
 62
   257
176
     1
 40
1.0
176
     1
 90
        1
176
     1
 90
        6
176
     1
 90
        2
176
     1
 62
     7
176
     1
 90
        3
176
     1
 90
        0
176
     1
 90
        0
176
     1
290
     0
176
     1
 90
        1
176
     1
 40
0.0
176
     1
 90
        0
176
     1
290
     0
176
     1
290
     1
176
     1
290
     1
176
     1
290
     0
176
     1
290
     0
176
     1
290
     0
176
     1
290
     0
176
     1
290
     0
176
     1
290
     0
176
     1
 90
       50
176
     1
 40
0.0
176
     1
 40
1.0
176
     1
 90
        0
176
     1
 62
    18
420
        0
176
     1
 90
       50
176
     1
 90
        3
176
     1
 62
     5
420
      255
176
     1
290
     0
176
     1
 90
       50
176
     1
 90
       50
176
     1
 90
       50
176
     1
290
     0
176
     1
 90
       50
176
     1
 62
   256
176
     0
 40
1.0
176
     0
 90
        2
176
     1
  1
strokes_ogs.tif
176
     1
290
     0
176
     1
 40
1.0
176
     1
 40
1.0
176
     1
1001
ACAD
1000
AcDbSavedByObjectVersion
1070
     0
  0
VISUALSTYLE
  5
3C
102
{ACAD_REACTORS
330
29
102
}
330
29
100
AcDbVisualStyle
  2
X-Ray
 70
    25
177
     3
291
     0
 70
    58
 90
        2
176
     1
 90
        2
176
     1
 90
        1
176
     1
 90
        1
176
     1
 40
0.5
176
     1
 40
30.0
176
     1
 62
     7
420
 16777215
176
     1
 90
        1
176
     1
 90
        0
176
     1
 62
     7
176
     1
 62
   257
176
     1
 90
        1
176
     1
 90
        1
176
     1
 40
1.0
176
     1
 90
        8
176
     1
 62
     7
176
     1
 40
1.0
176
     1
 90
        1
176
     1
 90
        6
176
     1
 90
        2
176
     1
 62
     7
176
     1
 90
        3
176
     1
 90
        0
176
     1
 90
        0
176
     1
290
     0
176
     1
 90
       13
176
     1
 40
0.0
176
     1
 90
        0
176
     1
290
     0
176
     1
290
     1
176
     1
290
     1
176
     1
290
     0
176
     1
290
     0
176
     1
290
     0
176
     1
290
     0
176
     1
290
     0
176
     1
290
     0
176
     1
 90
       50
176
     1
 40
0.0
176
     1
 40
1.0
176
     1
 90
        0
176
     1
 62
    18
420
        0
176
     1
 90
       50
176
     1
 90
        3
176
     1
 62
     5
420
      255
176
     1
290
     0
176
     1
 90
       50
176
     1
 90
       50
176
     1
 90
       50
176
     1
290
     0
176
     1
 90
       50
176
     1
 62
   256
176
     0
 40
1.0
176
     0
 90
        2
176
     1
  1
strokes_ogs.tif
176
     1
290
     0
176
     1
 40
1.0
176
     1
 40
1.0
176
     1
1001
ACAD
1000
AcDbSavedByObjectVersion
1070
     0
  0
DICTIONARYVAR
  5
83
102
{ACAD_REACTORS
330
7E
102
}
330
7E
100
DictionaryVariables
280
     0
  1
1:1
  0
DICTIONARYVAR
  5
80
102
{ACAD_REACTORS
330
7E
102
}
330
7E
100
DictionaryVariables
280
     0
  1
STANDARD
  0
DICTIONARYVAR
  5
7F
102
{ACAD_REACTORS
330
7E
102
}
330
7E
100
DictionaryVariables
280
     0
  1
STANDARD
  0
DICTIONARYVAR
  5
81
102
{ACAD_REACTORS
330
7E
102
}
330
7E
100
DictionaryVariables
280
     0
  1
Imperial24
  0
DICTIONARYVAR
  5
82
102
{ACAD_REACTORS
330
7E
102
}
330
7E
100
DictionaryVariables
280
     0
  1
Imperial24
  0
DICTIONARY
  5
89
330
6B
100
AcDbDictionary
280
     1
281
     1
  3
ACAD_XREC_ROUNDTRIP
360
8A
  0
DICTIONARY
  5
1A
330
19
100
AcDbDictionary
280
     1
281
     1
  3
BUMPTILE
360
1C
  3
DIFFUSETILE
360
1B
  3
OPACITYTILE
360
1F
  3
REFLECTIONTILE
360
1E
  3
REFRACTIONTILE
360
20
  3
SPECULARTILE
360
1D
  0
DICTIONARY
  5
12
330
11
100
AcDbDictionary
280
     1
281
     1
  3
BUMPTILE
360
14
  3
DIFFUSETILE
360
13
  3
OPACITYTILE
360
17
  3
REFLECTIONTILE
360
16
  3
REFRACTIONTILE
360
18
  3
SPECULARTILE
360
15
  0
DICTIONARY
  5
22
330
21
100
AcDbDictionary
280
     1
281
     1
  3
BUMPTILE
360
24
  3
DIFFUSETILE
360
23
  3
OPACITYTILE
360
27
  3
REFLECTIONTILE
360
26
  3
REFRACTIONTILE
360
28
  3
SPECULARTILE
360
25
  0
DICTIONARY
  5
87
330
69
100
AcDbDictionary
280
     1
281
     1
  3
ACAD_XREC_ROUNDTRIP
360
88
  0
DICTIONARY
  5
84
330
65
100
AcDbDictionary
280
     1
281
     1
  3
ACAD_ROUNDTRIP_2008_TABLESTYLE_CELLSTYLEMAP
360
85
  0
XRECORD
  5
8A
102
{ACAD_REACTORS
330
89
102
}
330
89
100
AcDbXrecord
280
     1
102
DISPLAYNAME
  1
Imperial24
102
FLAGS
 90
        0
  0
XRECORD
  5
1C
102
{ACAD_REACTORS
330
1A
102
}
330
1A
100
AcDbXrecord
280
     1
270
     1
271
     1
  0
XRECORD
  5
1B
102
{ACAD_REACTORS
330
1A
102
}
330
1A
100
AcDbXrecord
280
     1
270
     1
271
     1
  0
XRECORD
  5
1F
102
{ACAD_REACTORS
330
1A
102
}
330
1A
100
AcDbXrecord
280
     1
270
     1
271
     1
  0
XRECORD
  5
1E
102
{ACAD_REACTORS
330
1A
102
}
330
1A
100
AcDbXrecord
280
     1
270
     1
271
     1
  0
XRECORD
  5
20
102
{ACAD_REACTORS
330
1A
102
}
330
1A
100
AcDbXrecord
280
     1
270
     1
271
     1
  0
XRECORD
  5
1D
102
{ACAD_REACTORS
330
1A
102
}
330
1A
100
AcDbXrecord
280
     1
270
     1
271
     1
  0
XRECORD
  5
14
102
{ACAD_REACTORS
330
12
102
}
330
12
100
AcDbXrecord
280
     1
270
     1
271
     1
  0
XRECORD
  5
13
102
{ACAD_REACTORS
330
12
102
}
330
12
100
AcDbXrecord
280
     1
270
     1
271
     1
  0
XRECORD
  5
17
102
{ACAD_REACTORS
330
12
102
}
330
12
100
AcDbXrecord
280
     1
270
     1
271
     1
  0
XRECORD
  5
16
102
{ACAD_REACTORS
330
12
102
}
330
12
100
AcDbXrecord
280
     1
270
     1
271
     1
  0
XRECORD
  5
18
102
{ACAD_REACTORS
330
12
102
}
330
12
100
AcDbXrecord
280
     1
270
     1
271
     1
  0
XRECORD
  5
15
102
{ACAD_REACTORS
330
12
102
}
330
12
100
AcDbXrecord
280
     1
270
     1
271
     1
  0
XRECORD
  5
24
102
{ACAD_REACTORS
330
22
102
}
330
22
100
AcDbXrecord
280
     1
270
     1
271
     1
  0
XRECORD
  5
23
102
{ACAD_REACTORS
330
22
102
}
330
22
100
AcDbXrecord
280
     1
270
     1
271
     1
  0
XRECORD
  5
27
102
{ACAD_REACTORS
330
22
102
}
330
22
100
AcDbXrecord
280
     1
270
     1
271
     1
  0
XRECORD
  5
26
102
{ACAD_REACTORS
330
22
102
}
330
22
100
AcDbXrecord
280
     1
270
     1
271
     1
  0
XRECORD
  5
28
102
{ACAD_REACTORS
330
22
102
}
330
22
100
AcDbXrecord
280
     1
270
     1
271
     1
  0
XRECORD
  5
25
102
{ACAD_REACTORS
330
22
102
}
330
22
100
AcDbXrecord
280
     1
270
     1
271
     1
  0
XRECORD
  5
88
102
{ACAD_REACTORS
330
87
102
}
330
87
100
AcDbXrecord
280
     1
102
DISPLAYNAME
  1
Imperial24
102
FLAGS
 90
        0
  0
CELLSTYLEMAP
  5
85
102
{ACAD_REACTORS
330
84
102
}
330
84
100
AcDbCellStyleMap
 90
        3
300
CELLSTYLE
  1
TABLEFORMAT_BEGIN
 90
        5
170
     1
 91
        0
 92
    32768
 62
   257
 93
        1
300
CONTENTFORMAT
  1
CONTENTFORMAT_BEGIN
 90
        0
 91
        0
 92
      512
 93
        0
300

 40
0.0
140
1.0
 94
        5
 62
     0
340
55
144
0.25
309
CONTENTFORMAT_END
171
     0
 94
        0
309
TABLEFORMAT_END
  1
CELLSTYLE_BEGIN
 90
        1
 91
        1
300
_TITLE
309
CELLSTYLE_END
300
CELLSTYLE
  1
TABLEFORMAT_BEGIN
 90
        5
170
     1
 91
        0
 92
        0
 62
   257
 93
        1
300
CONTENTFORMAT
  1
CONTENTFORMAT_BEGIN
 90
        0
 91
        0
 92
      512
 93
        0
300

 40
0.0
140
1.0
 94
        5
 62
     0
340
55
144
0.18
309
CONTENTFORMAT_END
171
     0
 94
        0
309
TABLEFORMAT_END
  1
CELLSTYLE_BEGIN
 90
        2
 91
        1
300
_HEADER
309
CELLSTYLE_END
300
CELLSTYLE
  1
TABLEFORMAT_BEGIN
 90
        5
170
     1
 91
        0
 92
        0
 62
   257
 93
        1
300
CONTENTFORMAT
  1
CONTENTFORMAT_BEGIN
 90
        0
 91
        0
 92
      512
 93
        0
300

 40
0.0
140
1.0
 94
        2
 62
     0
340
55
144
0.18
309
CONTENTFORMAT_END
171
     0
 94
        0
309
TABLEFORMAT_END
  1
CELLSTYLE_BEGIN
 90
        3
 91
        2
300
_DATA
309
CELLSTYLE_END
  0
ENDSEC
  0
EOF
